<?xml version="1.0" encoding="utf-8"?>
<!-- Generator: Adobe Illustrator 16.0.0, SVG Export Plug-In . SVG Version: 6.00 Build 0)  -->
<!DOCTYPE svg PUBLIC "-//W3C//DTD SVG 1.1//EN" "http://www.w3.org/Graphics/SVG/1.1/DTD/svg11.dtd">
<svg version="1.1" id="Layer_1" xmlns="http://www.w3.org/2000/svg" xmlns:xlink="http://www.w3.org/1999/xlink" x="0px" y="0px"
	 width="362.848px" height="96.453px" viewBox="0 0 362.848 96.453" enable-background="new 0 0 362.848 96.453"
	 xml:space="preserve">
<path fill="#5B5B5B" d="M44.555,70.874V45.677c0-3.061-0.51-5.885-1.494-8.436c-0.984-2.551-2.423-4.755-4.3-6.632
	c-1.877-1.876-4.154-3.316-6.833-4.354c-2.697-1.021-5.739-1.53-9.128-1.549c-2.241,0-4.428,0.292-6.559,0.875
	c-2.132,0.565-4.136,1.421-6.013,2.551c-1.876,1.148-3.553,2.551-5.029,4.227c-0.564,0.601-1.02,1.275-1.385,2.041
	c-0.382,0.747-0.564,1.567-0.583,2.442c0.019,1.057,0.273,2.004,0.766,2.824c0.492,0.82,1.147,1.458,1.968,1.931
	c0.82,0.456,1.731,0.692,2.733,0.71c1.02-0.018,1.895-0.255,2.66-0.71c0.766-0.437,1.494-0.984,2.187-1.64
	c0.71-0.656,1.458-1.33,2.278-1.986c0.819-0.656,1.785-1.203,2.896-1.64c1.111-0.456,2.478-0.674,4.082-0.693
	c2.55,0,4.609,0.419,6.213,1.239c1.585,0.82,2.769,1.986,3.498,3.48c0.747,1.494,1.129,3.261,1.111,5.32v3.479L21.052,51.89
	c-2.642,0.528-5.192,1.33-7.634,2.368c-2.441,1.039-4.646,2.369-6.577,3.99s-3.48,3.571-4.61,5.867
	c-1.129,2.277-1.712,4.919-1.731,7.943c0.037,3.279,0.656,6.158,1.877,8.618c1.239,2.459,2.896,4.519,4.992,6.176
	c2.077,1.658,4.445,2.897,7.051,3.735c2.624,0.82,5.338,1.239,8.163,1.239c2.915-0.019,5.703-0.51,8.326-1.494
	c2.624-0.984,4.956-2.405,7.015-4.245c2.041-1.84,3.644-4.045,4.828-6.614c1.185-2.568,1.786-5.429,1.804-8.617V70.874
	L44.555,70.874z M33.624,70.856c-0.018,1.913-0.474,3.625-1.403,5.119c-0.929,1.513-2.223,2.697-3.899,3.571
	c-1.658,0.875-3.607,1.33-5.848,1.349c-2.369-0.019-4.373-0.401-6.013-1.148c-1.64-0.765-2.897-1.804-3.753-3.151
	c-0.838-1.33-1.275-2.879-1.275-4.646c0-1.349,0.382-2.679,1.166-3.936c0.783-1.275,1.986-2.404,3.571-3.389
	c1.585-0.983,3.571-1.749,5.976-2.277l11.479-2.605V70.856z"/>
<path fill="#5B5B5B" d="M89.714,29.406c-1.604-1.439-3.48-2.587-5.629-3.425c-2.15-0.838-4.464-1.257-6.942-1.275
	c-3.28,0.019-6.323,0.638-9.165,1.84c-2.824,1.203-5.32,2.879-7.47,5.029c-2.132,2.15-3.808,4.627-5.029,7.452
	c-1.202,2.842-1.822,5.885-1.84,9.146V68.36c0.018,3.261,0.638,6.304,1.84,9.128c1.221,2.842,2.897,5.319,5.029,7.47
	c2.15,2.15,4.646,3.826,7.47,5.029c2.842,1.202,5.885,1.821,9.165,1.84c3.279-0.019,6.322-0.638,9.164-1.84
	c2.824-1.203,5.32-2.879,7.47-5.029s3.826-4.628,5.029-7.47c1.203-2.824,1.822-5.867,1.84-9.128V6.504
	c-0.018-1.221-0.292-2.241-0.801-3.061c-0.529-0.82-1.203-1.421-2.041-1.84c-0.82-0.419-1.695-0.62-2.624-0.62
	c-0.93,0-1.804,0.201-2.624,0.62c-0.838,0.419-1.512,1.021-2.022,1.84c-0.528,0.82-0.801,1.84-0.82,3.061V29.406L89.714,29.406z
	 M77.143,35.637c2.35,0.019,4.482,0.583,6.377,1.695c1.876,1.111,3.389,2.605,4.5,4.5c1.111,1.876,1.676,3.99,1.694,6.341V68.36
	c-0.018,2.35-0.583,4.464-1.694,6.34c-1.111,1.896-2.624,3.389-4.5,4.501c-1.895,1.111-4.027,1.676-6.377,1.694
	c-2.351-0.019-4.482-0.583-6.377-1.694c-1.876-1.112-3.37-2.605-4.481-4.501c-1.112-1.876-1.695-3.99-1.713-6.34V48.173
	c0.018-2.351,0.601-4.464,1.713-6.341c1.111-1.895,2.605-3.389,4.481-4.5C72.661,36.22,74.792,35.656,77.143,35.637z"/>
<path fill="#5B5B5B" d="M151.25,8.308c0-0.948-0.218-1.895-0.692-2.861c-0.474-0.983-1.239-1.876-2.277-2.696
	c-1.039-0.82-2.405-1.476-4.082-1.986c-1.694-0.492-3.753-0.747-6.176-0.765c-2.66,0.018-5.138,0.455-7.416,1.312
	c-2.277,0.875-4.264,2.095-5.958,3.681c-1.712,1.567-3.024,3.425-3.99,5.575c-0.948,2.131-1.421,4.482-1.439,7.033v8.089h-7.762
	c-1.202,0.019-2.205,0.292-3.024,0.802c-0.802,0.528-1.421,1.203-1.822,2.022c-0.419,0.838-0.62,1.713-0.62,2.642
	c0,0.93,0.2,1.804,0.62,2.624c0.401,0.838,1.02,1.512,1.822,2.023c0.82,0.528,1.822,0.801,3.024,0.819h7.762v48.646
	c0.018,1.203,0.292,2.205,0.82,3.024c0.51,0.802,1.184,1.422,2.022,1.822c0.82,0.419,1.694,0.619,2.624,0.619s1.804-0.2,2.624-0.619
	c0.838-0.4,1.512-1.021,2.041-1.822c0.51-0.819,0.784-1.821,0.802-3.024V36.621h14.211c1.203-0.018,2.205-0.291,3.024-0.819
	c0.802-0.511,1.421-1.185,1.822-2.023c0.419-0.82,0.619-1.694,0.619-2.624c0-0.929-0.2-1.804-0.619-2.642
	c-0.401-0.82-1.021-1.494-1.822-2.022c-0.82-0.51-1.822-0.783-3.024-0.802h-14.211V17.6c0-1.148,0.273-2.223,0.856-3.243
	c0.565-1.002,1.421-1.822,2.587-2.459c1.166-0.62,2.642-0.948,4.427-0.966c1.057,0.018,2.041,0.164,2.97,0.474
	s1.712,0.656,2.387,1.057c0.602,0.364,1.166,0.638,1.712,0.784c0.547,0.127,1.075,0.2,1.567,0.2c0.911-0.018,1.712-0.255,2.405-0.71
	s1.221-1.057,1.604-1.84C151.05,10.13,151.25,9.255,151.25,8.308z"/>
<path fill="#5B5B5B" d="M283.801,34.544c0-0.656-0.146-1.312-0.419-1.95c-0.273-0.656-0.674-1.275-1.221-1.876
	c-1.258-1.275-2.752-2.369-4.482-3.261c-1.713-0.893-3.498-1.567-5.356-2.041c-1.877-0.474-3.662-0.71-5.356-0.71
	c-3.571,0.019-6.705,0.692-9.365,1.986c-2.679,1.312-4.901,3.08-6.668,5.338c-1.768,2.259-3.079,4.847-3.973,7.744
	c-0.874,2.897-1.312,5.958-1.312,9.164v36.349c0.019,1.185,0.292,2.205,0.82,3.006c0.51,0.802,1.184,1.422,2.022,1.822
	c0.819,0.419,1.694,0.619,2.623,0.619c0.93,0,1.804-0.2,2.624-0.619c0.838-0.4,1.512-1.021,2.04-1.822
	c0.511-0.801,0.784-1.821,0.802-3.006V48.938c0.019-3.042,0.456-5.557,1.312-7.524c0.856-1.949,2.059-3.407,3.606-4.373
	c1.55-0.948,3.371-1.403,5.467-1.403c1.275,0,2.532,0.219,3.753,0.638c1.239,0.419,2.351,1.057,3.353,1.876l0.219,0.219
	c0.602,0.583,1.257,1.038,1.932,1.312c0.674,0.292,1.348,0.419,2.004,0.419c0.966,0,1.858-0.273,2.715-0.784
	c0.838-0.51,1.512-1.185,2.04-2.022S283.782,35.546,283.801,34.544z"/>
<path fill="#5B5B5B" d="M362.848,85.286V46.004c-0.018-2.97-0.583-5.739-1.676-8.308s-2.605-4.828-4.555-6.76
	c-1.949-1.949-4.209-3.461-6.778-4.555c-2.568-1.093-5.338-1.658-8.308-1.676c-3.188,0.019-6.122,0.656-8.818,1.913
	s-5.047,2.988-7.033,5.193c-1.985-2.205-4.317-3.936-7.015-5.193c-2.696-1.257-5.647-1.895-8.836-1.913
	c-2.97,0.019-5.739,0.583-8.309,1.676c-2.568,1.093-4.828,2.605-6.777,4.555c-1.95,1.932-3.462,4.191-4.555,6.76
	c-1.094,2.569-1.658,5.338-1.677,8.308v39.282c0.019,1.185,0.292,2.205,0.82,3.006c0.51,0.802,1.184,1.422,2.022,1.822
	c0.819,0.419,1.694,0.619,2.623,0.619c0.93,0,1.804-0.2,2.624-0.619c0.838-0.4,1.512-1.021,2.04-1.822
	c0.511-0.801,0.784-1.821,0.802-3.006V46.004c0.019-1.913,0.492-3.662,1.422-5.211c0.929-1.566,2.186-2.806,3.753-3.735
	c1.549-0.929,3.298-1.403,5.211-1.421c1.913,0.019,3.662,0.492,5.229,1.421c1.549,0.929,2.806,2.168,3.735,3.735
	c0.929,1.549,1.402,3.298,1.421,5.211v39.282c0.019,1.257,0.292,2.314,0.82,3.152c0.51,0.855,1.184,1.476,2.022,1.895
	c0.819,0.419,1.694,0.619,2.623,0.619c0.93,0,1.804-0.2,2.624-0.619c0.838-0.419,1.512-1.039,2.041-1.895
	c0.51-0.838,0.783-1.896,0.801-3.152V46.004c0.019-1.913,0.492-3.662,1.422-5.211c0.947-1.566,2.186-2.806,3.753-3.735
	c1.549-0.929,3.298-1.403,5.211-1.421c1.913,0.019,3.662,0.492,5.229,1.421c1.549,0.929,2.807,2.168,3.735,3.735
	c0.93,1.549,1.403,3.298,1.421,5.211v39.282c0.019,1.185,0.292,2.205,0.82,3.006c0.51,0.802,1.184,1.422,2.022,1.822
	c0.82,0.419,1.694,0.619,2.623,0.619c0.93,0,1.804-0.2,2.643-0.619c0.819-0.4,1.493-1.021,2.022-1.822
	C362.557,87.491,362.83,86.471,362.848,85.286z"/>
<path fill="#87CF03" d="M170.589,20.588c0.171-0.118,0.343-0.236,0.515-0.346l0.097,0.137c-0.173,0.113-0.34,0.229-0.511,0.346
	c-6.815,4.692-11.917,10.737-15.064,17.243c-1.886,3.902-3.075,7.975-3.512,12.021c-0.793,7.325,0.884,14.574,5.322,20.615
	c1.448,1.972,3.118,3.711,4.964,5.225c6.633,5.426,15.576,7.896,24.911,7.256c6.346-0.433,12.871-2.308,18.976-5.659
	c1.432-0.737,2.845-1.58,4.21-2.52c1.368-0.942,2.646-1.952,3.841-3.022c10.073-9.036,13.675-22.164,8.996-32.494
	c2.606,5.134,3.523,10.878,2.901,16.671c-0.909,8.405-5.059,16.91-12.005,23.809c-1.969,1.961-4.163,3.79-6.577,5.452
	c-7.471,5.144-15.851,7.871-23.899,8.278c-0.008,0-0.009-0.002-0.012,0c-0.001-0.002-0.006,0.001-0.009-0.003
	c-0.355,0.02-0.723,0.034-1.078,0.041c-4.489,0.113-8.856-0.503-12.886-1.831c-0.528-0.173-1.053-0.355-1.566-0.555
	c-2.064-0.793-4.033-1.781-5.862-2.961c-0.668-0.434-1.325-0.89-1.957-1.372c-0.067-0.049-0.13-0.098-0.191-0.152
	c-0.207-0.159-0.411-0.318-0.61-0.481c-0.055-0.047-0.109-0.091-0.164-0.137c-0.338-0.281-0.669-0.567-0.995-0.864
	c-0.044-0.037-0.083-0.075-0.121-0.114c-0.712-0.657-1.393-1.354-2.04-2.078c-0.018-0.019-0.038-0.037-0.051-0.056
	c-0.548-0.629-1.079-1.283-1.578-1.963l-0.311-0.423l-0.141,0.095C141.259,62.594,148.532,35.773,170.589,20.588z"/>
<path fill="#FAE005" d="M171.2,20.379l-0.097-0.137c21.984-14.807,50.215-12.548,63.574,5.089l-0.022,0.016
	c-2.123-2.779-4.695-5.09-7.59-6.922c-0.291-0.184-0.581-0.363-0.875-0.537c0,0-0.002,0.002-0.004,0
	c-0.294-0.174-0.593-0.341-0.891-0.506c0,0-0.005,0.003-0.007,0c-0.604-0.332-1.216-0.641-1.842-0.928c0,0-0.005,0.003-0.008,0
	c-2.034-0.946-4.188-1.686-6.427-2.222c-0.694-0.163-1.387-0.309-2.091-0.435c-0.704-0.129-1.417-0.232-2.132-0.319
	c-0.36-0.042-0.722-0.083-1.081-0.114c-2.166-0.206-4.383-0.228-6.624-0.073c-7.813,0.531-15.901,3.247-23.14,8.23
	c-2.412,1.66-4.609,3.49-6.582,5.45c-7.007,6.963-11.172,15.563-12.026,24.047c-0.482,4.864,0.117,9.689,1.891,14.148
	c0.72,2.244,1.797,4.392,3.252,6.372s3.195,3.666,5.149,5.062c8.625,6.171,21.439,6.604,32.656,0.826
	c-6.104,3.352-12.63,5.227-18.976,5.659c-9.335,0.641-18.278-1.83-24.911-7.256c-1.846-1.514-3.516-3.253-4.964-5.225
	c-4.438-6.041-6.116-13.29-5.322-20.615c0.437-4.046,1.626-8.118,3.512-12.021c3.152-6.509,8.253-12.548,15.067-17.239l0.484-0.333
	L171.2,20.379z"/>
<path fill="#26ACF5" d="M187.015,27.793c5.246-2.32,10.705-3.596,16.019-3.865c9.061-0.459,17.697,2.024,24.147,7.302
	c1.85,1.514,3.515,3.254,4.964,5.227c4.389,5.974,6.072,13.131,5.349,20.371c-1.072,10.706-7.414,21.594-18.091,29.144
	c-0.167,0.121-0.342,0.241-0.513,0.358c-0.172,0.118-0.347,0.239-0.52,0.353l-0.605,0.398c-22.067,14.47-50.163,11.941-63.278-5.91
	c-0.105-0.143-0.209-0.285-0.304-0.427l0.141-0.095c0.103,0.145,0.204,0.281,0.307,0.422c0.501,0.682,1.028,1.334,1.582,1.964
	c0.014,0.019,0.033,0.037,0.051,0.056c0.642,0.728,1.325,1.423,2.04,2.078c0.038,0.039,0.077,0.077,0.121,0.114
	c0.326,0.297,0.655,0.584,0.995,0.864c0.054,0.046,0.108,0.09,0.164,0.137c0.199,0.163,0.403,0.322,0.61,0.481
	c0.061,0.055,0.124,0.104,0.191,0.152c0.632,0.482,1.284,0.941,1.957,1.372c1.829,1.18,3.798,2.168,5.862,2.961
	c0.514,0.199,1.038,0.382,1.566,0.555c4.029,1.328,8.397,1.944,12.886,1.831c0.362-0.007,0.726-0.021,1.087-0.038
	c0.001,0.002,0.004,0,0.012,0c8.049-0.407,16.429-3.135,23.899-8.278c2.414-1.662,4.608-3.491,6.577-5.452
	c6.946-6.898,11.096-15.403,12.005-23.809c0.622-5.793-0.295-11.537-2.901-16.671c-0.631-1.392-1.396-2.736-2.332-4.009
	c-0.936-1.272-1.998-2.417-3.149-3.451C210.189,25.057,198.157,23.534,187.015,27.793z"/>
</svg>
