<?xml version="1.0" encoding="utf-8"?>
<!-- Generator: Adobe Illustrator 16.0.0, SVG Export Plug-In . SVG Version: 6.00 Build 0)  -->
<!DOCTYPE svg PUBLIC "-//W3C//DTD SVG 1.1//EN" "http://www.w3.org/Graphics/SVG/1.1/DTD/svg11.dtd">
<svg version="1.1" id="Layer_1" xmlns="http://www.w3.org/2000/svg" xmlns:xlink="http://www.w3.org/1999/xlink" x="0px" y="0px"
	 width="285.5498047px" height="97.5458984px" viewBox="0 0 285.5498047 97.5458984"
	 style="enable-background:new 0 0 285.5498047 97.5458984;" xml:space="preserve">
<style type="text/css">
<![CDATA[
	.st0{fill:#464340;}
	.st1{clip-path:url(#SVGID_50_);fill:#F2B15C;}
	.st2{clip-path:url(#SVGID_72_);fill:#F2AEAC;}
	.st3{clip-path:url(#SVGID_62_);fill:#8F4449;}
	.st4{clip-path:url(#SVGID_46_);fill:#407859;}
	.st5{clip-path:url(#SVGID_12_);fill:#E3555E;}
	.st6{clip-path:url(#SVGID_60_);fill:#64A8B6;}
	.st7{clip-path:url(#SVGID_56_);fill:#E3555E;}
	.st8{clip-path:url(#SVGID_52_);fill:#5C7487;}
	.st9{fill:#1D1E1C;}
	.st10{clip-path:url(#SVGID_24_);fill:#E3555E;}
	.st11{clip-path:url(#SVGID_42_);fill:#F2B15C;}
	.st12{clip-path:url(#SVGID_66_);fill:#EFE88D;}
	.st13{clip-path:url(#SVGID_40_);fill:#64A8B6;}
	.st14{clip-path:url(#SVGID_16_);fill:#407859;}
	.st15{clip-path:url(#SVGID_44_);fill:#8F4449;}
	.st16{clip-path:url(#SVGID_30_);fill:#64A8B6;}
	.st17{clip-path:url(#SVGID_22_);fill:#F2AEAC;}
	.st18{clip-path:url(#SVGID_34_);fill:#8F4449;}
	.st19{clip-path:url(#SVGID_20_);fill:#64A8B6;}
	.st20{clip-path:url(#SVGID_14_);fill:#EFE88D;}
	.st21{clip-path:url(#SVGID_36_);fill:#EFE88D;}
	.st22{clip-path:url(#SVGID_68_);fill:#8F4449;}
	.st23{clip-path:url(#SVGID_54_);fill:#64A8B6;}
	.st24{clip-path:url(#SVGID_6_);fill:#E3555E;}
	.st25{clip-path:url(#SVGID_58_);fill:#5C7487;}
	.st26{clip-path:url(#SVGID_4_);fill:#8F4449;}
	.st27{clip-path:url(#SVGID_26_);fill:#F2AEAC;}
	.st28{clip-path:url(#SVGID_2_);fill:#64A8B6;}
	.st29{clip-path:url(#SVGID_38_);fill:#F2B15C;}
	.st30{fill-rule:evenodd;clip-rule:evenodd;fill:#FFFFFF;}
	.st31{clip-path:url(#SVGID_28_);fill:#F2B15C;}
	.st32{clip-path:url(#SVGID_70_);fill:#8F4449;}
	.st33{clip-path:url(#SVGID_8_);fill:#EFE88D;}
	.st34{clip-path:url(#SVGID_10_);fill:#407859;}
	.st35{clip-path:url(#SVGID_48_);fill:#64A8B6;}
	.st36{clip-path:url(#SVGID_32_);fill:#464340;}
	.st37{clip-path:url(#SVGID_18_);fill:#5C7487;}
	.st38{clip-path:url(#SVGID_64_);fill:#E3555E;}
	.st39{fill:#407859;}
]]>
</style>
<g>
	<path class="st9" d="M205.6772461,9.3168945c-1.5019531,0.0097656-2.8046875,0.2148438-3.8886719,0.6054688
		c-1.0996094,0.3945312-2.0136719,0.9316406-2.7460938,1.609375c-0.7480469,0.6801758-1.3417969,1.453125-1.7929688,2.3203125
		c-0.4589844,0.8652344-0.7988281,1.777832-1.03125,2.734375c-0.2324219,0.9453125-0.3925781,1.8964844-0.4765625,2.8339844
		c-0.0761719,0.9375-0.125,1.8222656-0.1132812,2.6484375c-0.0117188,0.8242188,0.0371094,1.7050781,0.1132812,2.6430664
		c0.0839844,0.940918,0.2441406,1.8881836,0.4765625,2.8374023c0.2324219,0.9570312,0.5722656,1.8613281,1.03125,2.7324219
		c0.4511719,0.8657227,1.0449219,1.6425781,1.7929688,2.3222656c0.7324219,0.6777344,1.6464844,1.2109375,2.7460938,1.6098633
		c1.0839844,0.3862305,2.3867188,0.5952148,3.8886719,0.6030273c1.5039062-0.0078125,2.8085938-0.2167969,3.8984375-0.6030273
		c1.0898438-0.3989258,2.0058594-0.9321289,2.7402344-1.6098633c0.7441406-0.6796875,1.3398438-1.456543,1.7890625-2.3222656
		c0.4589844-0.8710938,0.8046875-1.7753906,1.0371094-2.7324219c0.2363281-0.9492188,0.3925781-1.8964844,0.4765625-2.8374023
		c0.0839844-0.9379883,0.1171875-1.8188477,0.1132812-2.6430664c0.0039062-0.8261719-0.0292969-1.7109375-0.1132812-2.6484375
		s-0.2402344-1.8886719-0.4765625-2.8339844c-0.2324219-0.956543-0.578125-1.8691406-1.0371094-2.734375
		c-0.4492188-0.8671875-1.0449219-1.6401367-1.7890625-2.3203125c-0.734375-0.6777344-1.6503906-1.2148438-2.7402344-1.609375
		C208.4858398,9.5317383,207.1811523,9.3266602,205.6772461,9.3168945 M205.6772461,11.2783203
		c1.640625,0.0092773,2.96875,0.3120117,3.9804688,0.8979492c1.0136719,0.5717773,1.7792969,1.375,2.3046875,2.3808594
		c0.5214844,1.015625,0.8710938,2.1582031,1.0625,3.4453125c0.1816406,1.2871094,0.2734375,2.6450195,0.2480469,4.0664062
		c0.0253906,1.4238281-0.0664062,2.7797852-0.2480469,4.0610352c-0.1914062,1.2924805-0.5410156,2.4350586-1.0625,3.4511719
		c-0.5253906,1.003418-1.2910156,1.7939453-2.3046875,2.3862305c-1.0117188,0.5761719-2.3398438,0.8813477-3.9804688,0.8886719
		c-1.6464844-0.0073242-2.9648438-0.3125-3.9804688-0.8886719c-1.015625-0.5922852-1.7792969-1.3828125-2.3046875-2.3862305
		c-0.5253906-1.0161133-0.8769531-2.1586914-1.0585938-3.4511719c-0.1835938-1.28125-0.2734375-2.637207-0.2519531-4.0610352
		c-0.0214844-1.4213867,0.0683594-2.7792969,0.2519531-4.0664062c0.1816406-1.2871094,0.5332031-2.4296875,1.0585938-3.4453125
		c0.5253906-1.0058594,1.2890625-1.809082,2.3046875-2.3808594
		C202.7124023,11.590332,204.0307617,11.2875977,205.6772461,11.2783203z M173.4624023,34.3266602V21.0864258
		c-0.0078125-1.2441406,0.1132812-2.4433594,0.3652344-3.6049805c0.2363281-1.1586914,0.65625-2.2055664,1.2265625-3.1347656
		c0.5722656-0.9335938,1.3574219-1.6782227,2.34375-2.2236328c0.9746094-0.5463867,2.2011719-0.8354492,3.6660156-0.8447266
		c1.640625,0.0092773,2.9667969,0.3120117,3.9726562,0.8979492c1.015625,0.5717773,1.7851562,1.375,2.3105469,2.3808594
		c0.5214844,1.0078125,0.8710938,2.1582031,1.0644531,3.4453125c0.1757812,1.2871094,0.2636719,2.6450195,0.2480469,4.0664062
		v12.2578125h1.9609375c0-0.0078125,0.0195312-0.2265625,0.0390625-0.6523438
		c0.0234375-0.4262695,0.0527344-0.9980469,0.0917969-1.7070312c0.0371094-0.7148438,0.0761719-1.515625,0.1210938-2.3862305
		c0.0371094-0.8847656,0.0761719-1.7832031,0.1152344-2.6958008c0.0371094-0.9233398,0.0664062-1.8007812,0.0898438-2.637207
		c0.0234375-0.8320312,0.0390625-1.5600586,0.0390625-2.1791992c0.0078125-0.8261719-0.0390625-1.7109375-0.1113281-2.6484375
		c-0.0839844-0.9375-0.2363281-1.8886719-0.4765625-2.8339844c-0.2441406-0.956543-0.5742188-1.8691406-1.0429688-2.734375
		c-0.4433594-0.8671875-1.0449219-1.6401367-1.7851562-2.3203125c-0.7382812-0.6777344-1.65625-1.2148438-2.734375-1.609375
		c-1.1015625-0.390625-2.3964844-0.5957031-3.9023438-0.6054688c-1.3808594,0.0097656-2.5429688,0.2148438-3.5019531,0.5981445
		c-0.9453125,0.3901367-1.7460938,0.9169922-2.4003906,1.5849609c-0.65625,0.6606445-1.2207031,1.4047852-1.6992188,2.2348633
		c-0.1308594-0.9785156-0.2519531-1.753418-0.3652344-2.3300781c-0.109375-0.5727539-0.1933594-0.9824219-0.265625-1.2387695
		c-0.0703125-0.2436523-0.1054688-0.3681641-0.1054688-0.3569336h-1.5703125c0-0.0112305-0.0136719,0.1933594-0.046875,0.621582
		c-0.0058594,0.4291992-0.0371094,1.1459961-0.0585938,2.1577148c-0.0253906,1.0039062-0.0390625,2.3632812-0.0390625,4.0859375
		c0,1.3144531,0.0136719,2.6660156,0.0390625,4.0273438c0.015625,1.3774414,0.0527344,2.7207031,0.0917969,4.0390625
		c0.0292969,1.3144531,0.0761719,2.5449219,0.1132812,3.703125c0.0371094,1.1503906,0.0761719,2.1621094,0.1230469,3.0449219
		c0.0292969,0.8808594,0.0664062,1.574707,0.0898438,2.074707c0.0195312,0.5,0.03125,0.7553711,0.03125,0.7631836H173.4624023z
		 M162.9174805,32.855957h-6.6191406c-1.5175781-0.0073242-2.7519531-0.1577148-3.6992188-0.4492188
		c-0.9453125-0.296875-1.6621094-0.6948242-2.1503906-1.1835938c-0.4960938-0.5-0.8320312-1.0488281-1.0175781-1.6523438
		c-0.1679688-0.6137695-0.2519531-1.2324219-0.2382812-1.8652344c-0.0136719-0.6152344,0.0703125-1.2304688,0.2382812-1.8359375
		c0.1855469-0.6069336,0.5214844-1.1625977,1.0175781-1.6660156c0.4882812-0.4916992,1.2050781-0.8886719,2.1503906-1.1875
		c0.9472656-0.2929688,2.1816406-0.4511719,3.6992188-0.4589844h6.6191406V32.855957z M148.6967773,10.3032227v1.7128906
		c0.0136719-0.0097656,0.2011719-0.0410156,0.609375-0.1113281c0.3867188-0.0756836,0.9375-0.159668,1.6308594-0.2539062
		c0.6933594-0.1015625,1.5078125-0.1855469,2.4160156-0.2578125c0.9140625-0.0722656,1.9003906-0.1147461,2.9453125-0.1147461
		c1.28125,0,2.359375,0.1870117,3.203125,0.5639648c0.8652344,0.3808594,1.5410156,0.9711914,2.0371094,1.765625
		c0.5058594,0.7949219,0.8535156,1.8071289,1.0703125,3.046875c0.2128906,1.2426758,0.3164062,2.7148438,0.3085938,4.4316406
		c-0.0117188,0-0.2285156-0.0229492-0.6523438-0.0737305s-0.9707031-0.105957-1.6425781-0.1704102
		c-0.671875-0.0639648-1.3867188-0.125-2.1484375-0.1738281c-0.7597656-0.046875-1.4902344-0.0717773-2.1757812-0.0717773
		c-1.7089844,0.0112305-3.1328125,0.1816406-4.2949219,0.5175781c-1.1425781,0.3295898-2.0742188,0.7749023-2.7734375,1.3217773
		c-0.7011719,0.5454102-1.234375,1.1367188-1.6054688,1.7675781c-0.3574219,0.6450195-0.59375,1.2617188-0.7148438,1.8730469
		c-0.1210938,0.6152344-0.1757812,1.1547852-0.1757812,1.6289062c0,0.4355469,0.0546875,0.9511719,0.1757812,1.5527344
		c0.1210938,0.59375,0.3574219,1.2148438,0.7148438,1.8647461c0.3710938,0.637207,0.9042969,1.2426758,1.6054688,1.7973633
		c0.6992188,0.5566406,1.6308594,1.015625,2.7734375,1.3598633c1.1621094,0.3530273,2.5859375,0.5288086,4.2949219,0.5366211
		c1.8476562-0.0078125,3.4179688-0.0522461,4.6914062-0.1328125c1.2753906-0.0717773,2.2441406-0.1523438,2.890625-0.2270508
		c0.6640625-0.0795898,1-0.1225586,1-0.1303711s0.0136719-0.2695312,0.0507812-0.7714844
		c0.0332031-0.5058594,0.0703125-1.1855469,0.1230469-2.0292969c0.0449219-0.862793,0.0917969-1.8139648,0.1464844-2.8803711
		c0.0449219-1.0634766,0.0917969-2.1547852,0.1210938-3.2915039c0.03125-1.1269531,0.046875-2.222168,0.046875-3.2851562
		c0.0078125-1.2871094-0.03125-2.5429688-0.1230469-3.777832c-0.0996094-1.237793-0.296875-2.3842773-0.609375-3.4682617
		c-0.3222656-1.074707-0.8007812-2.0292969-1.4570312-2.8588867c-0.6582031-0.8149414-1.5429688-1.4614258-2.6621094-1.9321289
		c-1.1132812-0.4702148-2.515625-0.7050781-4.21875-0.7148438c-1.0449219,0.0097656-2.03125,0.0581055-2.9453125,0.15625
		c-0.9082031,0.0996094-1.7226562,0.2089844-2.4160156,0.3359375c-0.6933594,0.1347656-1.2441406,0.2319336-1.6308594,0.3364258
		C148.8979492,10.2387695,148.7104492,10.2958984,148.6967773,10.3032227z M282.1245117,49.4594727
		c0.0078125,0.4995117,0.1679688,0.9077148,0.4921875,1.2260742c0.3164062,0.3183594,0.7285156,0.4824219,1.21875,0.4902344
		c0.5039062-0.0078125,0.9160156-0.171875,1.2363281-0.4902344c0.3105469-0.3183594,0.4785156-0.7265625,0.4785156-1.2260742
		c0-0.5-0.1679688-0.90625-0.4785156-1.2265625c-0.3203125-0.3178711-0.7324219-0.4824219-1.2363281-0.4902344
		c-0.4902344,0.0078125-0.9023438,0.1723633-1.21875,0.4902344
		C282.2924805,48.5532227,282.1323242,48.9594727,282.1245117,49.4594727z M284.8178711,80.1035156V55.59375h-2.3027344
		c0-0.0126953-0.0117188,0.1933594-0.0390625,0.6181641c-0.015625,0.4335938-0.0371094,1.1455078-0.0703125,2.1572266
		c-0.0214844,1-0.0332031,2.3603516-0.0332031,4.0820312c0,1.3144531,0.0117188,2.6660156,0.0332031,4.0332031
		c0.0253906,1.3710938,0.0546875,2.7226562,0.0976562,4.0351562c0.0292969,1.3144531,0.0703125,2.5507812,0.1132812,3.7011719
		c0.0351562,1.1591797,0.0839844,2.1660156,0.1191406,3.0507812c0.0332031,0.8828125,0.0683594,1.5683594,0.0898438,2.078125
		c0.0195312,0.4921875,0.0351562,0.7490234,0.0351562,0.7539062H284.8178711z M274.2788086,78.6328125h-6.6210938
		c-1.5195312-0.0029297-2.7539062-0.1503906-3.6933594-0.4453125c-0.9453125-0.2919922-1.6699219-0.6992188-2.15625-1.1904297
		c-0.4960938-0.4931641-0.8398438-1.0400391-1.015625-1.6474609c-0.1679688-0.6132812-0.2519531-1.2304688-0.2441406-1.8632812
		c-0.0078125-0.6210938,0.0761719-1.2324219,0.2441406-1.8388672c0.1757812-0.6015625,0.5195312-1.1572266,1.015625-1.6572266
		c0.4863281-0.4980469,1.2109375-0.8916016,2.15625-1.1943359c0.9394531-0.2978516,2.1738281-0.4492188,3.6933594-0.4541016
		h6.6210938V78.6328125z M260.0600586,56.0810547v1.7148438c0.0097656-0.0068359,0.2070312-0.0400391,0.6054688-0.1142578
		c0.3945312-0.0761719,0.9335938-0.1513672,1.6289062-0.2529297c0.6953125-0.0966797,1.5019531-0.1806641,2.4277344-0.25
		c0.90625-0.0771484,1.890625-0.1152344,2.9355469-0.1152344c1.2832031,0,2.3554688,0.1845703,3.203125,0.5615234
		c0.8613281,0.3876953,1.5390625,0.9716797,2.0390625,1.765625c0.5019531,0.7929688,0.8535156,1.8085938,1.0703125,3.046875
		c0.2089844,1.2412109,0.3164062,2.7148438,0.3085938,4.4316406c0,0-0.2324219-0.0273438-0.6582031-0.0712891
		c-0.4277344-0.0556641-0.96875-0.1103516-1.6386719-0.1728516c-0.6699219-0.0683594-1.3886719-0.1269531-2.1503906-0.1738281
		c-0.765625-0.0507812-1.4882812-0.0742188-2.1738281-0.0742188c-1.7089844,0.0078125-3.1347656,0.1796875-4.2851562,0.515625
		c-1.1601562,0.3320312-2.0839844,0.7753906-2.7851562,1.3212891c-0.7050781,0.5517578-1.2304688,1.1396484-1.5957031,1.7763672
		c-0.3632812,0.6347656-0.6035156,1.2617188-0.7207031,1.8720703c-0.1269531,0.6083984-0.1855469,1.1523438-0.1679688,1.6240234
		c-0.0175781,0.4355469,0.0410156,0.9511719,0.1679688,1.5488281c0.1171875,0.5996094,0.3574219,1.2246094,0.7207031,1.8671875
		c0.3652344,0.6435547,0.890625,1.2402344,1.5957031,1.796875c0.7011719,0.5566406,1.625,1.015625,2.7851562,1.3574219
		c1.1503906,0.3564453,2.5761719,0.5332031,4.2851562,0.5400391c1.8496094-0.0068359,3.4179688-0.0478516,4.6933594-0.1318359
		c1.2695312-0.0722656,2.2421875-0.1513672,2.8945312-0.2265625c0.6582031-0.0839844,0.9941406-0.1230469,0.9941406-0.1347656
		c0-0.0048828,0.0136719-0.265625,0.0429688-0.7617188c0.0390625-0.5078125,0.0761719-1.1875,0.1308594-2.0371094
		c0.0449219-0.8583984,0.0996094-1.8125,0.1425781-2.8759766c0.0488281-1.0644531,0.0976562-2.1611328,0.125-3.2988281
		c0.0292969-1.1259766,0.0429688-2.2216797,0.0429688-3.28125c0.0078125-1.2841797-0.0292969-2.5458984-0.1191406-3.7783203
		c-0.0917969-1.2304688-0.296875-2.3867188-0.6113281-3.4628906c-0.3203125-1.0791016-0.8007812-2.0351562-1.4550781-2.859375
		c-0.6601562-0.8173828-1.5429688-1.4677734-2.6640625-1.9345703c-1.1132812-0.4667969-2.515625-0.7060547-4.2167969-0.7138672
		c-1.0449219,0.0078125-2.0292969,0.0566406-2.9355469,0.1582031c-0.9257812,0.09375-1.7324219,0.2011719-2.4277344,0.3359375
		c-0.6953125,0.1269531-1.234375,0.2353516-1.6289062,0.328125
		C260.2670898,56.0175781,260.0698242,56.0722656,260.0600586,56.0810547z M250.9370117,49.4594727
		c0.0097656,0.4995117,0.1757812,0.9077148,0.4882812,1.2260742c0.3222656,0.3183594,0.7265625,0.4824219,1.2285156,0.4902344
		c0.4960938-0.0078125,0.9082031-0.171875,1.2226562-0.4902344c0.3242188-0.3183594,0.484375-0.7265625,0.4921875-1.2260742
		c-0.0078125-0.5-0.1679688-0.90625-0.4921875-1.2265625c-0.3144531-0.3178711-0.7265625-0.4824219-1.2226562-0.4902344
		c-0.5019531,0.0078125-0.90625,0.1723633-1.2285156,0.4902344
		C251.112793,48.5532227,250.9467773,48.9594727,250.9370117,49.4594727z M253.6381836,80.1035156V55.59375h-2.3027344
		c0-0.0126953-0.0234375,0.1933594-0.046875,0.6181641c-0.015625,0.4335938-0.0371094,1.1455078-0.0664062,2.1572266
		c-0.0234375,1-0.0371094,2.3603516-0.0371094,4.0820312c0,1.3144531,0.0136719,2.6660156,0.0371094,4.0332031
		c0.0214844,1.3710938,0.0507812,2.7226562,0.0898438,4.0351562c0.0371094,1.3144531,0.078125,2.5507812,0.1132812,3.7011719
		c0.0410156,1.1591797,0.0839844,2.1660156,0.125,3.0507812c0.0371094,0.8828125,0.0664062,1.5683594,0.0898438,2.078125
		c0.015625,0.4921875,0.03125,0.7490234,0.03125,0.7539062H253.6381836z M238.2397461,52.6474609
		c0.6933594-0.5,1.3632812-1.0302734,2.0332031-1.5996094c0.6660156-0.5732422,1.2851562-1.1503906,1.8632812-1.7011719
		c0.5800781-0.5664062,1.0976562-1.074707,1.5410156-1.5375977c0.4414062-0.4570312,0.7832031-0.8359375,1.0429688-1.109375
		c0.2539062-0.2773438,0.3730469-0.4179688,0.3847656-0.4277344l-1.2304688-1.2241211
		c0,0.0073242-0.1367188,0.1503906-0.3964844,0.4233398c-0.265625,0.2695312-0.640625,0.6347656-1.1269531,1.1035156
		c-0.5039062,0.4746094-1.0917969,0.9980469-1.7851562,1.578125s-1.4707031,1.1791992-2.3261719,1.7963867
		c-0.8632812-0.6171875-1.6328125-1.2163086-2.3339844-1.7963867c-0.6933594-0.5800781-1.2832031-1.1035156-1.7714844-1.578125
		c-0.4941406-0.46875-0.8691406-0.8339844-1.1347656-1.1035156c-0.2597656-0.2729492-0.3984375-0.4160156-0.3984375-0.4233398
		l-1.2265625,1.2241211c0.0078125,0.0097656,0.1289062,0.1503906,0.3828125,0.4277344
		c0.25,0.2734375,0.5996094,0.6523438,1.0449219,1.109375c0.4414062,0.4628906,0.9589844,0.9711914,1.5410156,1.5375977
		c0.5761719,0.5507812,1.1972656,1.1279297,1.859375,1.7011719
		C236.8745117,51.6171875,237.5444336,52.1474609,238.2397461,52.6474609z M231.7651367,78.6328125
		c0.0078125-0.0029297,0.1503906-0.2177734,0.4335938-0.6425781c0.2753906-0.4179688,0.6621094-0.9707031,1.1367188-1.6767578
		c0.4707031-0.7041016,1.015625-1.4794922,1.6054688-2.3369141c0.5996094-0.859375,1.2050781-1.7294922,1.8417969-2.6210938
		c0.6308594-0.8964844,1.2480469-1.7304688,1.8457031-2.5263672c0.7460938-0.9912109,1.515625-2.03125,2.3183594-3.1376953
		c0.7949219-1.1035156,1.5859375-2.2324219,2.3789062-3.3925781c0.7929688-1.1513672,1.5546875-2.2949219,2.2734375-3.4335938
		c0.7246094-1.1337891,1.3710938-2.2333984,1.9511719-3.2714844c0,0-0.1816406-0.0214844-0.5390625-0.0546875
		c-0.3515625-0.0332031-0.8398438-0.0742188-1.4648438-0.1230469c-0.6171875-0.0449219-1.3300781-0.0957031-2.1210938-0.1445312
		c-0.8007812-0.0507812-1.640625-0.0898438-2.5234375-0.1230469s-1.7714844-0.0488281-2.6621094-0.0488281
		c-1.1132812,0-2.1660156,0.0234375-3.1679688,0.0742188c-1,0.046875-1.8828125,0.1064453-2.6523438,0.1728516
		c-0.7773438,0.0615234-1.3886719,0.1181641-1.8300781,0.1679688c-0.4492188,0.0380859-0.6777344,0.0791016-0.6777344,0.0791016
		l-0.0078125,1.7089844c0,0,0.2363281-0.0136719,0.6777344-0.0371094c0.4492188-0.0253906,1.0605469-0.0507812,1.8378906-0.0839844
		c0.7695312-0.0292969,1.6523438-0.0566406,2.6523438-0.0800781c1.0019531-0.0253906,2.0546875-0.0380859,3.1679688-0.0380859
		h5.9765625c-0.0078125,0.0087891-0.140625,0.2177734-0.4335938,0.6416016
		c-0.2734375,0.4179688-0.6542969,0.9707031-1.1367188,1.6796875c-0.4707031,0.7011719-1.0058594,1.4794922-1.6054688,2.3359375
		c-0.5996094,0.8583984-1.2050781,1.7324219-1.8417969,2.6191406c-0.6289062,0.8945312-1.2480469,1.734375-1.8457031,2.5292969
		c-0.7382812,0.9863281-1.5078125,2.03125-2.3085938,3.1347656c-0.8046875,1.1054688-1.5957031,2.2304688-2.3886719,3.3945312
		c-0.7929688,1.1503906-1.5546875,2.2929688-2.2714844,3.4306641c-0.7207031,1.1396484-1.3710938,2.2324219-1.953125,3.2744141
		c0,0,0.1894531,0.0234375,0.546875,0.0507812c0.3515625,0.0371094,0.8417969,0.0751953,1.4589844,0.1259766
		c0.6269531,0.0488281,1.328125,0.0996094,2.1269531,0.1455078c0.7929688,0.0507812,1.6347656,0.0898438,2.515625,0.1230469
		c0.890625,0.0322266,1.7792969,0.0478516,2.6699219,0.0478516c1.1054688,0,2.1992188-0.0244141,3.2441406-0.0732422
		c1.0429688-0.046875,1.9824219-0.1054688,2.828125-0.1738281c0.8339844-0.0625,1.5-0.1201172,1.9921875-0.1708984
		c0.4960938-0.046875,0.7558594-0.0751953,0.7558594-0.0751953l0.0058594-1.7167969c0,0-0.265625,0.0234375-0.7617188,0.0449219
		c-0.4921875,0.0214844-1.1582031,0.0507812-1.9921875,0.0810547c-0.8457031,0.0332031-1.7851562,0.0576172-2.828125,0.0839844
		c-1.0449219,0.0224609-2.1386719,0.0361328-3.2441406,0.0361328H231.7651367z M222.4975586,55.59375v13.2353516
		c0.0058594,1.2451172-0.1171875,2.4355469-0.359375,3.6025391c-0.2441406,1.1621094-0.65625,2.2050781-1.2265625,3.140625
		c-0.5800781,0.9316406-1.3671875,1.6728516-2.34375,2.2255859c-0.9824219,0.5419922-2.2070312,0.8212891-3.6660156,0.8349609
		c-1.6503906-0.0029297-2.96875-0.3066406-3.9863281-0.8876953c-1.0117188-0.5800781-1.7832031-1.3828125-2.3027344-2.3876953
		c-0.5253906-1.0078125-0.875-2.1582031-1.0664062-3.4472656c-0.1738281-1.2851562-0.265625-2.6367188-0.2519531-4.0615234V55.59375
		h-1.9609375c0,0-0.015625,0.2226562-0.0292969,0.6464844c-0.0234375,0.4277344-0.0625,0.9892578-0.0996094,1.7128906
		c-0.03125,0.7070312-0.0761719,1.5117188-0.1113281,2.3886719c-0.0488281,0.8789062-0.0878906,1.7773438-0.1171875,2.6894531
		c-0.0449219,0.921875-0.078125,1.8007812-0.0917969,2.6386719c-0.0195312,0.828125-0.0390625,1.5546875-0.0390625,2.1787109
		c-0.0078125,0.8251953,0.03125,1.7060547,0.1152344,2.6484375c0.0761719,0.9423828,0.2441406,1.8876953,0.4765625,2.8369141
		c0.2324219,0.953125,0.5742188,1.859375,1.0371094,2.7304688c0.4492188,0.8642578,1.0429688,1.6367188,1.7890625,2.3222656
		c0.7324219,0.6748047,1.6484375,1.2148438,2.7363281,1.6083984c1.09375,0.3896484,2.390625,0.5947266,3.9023438,0.6015625
		c1.3808594-0.0068359,2.5371094-0.2119141,3.4902344-0.5986328c0.953125-0.3857422,1.7597656-0.9238281,2.4042969-1.5830078
		c0.65625-0.6611328,1.21875-1.4072266,1.7011719-2.2333984c0.1269531,0.9726562,0.2519531,1.75,0.3710938,2.3242188
		c0.0996094,0.5800781,0.1914062,0.984375,0.2597656,1.2324219c0.0703125,0.2568359,0.0996094,0.3769531,0.0996094,0.3652344
		h1.5683594c0,0.0117188,0.0175781-0.1972656,0.046875-0.6269531c0.0273438-0.4277344,0.0429688-1.1425781,0.0625-2.1474609
		c0.0214844-1.0068359,0.0371094-2.3623047,0.0371094-4.0869141c0-1.3183594-0.015625-2.6660156-0.0292969-4.0302734
		c-0.0195312-1.3740234-0.0546875-2.7216797-0.0996094-4.0361328c-0.03125-1.3134766-0.0683594-2.5488281-0.1035156-3.703125
		c-0.0488281-1.1523438-0.0878906-2.1748047-0.125-3.0488281c-0.0351562-0.8828125-0.0703125-1.5742188-0.0996094-2.0771484
		c-0.0117188-0.4970703-0.03125-0.7529297-0.03125-0.7529297H222.4975586z M183.6655273,57.5507812
		c0.7539062-0.1269531,1.6777344-0.2480469,2.7734375-0.3359375c1.09375-0.0976562,2.3671875-0.1513672,3.8378906-0.1513672
		c1.6464844,0.0087891,2.96875,0.3056641,3.984375,0.8896484c1.0117188,0.5771484,1.78125,1.3779297,2.3105469,2.3886719
		c0.515625,1.0078125,0.8652344,2.15625,1.0488281,3.4472656c0.1875,1.28125,0.2792969,2.6347656,0.2636719,4.0595703
		c0.015625,1.4248047-0.0761719,2.7763672-0.2636719,4.0615234c-0.1835938,1.2890625-0.5332031,2.4394531-1.0488281,3.4472656
		c-0.5292969,1.0048828-1.2988281,1.796875-2.3105469,2.3876953c-1.015625,0.5810547-2.3378906,0.8847656-3.984375,0.8876953
		h-6.6113281V57.5507812z M190.2768555,55.0996094c-1.515625,0.0078125-2.8164062,0.1142578-3.9121094,0.3007812
		c-1.0898438,0.1933594-1.9921875,0.4003906-2.6992188,0.6328125c0-1.2792969,0.0039062-2.53125,0.0214844-3.7548828
		s0.0390625-2.3808594,0.0625-3.4472656c0.0175781-1.0805664,0.046875-2.0258789,0.0683594-2.8515625
		c0.0214844-0.824707,0.046875-1.4667969,0.0625-1.9399414c0.0214844-0.4628906,0.0292969-0.7011719,0.0292969-0.7104492h-2.2089844
		c0,0.0092773-0.0117188,0.3027344-0.0351562,0.8764648c-0.0195312,0.5644531-0.0546875,1.3496094-0.0957031,2.3354492
		c-0.0292969,1-0.0722656,2.1274414-0.1191406,3.4082031c-0.0371094,1.2773438-0.078125,2.6298828-0.1132812,4.0654297
		c-0.0371094,1.4228516-0.0761719,2.8583984-0.0976562,4.296875c-0.015625,1.4482422-0.0273438,2.8203125-0.0273438,4.1396484
		c0,1.3144531,0.0117188,2.6582031,0.0273438,4.0332031c0.0214844,1.3710938,0.0605469,2.7148438,0.0976562,4.0351562
		c0.0351562,1.3144531,0.0761719,2.5507812,0.1132812,3.7011719c0.046875,1.1591797,0.0898438,2.1660156,0.1191406,3.0507812
		c0.0410156,0.8828125,0.0761719,1.5683594,0.0957031,2.078125c0.0234375,0.4921875,0.0351562,0.7490234,0.0351562,0.7539062
		c0,0,0.2324219,0.0283203,0.6855469,0.0751953c0.4492188,0.0507812,1.0742188,0.1083984,1.8515625,0.1708984
		c0.7929688,0.0683594,1.703125,0.1269531,2.7324219,0.1738281c1.0371094,0.0488281,2.1425781,0.0732422,3.3066406,0.0732422
		c1.5058594-0.0068359,2.8085938-0.2119141,3.9042969-0.6015625c1.0839844-0.3935547,2-0.9335938,2.7382812-1.6083984
		c0.7421875-0.6855469,1.3378906-1.4580078,1.7871094-2.3222656c0.4570312-0.8710938,0.7988281-1.7773438,1.0371094-2.7304688
		c0.2363281-0.9492188,0.3964844-1.8945312,0.4726562-2.8369141c0.0839844-0.9423828,0.1210938-1.8232422,0.1132812-2.6484375
		c0.0078125-0.8291016-0.0292969-1.7138672-0.1132812-2.6503906c-0.0761719-0.9384766-0.2363281-1.8847656-0.4726562-2.8339844
		c-0.2382812-0.9560547-0.5800781-1.8623047-1.0371094-2.7314453c-0.4492188-0.8652344-1.0449219-1.6425781-1.7871094-2.3242188
		c-0.7382812-0.6767578-1.6542969-1.2148438-2.7382812-1.6054688
		C193.0854492,55.3085938,191.7827148,55.1074219,190.2768555,55.0996094z M173.1186523,78.6328125h-6.6191406
		c-1.5214844-0.0029297-2.7558594-0.1503906-3.6933594-0.4453125c-0.9472656-0.2919922-1.6660156-0.6992188-2.1582031-1.1904297
		c-0.4980469-0.4931641-0.8320312-1.0400391-1.0078125-1.6474609c-0.1757812-0.6132812-0.2597656-1.2304688-0.2519531-1.8632812
		c-0.0078125-0.6210938,0.0761719-1.2324219,0.2519531-1.8388672c0.1757812-0.6015625,0.5097656-1.1572266,1.0078125-1.6572266
		c0.4921875-0.4980469,1.2109375-0.8916016,2.1582031-1.1943359c0.9375-0.2978516,2.171875-0.4492188,3.6933594-0.4541016h6.6191406
		V78.6328125z M158.8999023,56.0810547v1.7148438c0.0039062-0.0068359,0.2070312-0.0400391,0.6015625-0.1142578
		c0.3984375-0.0761719,0.9375-0.1513672,1.6386719-0.2529297c0.6875-0.0966797,1.4960938-0.1806641,2.4199219-0.25
		c0.9082031-0.0771484,1.890625-0.1152344,2.9394531-0.1152344c1.2871094,0,2.3535156,0.1845703,3.2011719,0.5615234
		c0.8613281,0.3876953,1.5390625,0.9716797,2.0351562,1.765625c0.5058594,0.7929688,0.8652344,1.8085938,1.0664062,3.046875
		c0.2207031,1.2412109,0.3242188,2.7148438,0.3164062,4.4316406c0,0-0.2324219-0.0273438-0.65625-0.0712891
		c-0.421875-0.0556641-0.9707031-0.1103516-1.640625-0.1728516c-0.671875-0.0683594-1.3886719-0.1269531-2.1503906-0.1738281
		c-0.7578125-0.0507812-1.4863281-0.0742188-2.171875-0.0742188c-1.703125,0.0078125-3.140625,0.1796875-4.2871094,0.515625
		c-1.1503906,0.3320312-2.0761719,0.7753906-2.7792969,1.3212891c-0.7089844,0.5517578-1.234375,1.1396484-1.6074219,1.7763672
		c-0.3574219,0.6347656-0.5976562,1.2617188-0.71875,1.8720703c-0.1230469,0.6083984-0.171875,1.1523438-0.1640625,1.6240234
		c-0.0078125,0.4355469,0.0410156,0.9511719,0.1640625,1.5488281c0.1210938,0.5996094,0.3613281,1.2246094,0.71875,1.8671875
		c0.3730469,0.6435547,0.8984375,1.2402344,1.6074219,1.796875c0.703125,0.5566406,1.6289062,1.015625,2.7792969,1.3574219
		c1.1464844,0.3564453,2.5839844,0.5332031,4.2871094,0.5400391c1.8476562-0.0068359,3.4199219-0.0478516,4.6933594-0.1318359
		c1.2695312-0.0722656,2.2363281-0.1513672,2.8925781-0.2265625c0.6640625-0.0839844,0.9980469-0.1230469,0.9980469-0.1347656
		c0-0.0048828,0.0175781-0.265625,0.046875-0.7617188c0.03125-0.5078125,0.0683594-1.1875,0.1210938-2.0371094
		c0.046875-0.8583984,0.1015625-1.8125,0.1445312-2.8759766c0.0546875-1.0644531,0.0917969-2.1611328,0.125-3.2988281
		c0.0292969-1.1259766,0.0507812-2.2216797,0.0507812-3.28125c0.0078125-1.2841797-0.0292969-2.5458984-0.1210938-3.7783203
		c-0.0976562-1.2304688-0.3066406-2.3867188-0.6171875-3.4628906c-0.3203125-1.0791016-0.8027344-2.0351562-1.4492188-2.859375
		c-0.6660156-0.8173828-1.5488281-1.4677734-2.6699219-1.9345703c-1.1054688-0.4667969-2.5195312-0.7060547-4.2148438-0.7138672
		c-1.0488281,0.0078125-2.03125,0.0566406-2.9394531,0.1582031c-0.9238281,0.09375-1.7324219,0.2011719-2.4199219,0.3359375
		c-0.7011719,0.1269531-1.2402344,0.2353516-1.6386719,0.328125
		C159.1069336,56.0175781,158.9038086,56.0722656,158.8999023,56.0810547z M139.4794922,55.59375
		c0-0.0126953-0.015625,0.1933594-0.0371094,0.6181641c-0.015625,0.4335938-0.0439453,1.1455078-0.0683594,2.1572266
		c-0.0234375,1-0.0361328,2.3603516-0.0361328,4.0820312c0,1.3144531,0.0126953,2.6660156,0.0361328,4.0332031
		c0.015625,1.3710938,0.0527344,2.7226562,0.0898438,4.0351562c0.0341797,1.3144531,0.0761719,2.5507812,0.1181641,3.7011719
		c0.0361328,1.1591797,0.0839844,2.1660156,0.1210938,3.0507812c0.03125,0.8828125,0.0595703,1.5683594,0.0888672,2.078125
		c0.015625,0.4921875,0.0292969,0.7490234,0.0292969,0.7539062h1.9619141v-13.234375
		c-0.0078125-1.2441406,0.1152344-2.4453125,0.3623047-3.6035156c0.2392578-1.1640625,0.6513672-2.2089844,1.234375-3.1445312
		c0.5668945-0.9316406,1.3579102-1.671875,2.340332-2.21875c0.9746094-0.5449219,2.203125-0.8300781,3.6621094-0.8388672
		c1.2265625,0.0087891,2.2636719,0.0458984,3.1054688,0.1181641c0.8320312,0.0839844,1.4628906,0.1650391,1.890625,0.2421875
		c0.4257812,0.0761719,0.6464844,0.1171875,0.6464844,0.1269531v-1.6679688
		c-0.0078125-0.0078125-0.2597656-0.0820312-0.7578125-0.2011719c-0.484375-0.1289062-1.1582031-0.2558594-2.0039062-0.3769531
		c-0.8378906-0.1308594-1.8066406-0.1972656-2.8808594-0.2050781c-1.375,0.0078125-2.5429688,0.2089844-3.4941406,0.5986328
		c-0.9472656,0.3876953-1.7460938,0.9111328-2.4038086,1.5830078c-0.6533203,0.6621094-1.2128906,1.4023438-1.7011719,2.2314453
		c-0.1289062-0.9716797-0.2519531-1.75-0.3652344-2.3310547c-0.1054688-0.5722656-0.1972656-0.9824219-0.2597656-1.2324219
		c-0.0761719-0.2460938-0.1054688-0.3681641-0.1054688-0.3554688H139.4794922z M113.5947266,47.2543945h7.8408203
		c1.859375,0.0058594,3.3994141,0.2949219,4.6523438,0.8457031c1.2421875,0.5605469,2.2431641,1.3378906,2.9970703,2.3305664
		c0.7617188,1,1.3183594,2.1484375,1.7099609,3.4755859c0.3808594,1.3144531,0.6386719,2.7460938,0.7675781,4.2832031
		c0.1230469,1.53125,0.1757812,3.1191406,0.1679688,4.7539062c0.0078125,1.6328125-0.0449219,3.2197266-0.1679688,4.7558594
		c-0.1289062,1.5371094-0.3867188,2.96875-0.7675781,4.2871094c-0.3916016,1.3271484-0.9482422,2.4726562-1.7099609,3.46875
		c-0.7539062,0.9980469-1.7548828,1.7763672-2.9970703,2.3339844c-1.2529297,0.5507812-2.7929688,0.8408203-4.6523438,0.84375
		h-7.6494141c0-0.0029297-0.0078125-0.2841797-0.015625-0.8017578c-0.0078125-0.5351562-0.0136719-1.2470703-0.03125-2.1396484
		c-0.0244141-0.8955078-0.0371094-1.8925781-0.0556641-3.0078125c-0.015625-1.1132812-0.0283203-2.2529297-0.0449219-3.4316406
		c-0.0126953-1.1660156-0.0205078-2.3027344-0.0283203-3.3876953c-0.015625-1.0966797-0.015625-2.0683594-0.015625-2.9208984
		V47.2543945z M121.4355469,80.5966797c1.9912109-0.0068359,3.6933594-0.2763672,5.1015625-0.7978516
		c1.4101562-0.515625,2.5849609-1.2353516,3.5175781-2.1445312c0.9453125-0.9091797,1.6835938-1.9550781,2.2402344-3.1240234
		c0.5595703-1.1748047,0.9775391-2.4228516,1.2451172-3.7412109c0.265625-1.3144531,0.4492188-2.6484375,0.5283203-3.9882812
		c0.078125-1.3320312,0.1259766-2.6220703,0.1181641-3.8574219c0.0078125-1.2441406-0.0400391-2.5390625-0.1181641-3.8798828
		c-0.0791016-1.3447266-0.2626953-2.6728516-0.5283203-3.9912109c-0.2675781-1.3125-0.6855469-2.5527344-1.2451172-3.7324219
		c-0.5566406-1.171875-1.2949219-2.2167969-2.2402344-3.1147461c-0.9326172-0.9042969-2.1074219-1.625-3.5175781-2.140625
		c-1.4082031-0.5136719-3.1103516-0.7851562-5.1015625-0.793457c-2.1728516,0.0083008-3.9853516,0.0493164-5.4375,0.125
		c-1.4609375,0.0791016-2.5478516,0.1606445-3.2705078,0.2348633c-0.7275391,0.0839844-1.1005859,0.1210938-1.1005859,0.1274414
		c0,0.0151367-0.0107422,0.2592773-0.03125,0.7416992c-0.0244141,0.4780273-0.0605469,1.1484375-0.1005859,2
		c-0.0283203,0.8515625-0.0673828,1.8422852-0.1123047,2.9624023c-0.0371094,1.109375-0.0839844,2.3066406-0.1181641,3.5898438
		c-0.0341797,1.2744141-0.0712891,2.5908203-0.0976562,3.9228516c-0.0205078,1.3466797-0.0283203,2.6611328-0.0283203,3.9482422
		c0,1.2949219,0.0078125,2.6054688,0.0283203,3.9414062c0.0263672,1.3359375,0.0634766,2.6455078,0.0976562,3.9296875
		c0.0341797,1.2822266,0.0810547,2.4746094,0.1181641,3.5986328c0.0449219,1.1171875,0.0839844,2.1044922,0.1123047,2.9599609
		c0.0400391,0.8457031,0.0761719,1.515625,0.1005859,2c0.0205078,0.4824219,0.03125,0.7255859,0.03125,0.7304688
		c0,0.0117188,0.3730469,0.0507812,1.1005859,0.1347656c0.7226562,0.0751953,1.8095703,0.1542969,3.2705078,0.2265625
		C117.4501953,80.5488281,119.2626953,80.5898438,121.4355469,80.5966797z M111.6269531,0
		c0,0.0126953-0.0107422,0.2626953-0.03125,0.7646484c-0.0244141,0.4956055-0.0605469,1.1816406-0.1005859,2.0488281
		c-0.0283203,0.8725586-0.0673828,1.8847656-0.1123047,3.0073242c-0.0371094,1.1362305-0.0839844,2.3398438-0.1181641,3.6191406
		c-0.0341797,1.2851562-0.0712891,2.5859375-0.0976562,3.9003906c-0.0205078,1.3105469-0.0283203,2.590332-0.0283203,3.8256836
		c0,1.2329102,0.0078125,2.5102539,0.0283203,3.8208008c0.0263672,1.3144531,0.0634766,2.6171875,0.0976562,3.8930664
		c0.0341797,1.2807617,0.0810547,2.4897461,0.1181641,3.6181641c0.0449219,1.1391602,0.0839844,2.1411133,0.1123047,3.0063477
		c0.0400391,0.8789062,0.0761719,1.5664062,0.1005859,2.059082c0.0205078,0.5,0.03125,0.7553711,0.03125,0.7631836h2.2089844
		c0-0.0078125-0.0078125-0.2631836-0.0205078-0.7631836c-0.0078125-0.4926758-0.0292969-1.1801758-0.0449219-2.059082
		c-0.0136719-0.8652344-0.03125-1.8671875-0.0556641-3.0063477c-0.03125-1.128418-0.046875-2.3374023-0.0595703-3.6181641
		c-0.0244141-1.2758789-0.0292969-2.5786133-0.0449219-3.8930664c-0.015625-1.3105469-0.015625-2.5878906-0.015625-3.8208008
		V2.9438477l5.5371094,14.90625c0.4335938,1.1679688,0.8828125,2.3769531,1.3505859,3.6367188
		c0.4570312,1.2558594,0.9140625,2.5019531,1.3574219,3.7285156c0.4384766,1.234375,0.8623047,2.3925781,1.2587891,3.480957
		c0.3857422,1.0913086,0.7402344,2.0581055,1.0429688,2.9057617c0.2988281,0.8442383,0.5410156,1.5102539,0.7089844,1.9902344
		c0.1679688,0.4785156,0.2626953,0.7265625,0.2626953,0.734375h2.9423828c0-0.0078125,0.0917969-0.2558594,0.2597656-0.734375
		c0.1757812-0.4799805,0.4121094-1.1459961,0.7167969-1.9902344c0.2939453-0.8476562,0.6464844-1.8144531,1.0429688-2.9057617
		c0.3916016-1.0883789,0.8066406-2.246582,1.2607422-3.480957c0.4492188-1.2265625,0.8984375-2.4726562,1.3583984-3.7285156
		c0.4619141-1.2597656,0.9111328-2.46875,1.3476562-3.6367188l5.5400391-14.90625v31.3828125h1.9570312
		c0-0.0078125,0.0185547-0.2631836,0.046875-0.7631836c0.0078125-0.4926758,0.0478516-1.1801758,0.0839844-2.059082
		c0.0292969-0.8652344,0.0761719-1.8671875,0.1132812-3.0063477c0.046875-1.128418,0.0839844-2.3374023,0.1152344-3.6181641
		c0.0371094-1.2758789,0.0791016-2.5786133,0.0917969-3.8930664c0.0244141-1.3105469,0.0371094-2.5878906,0.0371094-3.8208008
		c0-1.2353516-0.0126953-2.5151367-0.0371094-3.8256836c-0.0126953-1.3144531-0.0546875-2.6152344-0.0917969-3.9003906
		c-0.03125-1.2792969-0.0683594-2.4829102-0.1152344-3.6191406c-0.0371094-1.1225586-0.0839844-2.1347656-0.1132812-3.0073242
		c-0.0361328-0.8671875-0.0761719-1.5532227-0.0839844-2.0488281C141.5576172,0.2626953,141.5390625,0.0126953,141.5390625,0
		h-3.0898438c0,0.0126953-0.09375,0.2626953-0.2958984,0.7470703c-0.1894531,0.487793-0.4492188,1.1557617-0.7910156,2.0112305
		c-0.3359375,0.8540039-0.7167969,1.828125-1.15625,2.9277344c-0.4228516,1.1074219-0.8828125,2.2675781-1.3789062,3.5019531
		c-0.4775391,1.234375-0.9609375,2.4770508-1.4472656,3.7270508c-0.4882812,1.2573242-0.9482422,2.4599609-1.4052734,3.6088867
		c-0.1679688,0.4433594-0.3867188,1.0488281-0.6669922,1.8081055c-0.2705078,0.7602539-0.5751953,1.6176758-0.9091797,2.5668945
		c-0.34375,0.9453125-0.6806641,1.9321289-1.0322266,2.9433594c-0.3574219,1.0117188-0.6992188,1.9897461-1.0224609,2.9511719
		c-0.3408203,0.9453125-0.6298828,1.7988281-0.8896484,2.5742188c-0.265625,0.7553711-0.4755859,1.359375-0.6259766,1.8110352
		c-0.1601562,0.453125-0.2363281,0.690918-0.2460938,0.6987305c0-0.0078125-0.0820312-0.2382812-0.234375-0.6875
		c-0.1552734-0.4550781-0.3574219-1.0581055-0.6279297-1.8149414c-0.2626953-0.7592773-0.5566406-1.6166992-0.8847656-2.5678711
		c-0.3369141-0.9448242-0.6699219-1.9272461-1.0302734-2.9394531c-0.3574219-1.0136719-0.6933594-1.9960938-1.0292969-2.9453125
		c-0.3359375-0.9550781-0.6386719-1.8164062-0.9121094-2.5756836c-0.2861328-0.7700195-0.5039062-1.3735352-0.671875-1.8227539
		C120.75,15.375,120.2744141,14.1723633,119.796875,12.9150391c-0.4970703-1.25-0.9804688-2.4926758-1.4580078-3.7270508
		c-0.4814453-1.234375-0.9462891-2.3945312-1.3798828-3.5019531c-0.4277344-1.0996094-0.8193359-2.0737305-1.1552734-2.9277344
		c-0.3339844-0.8554688-0.59375-1.5234375-0.7910156-2.0112305C114.8154297,0.2626953,114.7138672,0.0126953,114.7138672,0
		H111.6269531z"/>
	<g>
		<g>
			<defs>
				<path id="SVGID_1_" d="M14.0761719,6.5615234h21.5585938l-2.1542969-4.1391602
					c-3.7060547,0.6132812-8.5556641,1.4882812-12.7529297,2.3359375C18.21875,5.2626953,16.0205078,5.8676758,14.0761719,6.5615234
					"/>
			</defs>
			<use xlink:href="#SVGID_1_"  style="overflow:visible;fill:#64A8B6;"/>
			<clipPath id="SVGID_2_">
				<use xlink:href="#SVGID_1_"  style="overflow:visible;"/>
			</clipPath>
			<polygon class="st28" points="12.9960938,2.7270508 15.6728516,12.2070312 36.7148438,6.2563477 34.0351562,-3.2241211 			"/>
		</g>
		<g>
			<defs>
				<path id="SVGID_3_" d="M32.7587891,2.543457l2.5683594,4.0180664l0.9560547-0.2368164l3.0976562-4.7910156
					C37.4238281,1.8071289,34.8701172,2.1899414,32.7587891,2.543457"/>
			</defs>
			<use xlink:href="#SVGID_3_"  style="overflow:visible;fill:#8F4449;"/>
			<clipPath id="SVGID_4_">
				<use xlink:href="#SVGID_3_"  style="overflow:visible;"/>
			</clipPath>
			<polygon class="st26" points="32.5058594,1.5458984 32.7744141,6.887207 39.6298828,6.5493164 39.3671875,1.2055664 			"/>
		</g>
		<g>
			<defs>
				<path id="SVGID_5_" d="M35.6347656,6.5615234h27.7919922l-4.4472656-6.5205078
					c-5.4873047-0.019043-12.375,0.4848633-19.9589844,1.543457L35.6347656,6.5615234z"/>
			</defs>
			<use xlink:href="#SVGID_5_"  style="overflow:visible;fill:#E3555E;"/>
			<clipPath id="SVGID_6_">
				<use xlink:href="#SVGID_5_"  style="overflow:visible;"/>
			</clipPath>
			<polygon class="st24" points="35.8164062,-2.2612305 35.09375,6.5180664 63.2373047,8.8442383 63.9599609,0.0649414 			"/>
		</g>
		<g>
			<defs>
				<path id="SVGID_7_" d="M58.6884766,0.0375977L63.125,6.5615234l1.1113281-0.2368164l3.3251953-5.6738281
					C65.0322266,0.293457,61.8300781,0.0512695,58.6884766,0.0375977"/>
			</defs>
			<use xlink:href="#SVGID_7_"  style="overflow:visible;fill:#EFE88D;"/>
			<clipPath id="SVGID_8_">
				<use xlink:href="#SVGID_7_"  style="overflow:visible;"/>
			</clipPath>
			<polygon class="st33" points="58.6220703,0.0375977 58.6884766,6.652832 67.6328125,6.559082 67.5615234,-0.050293 			"/>
		</g>
		<g>
			<defs>
				<path id="SVGID_9_" d="M63.2636719,6.5615234h18.3251953c-3.2099609-3.012207-7.796875-5.027832-14.2792969-5.9516602
					L63.2636719,6.5615234z"/>
			</defs>
			<use xlink:href="#SVGID_9_"  style="overflow:visible;fill:#968E34;"/>
			<clipPath id="SVGID_10_">
				<use xlink:href="#SVGID_9_"  style="overflow:visible;"/>
			</clipPath>
			<polygon class="st34" points="65.9013672,-5.8212891 61.1757812,5.7070312 78.9433594,12.9951172 83.6767578,1.465332 			"/>
		</g>
		<g>
			<defs>
				<path id="SVGID_11_" d="M21.4707031,26.4106445H0.0195312c0.1630859-6.862793,1.9394531-13.5195312,9.6904297-17.9125977
					l12.0625,17.6669922L21.4707031,26.4106445z"/>
			</defs>
			<use xlink:href="#SVGID_11_"  style="overflow:visible;fill:#E3555E;"/>
			<clipPath id="SVGID_12_">
				<use xlink:href="#SVGID_11_"  style="overflow:visible;"/>
			</clipPath>
			<polygon class="st5" points="-5.7070312,24.3383789 19.2666016,33.3579102 27.4941406,10.5649414 2.5283203,1.5493164 			"/>
		</g>
		<g>
			<defs>
				<path id="SVGID_13_" d="M14.7617188,6.324707l20.515625,0.0410156l0.5283203,0.0805664L22.2402344,26.4106445
					l-0.6435547,0.0390625L9.4873047,8.6230469C11,7.7758789,12.7392578,7,14.7617188,6.324707"/>
			</defs>
			<use xlink:href="#SVGID_13_"  style="overflow:visible;fill:#EFE88D;"/>
			<clipPath id="SVGID_14_">
				<use xlink:href="#SVGID_13_"  style="overflow:visible;"/>
			</clipPath>
			<polygon class="st20" points="-0.5498047,15.7368164 21.7910156,39.5810547 45.8535156,17.043457 23.5068359,-6.8061523 			"/>
		</g>
		<g>
			<defs>
				<polygon id="SVGID_15_" points="49.1679688,26.4106445 24.3837891,27.6474609 21.8125,26.4106445 35.4931641,6.324707 
					36.2832031,6.324707 49.4492188,26.4106445 				"/>
			</defs>
			<use xlink:href="#SVGID_15_"  style="overflow:visible;fill:#407859;"/>
			<clipPath id="SVGID_16_">
				<use xlink:href="#SVGID_15_"  style="overflow:visible;"/>
			</clipPath>
			
				<rect x="22.711895" y="1.5133944" transform="matrix(-0.175372 0.9845023 -0.9845023 -0.175372 58.6030731 -15.1128349)" class="st14" width="25.8379307" height="30.9468441"/>
		</g>
		<g>
			<defs>
				<polygon id="SVGID_17_" points="35.6347656,6.324707 63.4267578,6.324707 49.9462891,26.4106445 49.3076172,26.4106445 				"/>
			</defs>
			<use xlink:href="#SVGID_17_"  style="overflow:visible;fill:#5C7487;"/>
			<clipPath id="SVGID_18_">
				<use xlink:href="#SVGID_17_"  style="overflow:visible;"/>
			</clipPath>
			
				<rect x="36.5927505" y="0.554348" transform="matrix(0.227238 0.9738393 -0.9738393 0.227238 54.214756 -35.5829849)" class="st37" width="25.8711433" height="31.6300735"/>
		</g>
		<g>
			<defs>
				<polygon id="SVGID_19_" points="76.7998047,26.6982422 49.9853516,27.6079102 49.4492188,26.4106445 63.125,6.324707 
					64.2363281,6.3291016 77.4833984,25.6176758 				"/>
			</defs>
			<use xlink:href="#SVGID_19_"  style="overflow:visible;fill:#64A8B6;"/>
			<clipPath id="SVGID_20_">
				<use xlink:href="#SVGID_19_"  style="overflow:visible;"/>
			</clipPath>
			
				<rect x="51.4963074" y="1.9736652" transform="matrix(0.0984434 -0.9951427 0.9951427 0.0984434 40.3296051 78.4559631)" class="st19" width="23.9370708" height="29.9926109"/>
		</g>
		<g>
			<defs>
				<path id="SVGID_21_" d="M63.2636719,6.324707h18.0576172c2.0693359,1.8691406,3.8164062,4.6899414,4.9140625,7.3261719
					l-8.5371094,12.7597656h-0.7558594L63.2636719,6.324707z"/>
			</defs>
			<use xlink:href="#SVGID_21_"  style="overflow:visible;fill:#F2AEAC;"/>
			<clipPath id="SVGID_22_">
				<use xlink:href="#SVGID_21_"  style="overflow:visible;"/>
			</clipPath>
			
				<rect x="59.5544548" y="1.1265354" transform="matrix(0.6911205 -0.7227396 0.7227396 0.6911205 11.2591743 59.0804214)" class="st17" width="30.3910904" height="30.4822807"/>
		</g>
		<g>
			<defs>
				<path id="SVGID_23_" d="M88.5107422,26.4106445l-9.7558594,0.8574219l-1.6083984-0.8574219l8.9453125-13.1289062
					c1.4023438,3.453125,2.0986328,7.5371094,2.3691406,12.1953125
					C88.4794922,25.7661133,88.4970703,26.0766602,88.5107422,26.4106445"/>
			</defs>
			<use xlink:href="#SVGID_23_"  style="overflow:visible;fill:#E3555E;"/>
			<clipPath id="SVGID_24_">
				<use xlink:href="#SVGID_23_"  style="overflow:visible;"/>
			</clipPath>
			<polygon class="st10" points="87.2783203,9.7407227 72.7919922,14.8071289 78.3867188,30.8115234 92.8681641,25.7470703 			"/>
		</g>
		<g>
			<defs>
				<path id="SVGID_25_" d="M21.4707031,26.3696289H0.0117188C-0.0458984,29.2910156,0.125,32.5668945,0.125,35.4951172
					l7.6650391,11.2695312L21.4707031,26.3696289z"/>
			</defs>
			<use xlink:href="#SVGID_25_"  style="overflow:visible;fill:#F2AEAC;"/>
			<clipPath id="SVGID_26_">
				<use xlink:href="#SVGID_25_"  style="overflow:visible;"/>
			</clipPath>
			
				<rect x="-0.7233458" y="25.6475487" transform="matrix(-0.9976338 -0.0687523 0.0687523 -0.9976338 18.8826065 73.7797623)" class="st27" width="22.8685665" height="21.8347874"/>
		</g>
		<g>
			<defs>
				<polygon id="SVGID_27_" points="7.4990234,46.7646484 35.2851562,46.7646484 21.4365234,26.4106445 				"/>
			</defs>
			<use xlink:href="#SVGID_27_"  style="overflow:visible;fill:#F2B15C;"/>
			<clipPath id="SVGID_28_">
				<use xlink:href="#SVGID_27_"  style="overflow:visible;"/>
			</clipPath>
			<polygon class="st31" points="-1.4326172,41.4570312 28.0429688,58.9570312 44.2167969,31.715332 14.7353516,14.2138672 			"/>
		</g>
		<g>
			<defs>
				<polygon id="SVGID_29_" points="49.3105469,26.4106445 21.4365234,26.4106445 35.1220703,46.7543945 35.9238281,46.7387695 				
					"/>
			</defs>
			<use xlink:href="#SVGID_29_"  style="overflow:visible;fill:#64A8B6;"/>
			<clipPath id="SVGID_30_">
				<use xlink:href="#SVGID_29_"  style="overflow:visible;"/>
			</clipPath>
			<polygon class="st16" points="20.8242188,26.4321289 21.4658203,47.5986328 49.9277344,46.7348633 49.28125,25.5615234 			"/>
		</g>
		<g>
			<defs>
				<polygon id="SVGID_31_" points="35.2851562,46.7387695 62.9912109,46.7646484 49.1679688,26.4106445 				"/>
			</defs>
			<use xlink:href="#SVGID_31_"  style="overflow:visible;fill:#464340;"/>
			<clipPath id="SVGID_32_">
				<use xlink:href="#SVGID_31_"  style="overflow:visible;"/>
			</clipPath>
			<polygon class="st36" points="62.9277344,48.0239258 63.9179688,26.449707 35.3427734,25.1430664 34.3554688,46.7211914 			"/>
		</g>
		<g>
			<defs>
				<polygon id="SVGID_33_" points="77.1464844,26.4106445 49.1679688,26.4106445 62.9648438,46.7646484 				"/>
			</defs>
			<use xlink:href="#SVGID_33_"  style="overflow:visible;fill:#8F4449;"/>
			<clipPath id="SVGID_34_">
				<use xlink:href="#SVGID_33_"  style="overflow:visible;"/>
			</clipPath>
			
				<rect x="46.8503876" y="19.291193" transform="matrix(-0.5657884 -0.8245504 0.8245504 -0.5657884 68.7263947 109.3629761)" class="st18" width="32.6166115" height="34.5890007"/>
		</g>
		<g>
			<defs>
				<path id="SVGID_35_" d="M62.9492188,46.7387695l25.9316406,0.0258789c0-0.8515625-0.0078125-1.7094727-0.015625-2.5708008
					l-11.9833984-17.875L62.9492188,46.7387695z"/>
			</defs>
			<use xlink:href="#SVGID_35_"  style="overflow:visible;fill:#EFE88D;"/>
			<clipPath id="SVGID_36_">
				<use xlink:href="#SVGID_35_"  style="overflow:visible;"/>
			</clipPath>
			
				<rect x="63.1045494" y="21.6533318" transform="matrix(0.2191368 0.9756942 -0.9756942 0.2191368 94.9375458 -45.5382309)" class="st21" width="25.6287899" height="29.7802505"/>
		</g>
		<g>
			<defs>
				<path id="SVGID_37_" d="M88.5107422,26.4106445H76.7998047L88.8701172,44.5
					C88.8261719,37.8168945,88.6914062,30.324707,88.5107422,26.4106445"/>
			</defs>
			<use xlink:href="#SVGID_37_"  style="overflow:visible;fill:#F2B15C;"/>
			<clipPath id="SVGID_38_">
				<use xlink:href="#SVGID_37_"  style="overflow:visible;"/>
			</clipPath>
			<polygon class="st29" points="87.7304688,22.8798828 71.5048828,28.1230469 77.9482422,48.0375977 94.1689453,42.7875977 			"/>
		</g>
		<g>
			<defs>
				<path id="SVGID_39_" d="M1.2207031,46.7646484h6.6083984L0.125,35.4306641c0,0.2324219,0,0.4702148,0,0.7045898
					C0.4951172,40.0102539,0.8447266,43.5356445,1.2207031,46.7646484"/>
			</defs>
			<use xlink:href="#SVGID_39_"  style="overflow:visible;fill:#64A8B6;"/>
			<clipPath id="SVGID_40_">
				<use xlink:href="#SVGID_39_"  style="overflow:visible;"/>
			</clipPath>
			
				<rect x="0.0351491" y="35.3708839" transform="matrix(-0.9998743 0.0158553 -0.0158553 -0.9998743 8.6052084 82.1261139)" class="st13" width="7.8838034" height="11.4525661"/>
		</g>
		<g>
			<defs>
				<path id="SVGID_41_" d="M21.4707031,66.8222656H5.6865234C4.1787109,63.5878906,3.1455078,59.625,2.3232422,54.7626953
					l5.1777344-8.0239258l14.6103516,19.340332L21.4707031,66.8222656z"/>
			</defs>
			<use xlink:href="#SVGID_41_"  style="overflow:visible;fill:#F2B15C;"/>
			<clipPath id="SVGID_42_">
				<use xlink:href="#SVGID_41_"  style="overflow:visible;"/>
			</clipPath>
			<polygon class="st11" points="4.1123047,72.4951172 27.8642578,65.0039062 20.3203125,41.0688477 -3.4316406,48.5532227 			"/>
		</g>
		<g>
			<defs>
				<polygon id="SVGID_43_" points="7.2568359,46.7387695 35.2851562,46.7387695 35.9238281,46.7387695 23.6171875,66.8222656 
					21.6044922,66.8222656 				"/>
			</defs>
			<use xlink:href="#SVGID_43_"  style="overflow:visible;fill:#8F4449;"/>
			<clipPath id="SVGID_44_">
				<use xlink:href="#SVGID_43_"  style="overflow:visible;"/>
			</clipPath>
			
				<rect x="4.3910618" y="39.515831" transform="matrix(0.7000178 -0.7141254 0.7141254 0.7000178 -34.0711365 32.453167)" class="st15" width="34.4034233" height="34.5298615"/>
		</g>
		<polygon class="st39" points="49.6074219,67.4902344 22.71875,68.2783203 21.8125,66.8222656 35.4931641,46.7387695 
			37.1689453,46.7426758 49.9248047,65.9238281 		"/>
		<polygon class="st0" points="35.6347656,46.7387695 62.9912109,46.7387695 63.8339844,47.5820312 51.1650391,66.8222656 
			49.3076172,66.8222656 		"/>
		<g>
			<defs>
				<polygon id="SVGID_45_" points="49.4492188,66.8222656 63.125,46.7387695 65.1923828,46.7426758 77.3125,65.609375 
					76.9423828,66.8222656 74.5644531,68.0566406 51.0439453,67.7753906 				"/>
			</defs>
			<use xlink:href="#SVGID_45_"  style="overflow:visible;fill:#407859;"/>
			<clipPath id="SVGID_46_">
				<use xlink:href="#SVGID_45_"  style="overflow:visible;"/>
			</clipPath>
			<polygon class="st4" points="86.6455078,52.2558594 56.6572266,34.5356445 40.1113281,62.5390625 70.1044922,80.2626953 			"/>
		</g>
		<g>
			<defs>
				<path id="SVGID_47_" d="M63.2636719,46.7387695h25.6171875c0.0029297,0.8535156,0.0078125,2.2773438,0.0078125,3.1147461
					l-10.5566406,16.96875h-1.3896484L63.2636719,46.7387695z"/>
			</defs>
			<use xlink:href="#SVGID_47_"  style="overflow:visible;fill:#64A8B6;"/>
			<clipPath id="SVGID_48_">
				<use xlink:href="#SVGID_47_"  style="overflow:visible;"/>
			</clipPath>
			<polygon class="st35" points="66.2246094,38.543457 56.8417969,64.5 85.9257812,75.0097656 95.3085938,49.0615234 			"/>
		</g>
		<g>
			<defs>
				<path id="SVGID_49_" d="M88.4052734,66.8222656l-10.0185547,1.8408203l-1.2402344-1.8408203l11.7421875-17.2402344
					c0.0029297,6.3554688-0.0654297,12.0302734-0.2148438,14.5566406
					C88.6210938,65.0585938,88.5341797,65.9550781,88.4052734,66.8222656"/>
			</defs>
			<use xlink:href="#SVGID_49_"  style="overflow:visible;fill:#F2B15C;"/>
			<clipPath id="SVGID_50_">
				<use xlink:href="#SVGID_49_"  style="overflow:visible;"/>
			</clipPath>
			
				<rect x="75.2367859" y="48.5480728" transform="matrix(0.97666 0.2147912 -0.2147912 0.97666 14.6376495 -16.4520493)" class="st1" width="15.5674458" height="21.1577625"/>
		</g>
		<g>
			<defs>
				<path id="SVGID_51_" d="M1.2128906,46.7387695h6.6162109l-5.4892578,8.0776367
					C1.921875,52.3623047,1.5566406,49.6821289,1.2128906,46.7387695"/>
			</defs>
			<use xlink:href="#SVGID_51_"  style="overflow:visible;fill:#5C7487;"/>
			<clipPath id="SVGID_52_">
				<use xlink:href="#SVGID_51_"  style="overflow:visible;"/>
			</clipPath>
			<polygon class="st8" points="1.5351562,56.2265625 9.5605469,54.4306641 7.5117188,45.3266602 -0.5058594,47.1254883 			"/>
		</g>
		<g>
			<defs>
				<path id="SVGID_53_" d="M21.4707031,66.8222656H5.6865234c2.0380859,4.2587891,5.0400391,7.4863281,9.3955078,9.6308594
					l1.1533203,0.5371094l5.5117188-7.8515625L21.4707031,66.8222656z"/>
			</defs>
			<use xlink:href="#SVGID_53_"  style="overflow:visible;fill:#64A8B6;"/>
			<clipPath id="SVGID_54_">
				<use xlink:href="#SVGID_53_"  style="overflow:visible;"/>
			</clipPath>
			
				<rect x="4.3635035" y="62.7297897" transform="matrix(-0.7358674 0.6771256 -0.6771256 -0.7358674 72.4983673 115.5372849)" class="st23" width="18.7026806" height="18.3577995"/>
		</g>
		<g>
			<defs>
				<path id="SVGID_55_" d="M30.7412109,80.5l1.4316406,0.1787109L21.6044922,66.8222656l-6.4228516,9.6816406
					C19.0673828,78.3984375,24.1103516,79.6298828,30.7412109,80.5"/>
			</defs>
			<use xlink:href="#SVGID_55_"  style="overflow:visible;fill:#E3555E;"/>
			<clipPath id="SVGID_56_">
				<use xlink:href="#SVGID_55_"  style="overflow:visible;"/>
			</clipPath>
			
				<rect x="16.3565826" y="64.9408112" transform="matrix(-0.047204 0.9988853 -0.9988853 -0.047204 98.4677124 53.579567)" class="st7" width="14.6471872" height="17.6222839"/>
		</g>
		<g>
			<defs>
				<path id="SVGID_57_" d="M49.1679688,66.8222656H21.4707031l9.4960938,13.7060547
					c0.3964844,0.0556641,0.7958984,0.1035156,1.2060547,0.1503906l7.1582031,0.8564453l1.2763672,0.1542969l9.4433594-13.5292969
					L49.1679688,66.8222656z"/>
			</defs>
			<use xlink:href="#SVGID_57_"  style="overflow:visible;fill:#5C7487;"/>
			<clipPath id="SVGID_58_">
				<use xlink:href="#SVGID_57_"  style="overflow:visible;"/>
			</clipPath>
			
				<rect x="26.738966" y="59.2061462" transform="matrix(-0.1145542 0.993417 -0.993417 -0.1145542 113.6215973 47.2392769)" class="st25" width="18.0386696" height="30.0994244"/>
		</g>
		<g>
			<defs>
				<polygon id="SVGID_59_" points="57.7138672,87.1787109 63.4267578,87.1787109 49.3076172,66.7802734 39.4570312,81.5507812 
					52.1572266,83.0742188 				"/>
			</defs>
			<use xlink:href="#SVGID_59_"  style="overflow:visible;fill:#64A8B6;"/>
			<clipPath id="SVGID_60_">
				<use xlink:href="#SVGID_59_"  style="overflow:visible;"/>
			</clipPath>
			
				<rect x="41.2025909" y="64.961853" transform="matrix(0.0029573 0.9999956 -0.9999956 0.0029573 128.2664795 25.3126144)" class="st6" width="20.4737225" height="24.0352745"/>
		</g>
		<g>
			<defs>
				<polygon id="SVGID_61_" points="76.9423828,66.8222656 49.1679688,66.8222656 63.125,87.1787109 77.4833984,68.5429688 				"/>
			</defs>
			<use xlink:href="#SVGID_61_"  style="overflow:visible;fill:#8F4449;"/>
			<clipPath id="SVGID_62_">
				<use xlink:href="#SVGID_61_"  style="overflow:visible;"/>
			</clipPath>
			
				<rect x="52.3470383" y="62.2821007" transform="matrix(0.0575565 0.9983423 -0.9983423 0.0575565 136.5547485 9.3507233)" class="st3" width="21.9553413" height="29.4406796"/>
		</g>
		<g>
			<defs>
				<path id="SVGID_63_" d="M62.8251953,87.1787109h8.9179688l0.0078125-5.1103516
					c5.4375-0.2089844,9.3837891-1.9609375,12.1044922-4.8300781l0.6621094-0.7558594l-7.5751953-9.6601562L62.8251953,87.1787109z"
					/>
			</defs>
			<use xlink:href="#SVGID_63_"  style="overflow:visible;fill:#E3555E;"/>
			<clipPath id="SVGID_64_">
				<use xlink:href="#SVGID_63_"  style="overflow:visible;"/>
			</clipPath>
			
				<rect x="58.7965965" y="62.1573296" transform="matrix(0.7287126 0.6848197 -0.6848197 0.7287126 72.717514 -29.5612183)" class="st38" width="29.7466507" height="29.687294"/>
		</g>
		<g>
			<defs>
				<path id="SVGID_65_" d="M88.4052734,66.8222656H76.9423828l6.1308594,8.9580078l0.8984375,1.3251953
					C86.3486328,74.53125,87.7939453,70.8486328,88.4052734,66.8222656"/>
			</defs>
			<use xlink:href="#SVGID_65_"  style="overflow:visible;fill:#EFE88D;"/>
			<clipPath id="SVGID_66_">
				<use xlink:href="#SVGID_65_"  style="overflow:visible;"/>
			</clipPath>
			<polygon class="st12" points="90.2050781,67.1484375 77.3046875,64.8183594 75.1396484,76.7783203 88.0429688,79.1152344 			"/>
		</g>
		<g>
			<defs>
				<polygon id="SVGID_67_" points="57.3925781,86.9394531 64.1914062,86.9394531 61.7558594,90.1679688 				"/>
			</defs>
			<use xlink:href="#SVGID_67_"  style="overflow:visible;fill:#8F4449;"/>
			<clipPath id="SVGID_68_">
				<use xlink:href="#SVGID_67_"  style="overflow:visible;"/>
			</clipPath>
			
				<rect x="57.5720825" y="84.8281479" transform="matrix(-0.5515832 0.8341199 -0.8341199 -0.5515832 168.1905212 86.6894226)" class="st22" width="6.4427471" height="7.4511256"/>
		</g>
		<g>
			<defs>
				<polygon id="SVGID_69_" points="61.2070312,89.7597656 63.125,86.9394531 65.2578125,86.9394531 71.1152344,97.0878906 
					68.9355469,95.4794922 				"/>
			</defs>
			<use xlink:href="#SVGID_69_"  style="overflow:visible;fill:#8F4449;"/>
			<clipPath id="SVGID_70_">
				<use xlink:href="#SVGID_69_"  style="overflow:visible;"/>
			</clipPath>
			<polygon class="st32" points="72.3896484,96.9238281 70.9550781,85.6992188 59.9335938,87.0996094 61.3623047,98.3310547 			"/>
		</g>
		<g>
			<defs>
				<polygon id="SVGID_71_" points="63.2636719,86.9394531 71.7431641,86.9394531 71.7353516,97.5458984 69.21875,95.6855469 				
					"/>
			</defs>
			<use xlink:href="#SVGID_71_"  style="overflow:visible;fill:#F2AEAC;"/>
			<clipPath id="SVGID_72_">
				<use xlink:href="#SVGID_71_"  style="overflow:visible;"/>
			</clipPath>
			<polygon class="st2" points="77.0449219,92.3261719 67.5722656,82.7011719 57.9599609,92.1582031 67.4384766,101.7851562 			"/>
		</g>
		<path class="st30" d="M52.6699219,44.215332l-0.0107422,0.0175781l0,0
			c0.0029297-0.0058594,0.0078125-0.0136719,0.0078125-0.0136719 M54.5009766,37.6606445l2.3408203-9.3696289l-1.4375-11.5483398
			l-2.2851562-0.5175781c0.7509766,13.2749023-12.703125,12.71875-12.2255859,0l-2.2617188,0.6308594l-1.1503906,11.4418945
			l2.2148438,9.362793H54.5009766z M53.5048828,41.6411133l0.4833984-1.9238281H40.1767578l0.4462891,1.9042969
			L53.5048828,41.6411133z M41.0830078,43.6352539C31.1328125,46.7895508,26.2441406,57.375,17.6933594,64.0917969
			c11.8603516,8.9316406,11.8837891,1.5332031,18.4824219,4.359375c1.6523438,0.7089844,5.8134766,3.1855469,9.1621094,3.8925781
			c3.3525391,0.7177734,5.7011719-1.2265625,9.4257812-0.7695312c3.953125,0.4824219,5.4003906,4.1328125,14.5449219,3.5644531
			c-0.4257812-6.3320312-10.4707031-27.081543-16.3369141-31.3603516l0.0058594-0.012207l-4.2685547-0.046875l2.0673828,4.9335938
			l0.0703125,0.1782227l-0.1787109,0.0698242l-1.4082031,0.5878906l-0.1757812,0.074707l-0.0732422-0.1782227l-2.3876953-5.6855469
			l-0.0400391-0.0058594l-4.7617188,8.4487305l-0.0917969,0.1689453l-0.1708984-0.0947266l-1.3291016-0.7529297L40.0556641,51.375
			l0.0996094-0.1699219l4.2480469-7.534668L41.0830078,43.6352539z"/>
	</g>
</g>
</svg>
