<?xml version="1.0" encoding="UTF-8" standalone="no"?>
<svg width="286px" height="98px" viewBox="0 0 286 98" version="1.1" xmlns="http://www.w3.org/2000/svg" xmlns:xlink="http://www.w3.org/1999/xlink" xmlns:sketch="http://www.bohemiancoding.com/sketch/ns">
    <title>md</title>
    <description>Created with Sketch (http://www.bohemiancoding.com/sketch)</description>
    <defs></defs>
    <g id="Page 1" stroke="none" stroke-width="1" fill="none" fill-rule="evenodd">
        <g id="Layer_1">
            <path d="M205.873,9.522 C204.371,9.532 203.068,9.737 201.984,10.127 C200.884,10.522 199.97,11.059 199.238,11.736 C198.49,12.416 197.896,13.189 197.445,14.056 C196.986,14.921 196.646,15.834 196.414,16.79 C196.182,17.735 196.021,18.686 195.937,19.624 C195.861,20.562 195.812,21.446 195.824,22.272 C195.812,23.096 195.861,23.977 195.937,24.915 C196.021,25.856 196.181,26.803 196.414,27.752 C196.646,28.709 196.986,29.613 197.445,30.484 C197.896,31.35 198.49,32.127 199.238,32.806 C199.97,33.484 200.884,34.017 201.984,34.416 C203.068,34.802 204.371,35.011 205.873,35.019 C207.377,35.011 208.682,34.802 209.771,34.416 C210.861,34.017 211.777,33.484 212.511,32.806 C213.255,32.126 213.851,31.349 214.3,30.484 C214.759,29.613 215.105,28.709 215.337,27.752 C215.573,26.803 215.73,25.856 215.814,24.915 C215.898,23.977 215.931,23.096 215.927,22.272 C215.931,21.446 215.898,20.561 215.814,19.624 C215.73,18.687 215.574,17.735 215.337,16.79 C215.105,15.833 214.759,14.921 214.3,14.056 C213.851,13.189 213.255,12.416 212.511,11.736 C211.777,11.058 210.861,10.521 209.771,10.127 C208.682,9.737 207.377,9.532 205.873,9.522 L205.873,9.522 Z M205.873,11.483 C207.514,11.492 208.842,11.795 209.853,12.381 C210.867,12.953 211.632,13.756 212.158,14.762 C212.679,15.778 213.029,16.92 213.22,18.207 C213.402,19.494 213.493,20.852 213.468,22.273 C213.493,23.697 213.402,25.053 213.22,26.334 C213.029,27.626 212.679,28.769 212.158,29.785 C211.633,30.788 210.867,31.579 209.853,32.171 C208.841,32.747 207.513,33.052 205.873,33.06 C204.227,33.053 202.908,32.748 201.893,32.171 C200.877,31.579 200.114,30.788 199.588,29.785 C199.063,28.769 198.711,27.626 198.529,26.334 C198.345,25.053 198.256,23.697 198.277,22.273 C198.256,20.852 198.345,19.494 198.529,18.207 C198.711,16.92 199.062,15.777 199.588,14.762 C200.113,13.756 200.877,12.953 201.893,12.381 C202.908,11.795 204.227,11.493 205.873,11.483 L205.873,11.483 Z M173.658,34.532 L173.658,21.292 C173.65,20.048 173.771,18.849 174.023,17.687 C174.259,16.528 174.679,15.481 175.25,14.552 C175.822,13.618 176.607,12.874 177.594,12.328 C178.569,11.782 179.795,11.493 181.26,11.483 C182.901,11.492 184.227,11.795 185.233,12.381 C186.249,12.953 187.018,13.756 187.544,14.762 C188.065,15.77 188.415,16.92 188.608,18.207 C188.784,19.494 188.872,20.852 188.856,22.273 L188.856,34.531 L190.817,34.531 C190.817,34.523 190.837,34.304 190.856,33.879 C190.879,33.453 190.909,32.881 190.948,32.172 C190.985,31.457 191.024,30.656 191.069,29.786 C191.106,28.901 191.145,28.003 191.184,27.09 C191.221,26.167 191.25,25.289 191.274,24.453 C191.297,23.621 191.313,22.893 191.313,22.274 C191.321,21.448 191.274,20.563 191.202,19.626 C191.118,18.688 190.966,17.737 190.725,16.792 C190.481,15.835 190.151,14.923 189.682,14.058 C189.239,13.191 188.637,12.418 187.897,11.738 C187.159,11.06 186.241,10.523 185.163,10.129 C184.061,9.738 182.767,9.533 181.261,9.524 C179.88,9.534 178.718,9.739 177.759,10.122 C176.814,10.512 176.013,11.039 175.359,11.707 C174.703,12.368 174.138,13.112 173.66,13.942 C173.529,12.963 173.408,12.189 173.295,11.612 C173.186,11.039 173.102,10.63 173.029,10.373 C172.959,10.129 172.924,10.005 172.924,10.016 L171.354,10.016 C171.354,10.005 171.34,10.209 171.307,10.638 C171.301,11.067 171.27,11.784 171.248,12.796 C171.223,13.8 171.209,15.159 171.209,16.882 C171.209,18.196 171.223,19.548 171.248,20.909 C171.264,22.286 171.301,23.63 171.34,24.948 C171.369,26.262 171.416,27.493 171.453,28.651 C171.49,29.801 171.529,30.813 171.576,31.696 C171.605,32.577 171.642,33.271 171.666,33.771 C171.686,34.271 171.697,34.526 171.697,34.534 L173.658,34.534 L173.658,34.532 Z M163.113,33.061 L156.494,33.061 C154.976,33.054 153.742,32.903 152.795,32.612 C151.85,32.315 151.133,31.917 150.645,31.428 C150.149,30.928 149.813,30.379 149.627,29.776 C149.459,29.162 149.375,28.544 149.389,27.911 C149.375,27.296 149.459,26.681 149.627,26.075 C149.813,25.468 150.148,24.912 150.645,24.409 C151.133,23.917 151.85,23.52 152.795,23.221 C153.742,22.928 154.977,22.77 156.494,22.762 L163.113,22.762 L163.113,33.061 L163.113,33.061 Z M148.893,10.508 L148.893,12.221 C148.907,12.211 149.094,12.18 149.502,12.11 C149.889,12.034 150.44,11.95 151.133,11.856 C151.826,11.754 152.641,11.67 153.549,11.598 C154.463,11.526 155.449,11.483 156.494,11.483 C157.775,11.483 158.853,11.67 159.697,12.047 C160.562,12.428 161.238,13.018 161.734,13.813 C162.24,14.608 162.588,15.62 162.804,16.86 C163.017,18.103 163.12,19.575 163.113,21.292 C163.101,21.292 162.884,21.269 162.461,21.218 C162.038,21.167 161.49,21.112 160.818,21.048 C160.146,20.984 159.431,20.923 158.67,20.874 C157.91,20.827 157.18,20.802 156.494,20.802 C154.785,20.813 153.361,20.984 152.199,21.32 C151.056,21.65 150.125,22.095 149.426,22.642 C148.725,23.187 148.192,23.779 147.821,24.41 C147.464,25.055 147.227,25.672 147.106,26.283 C146.985,26.898 146.93,27.438 146.93,27.912 C146.93,28.348 146.985,28.863 147.106,29.465 C147.227,30.059 147.463,30.68 147.821,31.33 C148.192,31.967 148.725,32.573 149.426,33.127 C150.125,33.684 151.057,34.143 152.199,34.487 C153.361,34.84 154.785,35.016 156.494,35.024 C158.342,35.016 159.912,34.972 161.185,34.891 C162.46,34.819 163.429,34.739 164.076,34.664 C164.74,34.584 165.076,34.541 165.076,34.534 C165.076,34.527 165.09,34.264 165.127,33.763 C165.16,33.257 165.197,32.577 165.25,31.734 C165.295,30.871 165.342,29.92 165.396,28.854 C165.441,27.791 165.488,26.699 165.517,25.562 C165.548,24.435 165.564,23.34 165.564,22.277 C165.572,20.99 165.533,19.734 165.441,18.499 C165.341,17.261 165.144,16.115 164.832,15.031 C164.51,13.956 164.031,13.002 163.375,12.172 C162.717,11.357 161.832,10.711 160.713,10.24 C159.6,9.77 158.197,9.535 156.494,9.525 C155.449,9.535 154.463,9.583 153.549,9.681 C152.641,9.781 151.826,9.89 151.133,10.017 C150.44,10.152 149.889,10.249 149.502,10.353 C149.094,10.444 148.906,10.501 148.893,10.508 L148.893,10.508 Z M282.32,49.664 C282.328,50.164 282.488,50.572 282.812,50.891 C283.128,51.209 283.541,51.373 284.031,51.381 C284.535,51.373 284.947,51.209 285.267,50.891 C285.578,50.573 285.746,50.164 285.746,49.664 C285.746,49.164 285.578,48.758 285.267,48.437 C284.947,48.12 284.535,47.955 284.031,47.947 C283.541,47.955 283.129,48.119 282.812,48.437 C282.488,48.758 282.328,49.164 282.32,49.664 L282.32,49.664 Z M285.014,80.309 L285.014,55.799 L282.711,55.799 C282.711,55.786 282.699,55.992 282.672,56.417 C282.656,56.851 282.635,57.563 282.602,58.574 C282.581,59.574 282.569,60.934 282.569,62.656 C282.569,63.97 282.581,65.322 282.602,66.689 C282.627,68.06 282.657,69.412 282.7,70.724 C282.729,72.038 282.77,73.275 282.813,74.425 C282.848,75.584 282.897,76.591 282.932,77.476 C282.965,78.359 283,79.044 283.022,79.554 C283.042,80.046 283.057,80.303 283.057,80.308 L285.014,80.308 L285.014,80.309 Z M274.475,78.838 L267.854,78.838 C266.334,78.835 265.1,78.688 264.161,78.393 C263.216,78.101 262.491,77.694 262.005,77.203 C261.509,76.71 261.165,76.163 260.989,75.556 C260.821,74.943 260.737,74.326 260.745,73.693 C260.737,73.072 260.821,72.461 260.989,71.854 C261.165,71.252 261.509,70.697 262.005,70.197 C262.491,69.699 263.216,69.305 264.161,69.003 C265.1,68.705 266.335,68.554 267.854,68.549 L274.475,68.549 L274.475,78.838 L274.475,78.838 Z M260.256,56.286 L260.256,58.001 C260.266,57.994 260.463,57.961 260.861,57.887 C261.256,57.811 261.795,57.736 262.49,57.634 C263.185,57.537 263.992,57.453 264.918,57.384 C265.824,57.307 266.809,57.269 267.854,57.269 C269.137,57.269 270.209,57.454 271.057,57.831 C271.918,58.219 272.596,58.803 273.096,59.597 C273.598,60.39 273.95,61.406 274.166,62.644 C274.375,63.885 274.482,65.359 274.475,67.076 C274.475,67.076 274.243,67.049 273.817,67.005 C273.389,66.949 272.848,66.895 272.178,66.832 C271.508,66.764 270.789,66.705 270.028,66.658 C269.262,66.607 268.54,66.584 267.854,66.584 C266.145,66.592 264.719,66.764 263.569,67.1 C262.409,67.432 261.485,67.875 260.784,68.421 C260.079,68.973 259.554,69.561 259.188,70.197 C258.825,70.832 258.584,71.459 258.467,72.069 C258.34,72.677 258.281,73.221 258.299,73.693 C258.281,74.129 258.34,74.644 258.467,75.242 C258.584,75.842 258.824,76.467 259.188,77.109 C259.553,77.753 260.079,78.349 260.784,78.906 C261.485,79.463 262.409,79.922 263.569,80.263 C264.719,80.619 266.145,80.796 267.854,80.803 C269.704,80.796 271.272,80.755 272.547,80.671 C273.817,80.599 274.789,80.52 275.442,80.444 C276.1,80.36 276.436,80.321 276.436,80.309 C276.436,80.304 276.45,80.043 276.479,79.547 C276.518,79.039 276.555,78.359 276.61,77.51 C276.655,76.652 276.71,75.698 276.753,74.634 C276.802,73.57 276.851,72.473 276.878,71.335 C276.907,70.209 276.921,69.113 276.921,68.054 C276.929,66.77 276.892,65.508 276.802,64.276 C276.71,63.046 276.505,61.889 276.191,60.813 C275.871,59.734 275.39,58.778 274.736,57.954 C274.076,57.137 273.193,56.486 272.072,56.019 C270.959,55.552 269.556,55.313 267.855,55.305 C266.81,55.313 265.826,55.362 264.919,55.463 C263.993,55.557 263.187,55.664 262.491,55.799 C261.796,55.926 261.257,56.034 260.862,56.127 C260.463,56.223 260.266,56.277 260.256,56.286 L260.256,56.286 Z M251.133,49.664 C251.143,50.164 251.309,50.572 251.621,50.891 C251.943,51.209 252.348,51.373 252.85,51.381 C253.346,51.373 253.758,51.209 254.073,50.891 C254.397,50.573 254.557,50.164 254.565,49.664 C254.557,49.164 254.397,48.758 254.073,48.437 C253.759,48.12 253.346,47.955 252.85,47.947 C252.348,47.955 251.944,48.119 251.621,48.437 C251.309,48.758 251.143,49.164 251.133,49.664 L251.133,49.664 Z M253.834,80.309 L253.834,55.799 L251.531,55.799 C251.531,55.786 251.508,55.992 251.484,56.417 C251.468,56.851 251.447,57.563 251.418,58.574 C251.395,59.574 251.381,60.934 251.381,62.656 C251.381,63.97 251.395,65.322 251.418,66.689 C251.439,68.06 251.469,69.412 251.508,70.724 C251.545,72.038 251.586,73.275 251.621,74.425 C251.662,75.584 251.705,76.591 251.746,77.476 C251.783,78.359 251.812,79.044 251.836,79.554 C251.852,80.046 251.867,80.303 251.867,80.308 L253.834,80.308 L253.834,80.309 Z M238.436,52.853 C239.129,52.353 239.799,51.823 240.469,51.253 C241.135,50.68 241.754,50.103 242.332,49.552 C242.912,48.986 243.43,48.477 243.873,48.014 C244.314,47.557 244.656,47.179 244.916,46.905 C245.17,46.628 245.289,46.487 245.301,46.477 L244.071,45.253 C244.071,45.26 243.934,45.403 243.675,45.676 C243.409,45.946 243.034,46.311 242.548,46.78 C242.044,47.255 241.456,47.778 240.763,48.358 C240.07,48.938 239.292,49.538 238.437,50.155 C237.574,49.538 236.804,48.938 236.103,48.358 C235.41,47.778 234.82,47.255 234.332,46.78 C233.838,46.311 233.463,45.946 233.197,45.676 C232.937,45.403 232.799,45.26 232.799,45.253 L231.572,46.477 C231.58,46.487 231.701,46.627 231.955,46.905 C232.205,47.178 232.555,47.557 233,48.014 C233.441,48.477 233.959,48.986 234.541,49.552 C235.117,50.103 235.738,50.68 236.4,51.253 C237.07,51.822 237.74,52.353 238.436,52.853 L238.436,52.853 Z M231.961,78.838 C231.969,78.835 232.111,78.62 232.395,78.195 C232.67,77.777 233.057,77.224 233.532,76.518 C234.003,75.814 234.548,75.039 235.137,74.181 C235.737,73.322 236.342,72.452 236.979,71.56 C237.61,70.664 238.227,69.83 238.825,69.034 C239.571,68.043 240.341,67.003 241.143,65.896 C241.938,64.792 242.729,63.664 243.522,62.503 C244.315,61.352 245.077,60.208 245.795,59.069 C246.52,57.935 247.166,56.836 247.746,55.798 C247.746,55.798 247.564,55.777 247.207,55.743 C246.855,55.71 246.367,55.669 245.742,55.62 C245.125,55.575 244.412,55.524 243.621,55.475 C242.82,55.424 241.98,55.385 241.098,55.352 C240.216,55.319 239.327,55.303 238.436,55.303 C237.323,55.303 236.27,55.326 235.268,55.377 C234.268,55.424 233.385,55.483 232.616,55.55 C231.839,55.612 231.227,55.668 230.786,55.718 C230.337,55.756 230.108,55.797 230.108,55.797 L230.1,57.506 C230.1,57.506 230.336,57.492 230.778,57.469 C231.227,57.444 231.839,57.418 232.616,57.385 C233.386,57.356 234.268,57.328 235.268,57.305 C236.27,57.28 237.323,57.267 238.436,57.267 L244.413,57.267 C244.405,57.276 244.272,57.485 243.979,57.909 C243.706,58.327 243.325,58.88 242.842,59.589 C242.371,60.29 241.836,61.068 241.237,61.925 C240.637,62.783 240.032,63.657 239.395,64.544 C238.766,65.439 238.147,66.278 237.549,67.073 C236.811,68.059 236.041,69.104 235.24,70.208 C234.435,71.313 233.644,72.438 232.851,73.603 C232.058,74.753 231.296,75.896 230.58,77.034 C229.859,78.174 229.209,79.266 228.627,80.308 C228.627,80.308 228.816,80.331 229.174,80.359 C229.526,80.396 230.016,80.434 230.633,80.485 C231.26,80.534 231.961,80.585 232.76,80.631 C233.553,80.682 234.395,80.721 235.276,80.754 C236.167,80.786 237.055,80.802 237.946,80.802 C239.051,80.802 240.145,80.778 241.19,80.729 C242.233,80.682 243.172,80.624 244.018,80.555 C244.852,80.493 245.518,80.435 246.01,80.384 C246.506,80.337 246.766,80.309 246.766,80.309 L246.772,78.592 C246.772,78.592 246.506,78.615 246.01,78.637 C245.518,78.658 244.852,78.688 244.018,78.718 C243.172,78.751 242.233,78.776 241.19,78.802 C240.145,78.824 239.051,78.838 237.946,78.838 L231.961,78.838 L231.961,78.838 Z M222.693,55.799 L222.693,69.034 C222.699,70.279 222.576,71.47 222.334,72.637 C222.09,73.799 221.678,74.842 221.107,75.778 C220.527,76.71 219.74,77.451 218.763,78.004 C217.781,78.546 216.556,78.825 215.097,78.839 C213.447,78.836 212.128,78.532 211.111,77.951 C210.099,77.371 209.328,76.568 208.808,75.563 C208.283,74.555 207.933,73.405 207.742,72.116 C207.568,70.831 207.476,69.479 207.49,68.054 L207.49,55.799 L205.529,55.799 C205.529,55.799 205.513,56.022 205.5,56.445 C205.477,56.873 205.438,57.434 205.4,58.158 C205.369,58.865 205.324,59.67 205.289,60.547 C205.24,61.426 205.201,62.324 205.172,63.236 C205.127,64.158 205.094,65.037 205.08,65.875 C205.06,66.703 205.041,67.43 205.041,68.054 C205.033,68.879 205.072,69.76 205.156,70.702 C205.232,71.644 205.4,72.59 205.633,73.539 C205.865,74.492 206.207,75.398 206.67,76.269 C207.119,77.133 207.713,77.906 208.459,78.591 C209.191,79.266 210.107,79.806 211.195,80.199 C212.289,80.589 213.586,80.794 215.097,80.801 C216.478,80.794 217.634,80.589 218.587,80.202 C219.54,79.816 220.347,79.278 220.991,78.619 C221.647,77.958 222.21,77.212 222.692,76.386 C222.819,77.359 222.944,78.136 223.063,78.71 C223.163,79.29 223.254,79.694 223.323,79.942 C223.393,80.199 223.423,80.319 223.423,80.307 L224.991,80.307 C224.991,80.319 225.009,80.11 225.038,79.68 C225.065,79.252 225.081,78.537 225.1,77.533 C225.121,76.526 225.137,75.171 225.137,73.446 C225.137,72.128 225.121,70.78 225.108,69.416 C225.088,68.042 225.053,66.694 225.008,65.38 C224.977,64.067 224.94,62.831 224.904,61.677 C224.855,60.525 224.816,59.502 224.779,58.628 C224.744,57.745 224.709,57.054 224.679,56.551 C224.667,56.054 224.648,55.798 224.648,55.798 L222.693,55.798 L222.693,55.799 Z M183.861,57.756 C184.615,57.629 185.539,57.508 186.634,57.42 C187.728,57.322 189.001,57.269 190.472,57.269 C192.118,57.278 193.441,57.575 194.456,58.159 C195.468,58.736 196.237,59.537 196.767,60.548 C197.283,61.556 197.632,62.704 197.816,63.995 C198.004,65.276 198.095,66.63 198.08,68.055 C198.096,69.48 198.004,70.831 197.816,72.117 C197.632,73.406 197.283,74.556 196.767,75.564 C196.238,76.569 195.468,77.361 194.456,77.952 C193.44,78.533 192.118,78.837 190.472,78.84 L183.861,78.84 L183.861,57.756 L183.861,57.756 Z M190.473,55.305 C188.957,55.313 187.657,55.419 186.561,55.606 C185.471,55.799 184.569,56.006 183.862,56.239 C183.862,54.96 183.866,53.708 183.883,52.484 C183.9,51.26 183.922,50.103 183.945,49.037 C183.963,47.956 183.992,47.011 184.013,46.185 C184.034,45.36 184.06,44.718 184.075,44.245 C184.096,43.782 184.104,43.544 184.104,43.535 L181.895,43.535 C181.895,43.544 181.883,43.838 181.86,44.411 C181.84,44.975 181.805,45.761 181.764,46.746 C181.735,47.746 181.692,48.873 181.645,50.154 C181.608,51.431 181.567,52.784 181.532,54.219 C181.495,55.642 181.456,57.077 181.434,58.516 C181.418,59.964 181.407,61.336 181.407,62.656 C181.407,63.97 181.419,65.314 181.434,66.689 C181.455,68.06 181.495,69.404 181.532,70.724 C181.567,72.038 181.608,73.275 181.645,74.425 C181.692,75.584 181.735,76.591 181.764,77.476 C181.805,78.359 181.84,79.044 181.86,79.554 C181.883,80.046 181.895,80.303 181.895,80.308 C181.895,80.308 182.127,80.336 182.581,80.383 C183.03,80.434 183.655,80.491 184.433,80.554 C185.226,80.622 186.136,80.681 187.165,80.728 C188.202,80.777 189.308,80.801 190.472,80.801 C191.978,80.794 193.281,80.589 194.376,80.199 C195.46,79.805 196.376,79.265 197.114,78.591 C197.856,77.905 198.452,77.133 198.901,76.269 C199.358,75.398 199.7,74.492 199.938,73.539 C200.174,72.59 200.334,71.644 200.411,70.702 C200.495,69.76 200.532,68.879 200.524,68.054 C200.532,67.225 200.495,66.34 200.411,65.404 C200.335,64.466 200.175,63.519 199.938,62.57 C199.7,61.614 199.358,60.708 198.901,59.839 C198.452,58.974 197.856,58.196 197.114,57.515 C196.376,56.838 195.46,56.3 194.376,55.91 C193.281,55.514 191.979,55.312 190.473,55.305 L190.473,55.305 Z M173.314,78.838 L166.695,78.838 C165.174,78.835 163.939,78.688 163.002,78.393 C162.055,78.101 161.336,77.694 160.844,77.203 C160.346,76.71 160.012,76.163 159.836,75.556 C159.66,74.943 159.576,74.326 159.584,73.693 C159.576,73.072 159.66,72.461 159.836,71.854 C160.012,71.252 160.346,70.697 160.844,70.197 C161.336,69.699 162.055,69.305 163.002,69.003 C163.94,68.705 165.174,68.554 166.695,68.549 L173.314,68.549 L173.314,78.838 L173.314,78.838 Z M159.096,56.286 L159.096,58.001 C159.1,57.994 159.303,57.961 159.698,57.887 C160.096,57.811 160.636,57.736 161.337,57.634 C162.025,57.537 162.833,57.453 163.757,57.384 C164.665,57.307 165.648,57.269 166.696,57.269 C167.983,57.269 169.05,57.454 169.897,57.831 C170.758,58.219 171.436,58.803 171.932,59.597 C172.438,60.39 172.797,61.406 172.998,62.644 C173.219,63.885 173.322,65.359 173.314,67.076 C173.314,67.076 173.082,67.049 172.658,67.005 C172.236,66.949 171.687,66.895 171.017,66.832 C170.345,66.764 169.628,66.705 168.867,66.658 C168.109,66.607 167.381,66.584 166.695,66.584 C164.992,66.592 163.554,66.764 162.408,67.1 C161.258,67.432 160.332,67.875 159.629,68.421 C158.92,68.973 158.395,69.561 158.022,70.197 C157.665,70.832 157.424,71.459 157.303,72.069 C157.18,72.677 157.131,73.221 157.139,73.693 C157.131,74.129 157.18,74.644 157.303,75.242 C157.424,75.842 157.664,76.467 158.022,77.109 C158.395,77.753 158.92,78.349 159.629,78.906 C160.332,79.463 161.258,79.922 162.408,80.263 C163.554,80.619 164.992,80.796 166.695,80.803 C168.543,80.796 170.115,80.755 171.388,80.671 C172.658,80.599 173.624,80.52 174.281,80.444 C174.945,80.36 175.279,80.321 175.279,80.309 C175.279,80.304 175.297,80.043 175.326,79.547 C175.357,79.039 175.394,78.359 175.447,77.51 C175.494,76.652 175.549,75.698 175.592,74.634 C175.647,73.57 175.684,72.473 175.717,71.335 C175.746,70.209 175.768,69.113 175.768,68.054 C175.776,66.77 175.739,65.508 175.647,64.276 C175.549,63.046 175.34,61.889 175.03,60.813 C174.71,59.734 174.227,58.778 173.581,57.954 C172.915,57.137 172.032,56.486 170.911,56.019 C169.806,55.552 168.391,55.313 166.696,55.305 C165.647,55.313 164.665,55.362 163.757,55.463 C162.833,55.557 162.025,55.664 161.337,55.799 C160.636,55.926 160.097,56.034 159.698,56.127 C159.303,56.223 159.1,56.277 159.096,56.286 L159.096,56.286 Z M139.675,55.799 C139.675,55.786 139.659,55.992 139.638,56.417 C139.622,56.851 139.594,57.563 139.57,58.574 C139.547,59.574 139.534,60.934 139.534,62.656 C139.534,63.97 139.547,65.322 139.57,66.689 C139.586,68.06 139.623,69.412 139.66,70.724 C139.694,72.038 139.736,73.275 139.778,74.425 C139.814,75.584 139.862,76.591 139.899,77.476 C139.93,78.359 139.959,79.044 139.988,79.554 C140.004,80.046 140.018,80.303 140.018,80.308 L141.979,80.308 L141.979,67.074 C141.971,65.83 142.094,64.629 142.342,63.47 C142.58,62.306 142.992,61.261 143.576,60.325 C144.142,59.393 144.933,58.653 145.916,58.106 C146.891,57.561 148.119,57.276 149.578,57.267 C150.805,57.276 151.842,57.313 152.683,57.385 C153.515,57.469 154.146,57.55 154.574,57.627 C155,57.703 155.22,57.744 155.22,57.754 L155.22,56.086 C155.212,56.078 154.96,56.004 154.462,55.885 C153.978,55.756 153.304,55.629 152.458,55.508 C151.62,55.377 150.651,55.311 149.577,55.303 C148.202,55.311 147.034,55.512 146.083,55.902 C145.136,56.29 144.337,56.813 143.679,57.485 C143.027,58.147 142.466,58.887 141.978,59.716 C141.849,58.744 141.726,57.966 141.613,57.385 C141.508,56.813 141.416,56.403 141.353,56.153 C141.277,55.907 141.248,55.785 141.248,55.798 L139.675,55.798 L139.675,55.799 Z M113.791,47.459 L121.632,47.459 C123.491,47.465 125.031,47.754 126.284,48.304 C127.526,48.865 128.527,49.642 129.281,50.635 C130.043,51.635 130.599,52.783 130.991,54.111 C131.372,55.425 131.63,56.857 131.759,58.394 C131.882,59.925 131.935,61.513 131.927,63.148 C131.935,64.781 131.882,66.368 131.759,67.904 C131.63,69.441 131.372,70.873 130.991,72.191 C130.599,73.518 130.043,74.664 129.281,75.66 C128.527,76.658 127.526,77.436 126.284,77.994 C125.031,78.545 123.491,78.835 121.632,78.838 L113.983,78.838 C113.983,78.835 113.975,78.554 113.967,78.036 C113.959,77.501 113.953,76.789 113.936,75.896 C113.912,75 113.899,74.003 113.88,72.888 C113.864,71.775 113.852,70.635 113.835,69.456 C113.822,68.29 113.814,67.153 113.807,66.068 C113.791,64.971 113.791,64 113.791,63.147 L113.791,47.459 L113.791,47.459 Z M121.631,80.802 C123.622,80.795 125.324,80.526 126.733,80.004 C128.143,79.488 129.318,78.769 130.251,77.859 C131.196,76.95 131.935,75.904 132.491,74.735 C133.051,73.56 133.469,72.312 133.736,70.994 C134.002,69.68 134.185,68.346 134.264,67.006 C134.342,65.674 134.39,64.384 134.382,63.149 C134.39,61.905 134.342,60.61 134.264,59.269 C134.185,57.924 134.001,56.596 133.736,55.278 C133.468,53.966 133.05,52.725 132.491,51.546 C131.934,50.374 131.196,49.329 130.251,48.431 C129.318,47.527 128.144,46.806 126.733,46.291 C125.325,45.777 123.623,45.506 121.631,45.498 C119.458,45.506 117.646,45.547 116.193,45.623 C114.732,45.702 113.645,45.784 112.922,45.858 C112.194,45.942 111.821,45.979 111.821,45.985 C111.821,46 111.81,46.244 111.79,46.727 C111.766,47.205 111.729,47.875 111.689,48.727 C111.661,49.579 111.622,50.57 111.577,51.69 C111.54,52.799 111.493,53.997 111.459,55.28 C111.425,56.554 111.388,57.871 111.361,59.203 C111.34,60.55 111.333,61.864 111.333,63.151 C111.333,64.446 111.341,65.756 111.361,67.092 C111.387,68.428 111.424,69.738 111.459,71.022 C111.493,72.304 111.54,73.497 111.577,74.621 C111.622,75.738 111.661,76.725 111.689,77.581 C111.729,78.427 111.765,79.097 111.79,79.581 C111.811,80.063 111.821,80.307 111.821,80.311 C111.821,80.323 112.194,80.362 112.922,80.446 C113.645,80.521 114.732,80.6 116.193,80.673 C117.646,80.754 119.458,80.795 121.631,80.802 L121.631,80.802 Z M111.823,0.205 C111.823,0.218 111.812,0.468 111.792,0.97 C111.768,1.466 111.731,2.152 111.691,3.019 C111.663,3.892 111.624,4.904 111.579,6.026 C111.542,7.162 111.495,8.366 111.461,9.645 C111.427,10.93 111.39,12.231 111.363,13.545 C111.342,14.856 111.335,16.135 111.335,17.371 C111.335,18.604 111.343,19.881 111.363,21.192 C111.389,22.506 111.426,23.809 111.461,25.085 C111.495,26.366 111.542,27.575 111.579,28.703 C111.624,29.842 111.663,30.844 111.691,31.709 C111.731,32.588 111.767,33.275 111.792,33.768 C111.813,34.268 111.823,34.523 111.823,34.531 L114.032,34.531 C114.032,34.523 114.024,34.268 114.011,33.768 C114.003,33.275 113.982,32.588 113.966,31.709 C113.952,30.844 113.935,29.842 113.91,28.703 C113.879,27.575 113.863,26.366 113.85,25.085 C113.826,23.809 113.821,22.506 113.805,21.192 C113.789,19.881 113.789,18.604 113.789,17.371 L113.789,3.149 L119.326,18.055 C119.76,19.223 120.209,20.432 120.677,21.692 C121.134,22.948 121.591,24.194 122.034,25.421 C122.472,26.655 122.896,27.814 123.293,28.902 C123.679,29.993 124.033,30.96 124.336,31.808 C124.635,32.652 124.877,33.318 125.045,33.798 C125.213,34.277 125.308,34.525 125.308,34.532 L128.25,34.532 C128.25,34.524 128.342,34.276 128.51,33.798 C128.686,33.318 128.922,32.652 129.227,31.808 C129.521,30.96 129.873,29.994 130.27,28.902 C130.662,27.814 131.077,26.655 131.531,25.421 C131.98,24.194 132.429,22.948 132.889,21.692 C133.351,20.432 133.8,19.223 134.237,18.055 L139.777,3.149 L139.777,34.532 L141.734,34.532 C141.734,34.524 141.754,34.269 141.781,33.769 C141.789,33.276 141.83,32.589 141.865,31.71 C141.894,30.845 141.941,29.843 141.978,28.704 C142.025,27.576 142.062,26.367 142.093,25.086 C142.13,23.81 142.173,22.507 142.185,21.193 C142.21,19.882 142.222,18.605 142.222,17.372 C142.222,16.137 142.21,14.857 142.185,13.546 C142.173,12.232 142.13,10.931 142.093,9.646 C142.062,8.367 142.025,7.163 141.978,6.027 C141.941,4.904 141.894,3.892 141.865,3.02 C141.83,2.153 141.789,1.467 141.781,0.971 C141.754,0.469 141.734,0.219 141.734,0.206 L138.645,0.206 C138.645,0.219 138.551,0.469 138.349,0.953 C138.16,1.441 137.9,2.109 137.558,2.964 C137.222,3.818 136.841,4.792 136.402,5.892 C135.979,6.999 135.519,8.16 135.023,9.394 C134.545,10.628 134.062,11.871 133.576,13.121 C133.088,14.378 132.628,15.581 132.171,16.73 C132.003,17.173 131.784,17.779 131.504,18.538 C131.233,19.298 130.929,20.156 130.595,21.105 C130.251,22.05 129.914,23.037 129.563,24.048 C129.206,25.06 128.864,26.038 128.541,26.999 C128.2,27.944 127.911,28.798 127.651,29.573 C127.385,30.328 127.175,30.932 127.025,31.384 C126.865,31.837 126.789,32.075 126.779,32.083 C126.779,32.075 126.697,31.845 126.545,31.395 C126.39,30.94 126.188,30.337 125.917,29.58 C125.654,28.821 125.36,27.963 125.032,27.012 C124.695,26.067 124.362,25.085 124.002,24.073 C123.645,23.059 123.309,22.077 122.973,21.128 C122.637,20.173 122.334,19.312 122.061,18.552 C121.775,17.782 121.557,17.178 121.389,16.729 C120.948,15.58 120.472,14.377 119.994,13.12 C119.497,11.87 119.014,10.627 118.536,9.393 C118.055,8.159 117.59,6.998 117.156,5.891 C116.728,4.791 116.337,3.817 116.001,2.963 C115.667,2.108 115.407,1.44 115.21,0.952 C115.013,0.468 114.911,0.218 114.911,0.205 L111.823,0.205 L111.823,0.205 Z M111.823,0.205" id="Shape" fill="#1D1E1C"></path>
            <path d="M32.955,2.749 L35.523,6.767 L36.479,6.53 L39.577,1.739 C37.62,2.012 35.066,2.395 32.955,2.749" id="SVGID_3_" fill="#8F4449"></path>
            <path d="M35.831,6.767 L63.623,6.767 L59.176,0.246 C53.689,0.227 46.801,0.731 39.217,1.789 L35.831,6.767 L35.831,6.767 Z M35.831,6.767" id="SVGID_5_" fill="#E3555E"></path>
            <path d="M58.884,0.243 L63.321,6.767 L64.432,6.53 L67.757,0.856 C65.228,0.499 62.026,0.256 58.884,0.243" id="SVGID_7_" fill="#EFE88D"></path>
            <path d="M63.459,6.767 L81.784,6.767 C78.574,3.755 73.987,1.739 67.505,0.815 L63.459,6.767 L63.459,6.767 Z M63.459,6.767" id="SVGID_9_" fill="#968E34"></path>
            <path d="M21.667,26.616 L0.216,26.616 C0.379,19.753 2.155,13.096 9.906,8.703 L21.968,26.37 L21.667,26.616 L21.667,26.616 Z M21.667,26.616" id="SVGID_11_" fill="#E3555E"></path>
            <path d="M14.958,6.53 L35.474,6.571 L36.002,6.652 L22.437,26.616 L21.793,26.655 L9.684,8.828 C11.196,7.981 12.935,7.205 14.958,6.53" id="SVGID_13_" fill="#EFE88D"></path>
            <path d="M49.364,26.616 L24.58,27.853 L22.008,26.616 L35.689,6.53 L36.479,6.53 L49.645,26.616 L49.364,26.616 Z M49.364,26.616" id="SVGID_15_" fill="#407859"></path>
            <path d="M35.831,6.53 L63.623,6.53 L50.142,26.616 L49.503,26.616 L35.831,6.53 Z M35.831,6.53" id="SVGID_17_" fill="#5C7487"></path>
            <path d="M76.996,26.903 L50.181,27.813 L49.645,26.616 L63.321,6.53 L64.432,6.534 L77.679,25.823 L76.996,26.903 Z M76.996,26.903" id="SVGID_19_" fill="#64A8B6"></path>
            <path d="M63.459,6.53 L81.517,6.53 C83.586,8.399 85.333,11.22 86.431,13.856 L77.894,26.616 L77.138,26.616 L63.459,6.53 L63.459,6.53 Z M63.459,6.53" id="SVGID_21_" fill="#F2AEAC"></path>
            <path d="M14.272,6.767 L35.831,6.767 L33.677,2.628 C29.971,3.241 25.121,4.116 20.924,4.964 C18.415,5.468 16.216,6.073 14.272,6.767" id="SVGID_1_" fill="#64A8B6"></path>
            <path d="M88.707,26.616 L78.951,27.473 L77.343,26.616 L86.288,13.487 C87.69,16.94 88.387,21.024 88.657,25.682 C88.675,25.971 88.693,26.282 88.707,26.616" id="SVGID_23_" fill="#E3555E"></path>
            <path d="M7.986,46.97 L0.321,35.7 C0.321,32.772 0.15,29.496 0.208,26.575 L21.667,26.575 L7.986,46.97 L7.986,46.97 Z M7.986,46.97" id="Shape" fill="#F2AEAC"></path>
            <path d="M7.695,46.97 L35.481,46.97 L21.632,26.616 L7.695,46.97 Z M7.695,46.97" id="SVGID_25_" fill="#F2B15C"></path>
            <path d="M49.506,26.616 L21.632,26.616 L35.318,46.959 L36.12,46.944 L49.506,26.616 Z M49.506,26.616" id="SVGID_27_" fill="#64A8B6"></path>
            <path d="M35.481,46.944 L63.187,46.97 L49.364,26.616 L35.481,46.944 Z M35.481,46.944" id="SVGID_29_" fill="#464340"></path>
            <path d="M77.342,26.616 L49.364,26.616 L63.161,46.97 L77.342,26.616 Z M77.342,26.616" id="SVGID_31_" fill="#8F4449"></path>
            <path d="M63.145,46.944 L89.077,46.97 C89.077,46.118 89.069,45.261 89.061,44.399 L77.078,26.524 L63.145,46.944 L63.145,46.944 Z M63.145,46.944" id="SVGID_33_" fill="#EFE88D"></path>
            <path d="M88.707,26.616 L76.996,26.616 L89.066,44.705 C89.022,38.022 88.887,30.53 88.707,26.616" id="SVGID_35_" fill="#F2B15C"></path>
            <path d="M1.417,46.97 L8.025,46.97 L0.321,35.636 L0.321,36.341 C0.691,40.215 1.041,43.741 1.417,46.97" id="SVGID_37_" fill="#64A8B6"></path>
            <path d="M21.667,67.027 L5.883,67.027 C4.375,63.793 3.342,59.83 2.52,54.967 L7.698,46.943 L22.308,66.283 L21.667,67.027 L21.667,67.027 Z M21.667,67.027" id="SVGID_39_" fill="#F2B15C"></path>
            <path d="M7.453,46.944 L35.481,46.944 L36.12,46.944 L23.813,67.027 L21.8,67.027 L7.453,46.944 Z M7.453,46.944" id="SVGID_41_" fill="#8F4449"></path>
            <path d="M49.803,67.695 L22.915,68.483 L22.008,67.027 L35.689,46.944 L37.365,46.948 L50.121,66.129 L49.803,67.695 Z M49.803,67.695" id="Shape" fill="#407859"></path>
            <path d="M35.831,46.944 L63.187,46.944 L64.03,47.787 L51.361,67.027 L49.503,67.027 L35.831,46.944 Z M35.831,46.944" id="Shape" fill="#464340"></path>
            <path d="M49.645,67.027 L63.321,46.944 L65.388,46.948 L77.508,65.814 L77.138,67.027 L74.76,68.262 L51.24,67.98 L49.645,67.027 Z M49.645,67.027" id="SVGID_43_" fill="#407859"></path>
            <path d="M63.459,46.944 L89.076,46.944 C89.079,47.798 89.084,49.221 89.084,50.059 L78.527,67.028 L77.137,67.028 L63.459,46.944 L63.459,46.944 Z M63.459,46.944" id="SVGID_45_" fill="#64A8B6"></path>
            <path d="M88.601,67.027 L78.582,68.868 L77.342,67.027 L89.084,49.787 C89.087,56.142 89.019,61.817 88.869,64.344 C88.817,65.264 88.73,66.16 88.601,67.027" id="Shape" fill="#F2B15C"></path>
            <path d="M1.409,46.944 L8.025,46.944 L2.536,55.022 C2.118,52.567 1.752,49.887 1.409,46.944" id="SVGID_47_" fill="#5C7487"></path>
            <path d="M21.667,67.027 L5.883,67.027 C7.921,71.286 10.923,74.513 15.279,76.658 L16.432,77.195 L21.944,69.343 L21.667,67.027 L21.667,67.027 Z M21.667,67.027" id="SVGID_49_" fill="#64A8B6"></path>
            <path d="M30.937,80.705 L32.369,80.884 L21.8,67.027 L15.377,76.709 C19.263,78.604 24.306,79.835 30.937,80.705" id="SVGID_51_" fill="#E3555E"></path>
            <path d="M49.364,67.027 L21.667,67.027 L31.163,80.733 C31.559,80.789 31.959,80.837 32.369,80.883 L39.527,81.739 L40.803,81.893 L50.246,68.364 L49.364,67.027 L49.364,67.027 Z M49.364,67.027" id="SVGID_53_" fill="#5C7487"></path>
            <path d="M57.91,87.384 L63.623,87.384 L49.503,66.985 L39.653,81.756 L52.353,83.279 L57.91,87.384 Z M57.91,87.384" id="SVGID_55_" fill="#64A8B6"></path>
            <path d="M77.138,67.027 L49.364,67.027 L63.321,87.384 L77.679,68.748 L77.138,67.027 Z M77.138,67.027" id="SVGID_57_" fill="#8F4449"></path>
            <path d="M77.138,67.027 L84.713,76.687 L84.051,77.443 C81.33,80.312 77.384,82.064 71.947,82.273 L71.939,87.383 L63.021,87.383 L77.138,67.027 L77.138,67.027 Z M77.138,67.027" id="Shape" fill="#E3555E"></path>
            <path d="M88.601,67.027 L77.138,67.027 L83.269,75.985 L84.167,77.31 C86.544,74.736 87.99,71.054 88.601,67.027" id="SVGID_59_" fill="#EFE88D"></path>
            <path d="M57.588,87.145 L64.387,87.145 L61.952,90.373 L57.588,87.145 Z M57.588,87.145" id="SVGID_61_" fill="#8F4449"></path>
            <path d="M61.403,89.965 L63.321,87.145 L65.454,87.145 L71.311,97.293 L69.131,95.685 L61.403,89.965 Z M61.403,89.965" id="SVGID_63_" fill="#8F4449"></path>
            <path d="M63.459,87.145 L71.939,87.145 L71.931,97.751 L69.415,95.891 L63.459,87.145 Z M63.459,87.145" id="SVGID_65_" fill="#F2AEAC"></path>
            <path d="M52.866,44.42 L52.855,44.438 C52.858,44.432 52.863,44.424 52.863,44.424" id="Shape" fill="#FFFFFF"></path>
            <path d="M54.697,37.866 L57.038,28.496 L55.6,16.948 L53.315,16.43 C54.066,29.705 40.612,29.149 41.089,16.43 L38.827,17.061 L37.677,28.503 L39.892,37.866 L54.697,37.866 L54.697,37.866 Z M54.697,37.866" id="Shape" fill="#FFFFFF"></path>
            <path d="M53.701,41.846 L54.184,39.922 L40.373,39.922 L40.819,41.827 L53.701,41.846 Z M53.701,41.846" id="Shape" fill="#FFFFFF"></path>
            <path d="M41.279,43.84 C31.329,46.994 26.44,57.58 17.889,64.297 C29.749,73.229 29.773,65.83 36.371,68.656 C38.023,69.365 42.184,71.842 45.533,72.549 C48.886,73.267 51.234,71.322 54.959,71.779 C58.912,72.261 60.359,75.912 69.504,75.343 C69.078,69.011 59.033,48.261 53.167,43.983 L53.173,43.971 L48.904,43.924 L50.971,48.857 L51.041,49.036 L50.862,49.105 L49.454,49.693 L49.278,49.768 L49.205,49.589 L46.817,43.904 L46.777,43.898 L42.015,52.347 L41.923,52.516 L41.752,52.421 L40.423,51.668 L40.249,51.579 L40.349,51.409 L44.597,43.874 L41.279,43.84 L41.279,43.84 Z M41.279,43.84" id="Shape" fill="#FFFFFF"></path>
        </g>
    </g>
</svg>