<?xml version="1.0" encoding="utf-8"?>


<!-- The icon can be used freely in both personal and commercial projects with no attribution required, but always appreciated. 
You may NOT sub-license, resell, rent, redistribute or otherwise transfer the icon without express written permission from iconmonstr.com -->


<!DOCTYPE svg PUBLIC "-//W3C//DTD SVG 1.1//EN" "http://www.w3.org/Graphics/SVG/1.1/DTD/svg11.dtd">

<svg version="1.1" xmlns="http://www.w3.org/2000/svg" xmlns:xlink="http://www.w3.org/1999/xlink" x="0px" y="0px"

	 width="512px" height="512px" viewBox="0 0 512 512" enable-background="new 0 0 512 512" xml:space="preserve">

<path id="rss-circle-outline-icon" d="M256,90c44.34,0,86.026,17.267,117.38,48.62C404.733,169.974,422,211.66,422,256

	c0,44.34-17.267,86.026-48.62,117.38C342.026,404.732,300.34,422,256,422s-86.026-17.268-117.38-48.62

	C107.267,342.026,90,300.34,90,256c0-44.34,17.267-86.026,48.62-117.38C169.974,107.267,211.66,90,256,90 M256,50

	C142.229,50,50,142.229,50,256s92.229,206,206,206s206-92.229,206-206S369.771,50,256,50L256,50z M225.383,314.941

	c0,13.926-11.287,25.211-25.211,25.211s-25.211-11.285-25.211-25.211c0-13.924,11.287-25.209,25.211-25.209

	S225.383,301.018,225.383,314.941z M174.961,217.346v37.349c46.91,0.482,84.977,38.547,85.459,85.457h37.348

	C297.284,272.54,242.573,217.829,174.961,217.346z M174.961,191.199c39.655,0.173,76.912,15.689,104.972,43.75

	c28.115,28.115,43.64,65.462,43.753,105.204h37.352c-0.235-102.713-83.392-185.947-186.076-186.306V191.199z"/>

</svg>

