<?xml version="1.0" encoding="utf-8"?>
<!-- Generator: Adobe Illustrator 16.0.0, SVG Export Plug-In . SVG Version: 6.00 Build 0)  -->
<!DOCTYPE svg PUBLIC "-//W3C//DTD SVG 1.1//EN" "http://www.w3.org/Graphics/SVG/1.1/DTD/svg11.dtd">
<svg version="1.1" id="Layer_4" xmlns="http://www.w3.org/2000/svg" xmlns:xlink="http://www.w3.org/1999/xlink" x="0px" y="0px"
	 width="210px" height="267px">
<g>
	<g>
		<path fill="#C1272D" d="M103.953,22.016c0,0-0.345,7.341,2.972,8.911s3.631,1.625,3.631,1.625l25.562,8.995l0.065-8.122"/>
		<path fill="#FDB913" d="M135.325,16.288c-1.248-1.667-3.807-2.698-3.807-2.698L103.916,3l0.037,8.187l32.358,11.925
			C136.311,23.111,136.573,17.955,135.325,16.288z"/>
		<polygon fill="#006A44" points="103.888,12.153 136.247,23.949 136.183,32.458 103.897,20.984 		"/>
	</g>
	<g>
		<g>
			<polygon fill="#77031C" points="151.894,69.054 148.471,67.807 148.532,64.238 152.001,62.846 			"/>
			<g>
				<polygon fill="#930C1C" points="135.897,206.973 135.277,148.682 173.763,151.869 175.889,194.443 				"/>
				<polygon fill="#930C1C" points="169.614,113.284 171.811,150.096 134.011,146.412 132.834,105.567 				"/>
				<polygon fill="#930C1C" points="131.331,64.784 131.943,104.233 168.107,112.048 166.963,77.669 				"/>
				<polygon fill="#930C1C" points="165.2,75.471 164.894,68.067 151.956,62.821 151.849,69.03 144.944,66.514 145.052,60.25 
					130.564,54.607 130.421,62.922 				"/>
			</g>
		</g>
		<g>
			<g>
				<polygon fill="#9E0A1C" points="104.542,104.233 132.228,104.233 131.615,64.784 104.542,64.784 				"/>
				<polygon fill="#9E0A1C" points="104.478,201.122 104.478,148.642 135.562,148.682 136.183,206.973 				"/>
				<polygon fill="#9E0A1C" points="133.119,105.567 134.296,146.412 104.478,146.486 104.414,105.619 				"/>
				<polygon fill="#9E0A1C" points="130.706,62.922 130.85,54.607 108.346,54.696 108.236,61.058 104.639,61.11 104.631,62.947 				
					"/>
			</g>
			<g>
				<polygon fill="#9E0A1C" points="105.113,104.233 77.428,104.233 78.04,64.784 105.113,64.784 				"/>
				<polygon fill="#9E0A1C" points="105.177,201.122 105.177,148.642 74.094,148.682 73.473,206.973 				"/>
				<polygon fill="#9E0A1C" points="76.537,105.567 75.359,146.412 105.177,146.486 105.242,105.619 				"/>
				<polygon fill="#9E0A1C" points="78.95,62.922 78.806,54.607 101.31,54.696 101.419,61.058 105.016,61.11 105.024,62.947 				"/>
			</g>
		</g>
		<g>
			<g>
				<polygon fill="#930C1C" points="73.57,206.973 74.19,148.682 35.705,151.869 32.282,205.169 				"/>
				<polygon fill="#930C1C" points="39.853,113.284 37.657,150.096 75.456,146.412 76.634,105.567 				"/>
				<polygon fill="#930C1C" points="78.137,64.784 77.524,104.233 41.36,112.048 42.504,77.669 				"/>
				<polygon fill="#930C1C" points="44.267,75.471 44.573,68.067 57.512,62.821 57.619,69.03 64.523,66.514 64.416,60.25 
					78.903,54.607 79.046,62.922 				"/>
			</g>
			<polygon fill="#77031C" points="57.619,69.03 61.041,67.783 60.979,64.214 57.512,62.821 			"/>
		</g>
		<path fill="#FFFFFF" d="M109.707,104.631l-10.528,0.182l-0.246-14.27c0,0,0.668-5.296,5.178-5.101
			c4.509,0.194,5.333,3.885,5.348,4.756C109.473,91.07,109.707,104.631,109.707,104.631z"/>
		<path fill="#FFFFFF" d="M111.149,188.18l-0.247-30.069c0,0-0.996-4.178-7.292-4.124c-6.296,0.054-6.676,3.22-6.715,4.092
			c-0.04,0.873-0.136,29.913-0.136,29.913L111.149,188.18z"/>
		<path fill="#FFFFFF" d="M110.324,143.52l-0.565-17.042c0,0-0.828-3.909-5.328-3.613c-4.5,0.296-5.054,2.812-5.091,3.793
			c-0.038,0.981-0.249,17.057-0.249,17.057L110.324,143.52z"/>
		<g>
			<path fill="#FFFFFF" d="M61.703,107.982c-0.167-0.215,0.324-12.7,0.324-12.7s-0.555-3.859-3.528-3.099
				c-2.972,0.759-2.873,3.373-2.966,4.301c-0.092,0.928-0.432,12.701-0.432,12.701L61.703,107.982z"/>
			<path fill="#FFFFFF" d="M58.278,144.309c0,0,0.716-15.103,0.729-14.396c0.012,0.708-0.221-3.374-3.308-2.939
				c-3.086,0.435-3.421,3.055-3.509,4.255c-0.088,1.2-0.742,13.633-0.742,13.633L58.278,144.309z"/>
			<path fill="#FFFFFF" d="M57.049,176.91l0.629-17.009c0,0-0.071-4.51-3.66-4.458c-3.04,0.044-3.958,3.446-4.04,4.973
				c-0.082,1.526-0.694,16.41-0.694,16.41L57.049,176.91z"/>
		</g>
		<g>
			<path fill="#FFFFFF" d="M146.298,107.982c0.167-0.215-0.324-12.7-0.324-12.7s0.556-3.859,3.528-3.099
				c2.973,0.759,2.873,3.373,2.966,4.301c0.092,0.928,0.432,12.701,0.432,12.701L146.298,107.982z"/>
			<path fill="#FFFFFF" d="M149.722,144.309c0,0-0.716-15.103-0.729-14.396c-0.012,0.708,0.221-3.374,3.308-2.939
				c3.086,0.435,3.421,3.055,3.51,4.255c0.088,1.2,0.742,13.633,0.742,13.633L149.722,144.309z"/>
		</g>
	</g>
	<g>
		<path fill="#292C37" stroke="#FFFFFF" stroke-width="8" stroke-miterlimit="10" d="M5.747,264.047l173.802-67.324
			c0,0,13.933-5.255,20.067-15.817s6.475-40.8,6.475-40.8l-176.613,66.18c0,0-13.459,4.154-19.417,14.903
			S5.747,264.047,5.747,264.047z"/>
		<g>
			<path fill="#FFFFFF" d="M39.537,239.403l-7.709,2.987l-9.302-20.125l6.517-2.525l5.148,13.288l0.087-0.034l-0.813-14.967
				l6.662-2.581L39.537,239.403z"/>
			<path fill="#FFFFFF" d="M55.072,233.385l-6.167,2.389l-4.415-22.018l6.167-2.39L55.072,233.385z"/>
			<path fill="#FFFFFF" d="M72.528,226.623l-11.462,4.441l-4.415-22.019l6.139-2.378l3.225,16.011l5.324-2.062L72.528,226.623z"/>
			<path fill="#FFFFFF" d="M92.427,218.914l-6.342,2.457l-5.634-9.446l-0.087,0.034l2.376,10.709l-5.411,2.096l-4.415-22.018
				l6.488-2.514l5.66,9.772l0.116-0.045l-2.401-11.035l5.237-2.029L92.427,218.914z"/>
			<path fill="#FFFFFF" d="M104.587,214.203l-6.167,2.389l-4.415-22.019l6.168-2.389L104.587,214.203z"/>
			<path fill="#FFFFFF" d="M123.581,197.594c0.261,1.306,0.415,2.554,0.463,3.742c0.047,1.188-0.1,2.29-0.443,3.305
				c-0.342,1.015-0.917,1.936-1.723,2.762c-0.807,0.827-1.918,1.514-3.333,2.063c-1.145,0.443-2.208,0.676-3.192,0.7
				c-0.983,0.024-1.873-0.128-2.67-0.457c-0.796-0.328-1.493-0.817-2.091-1.469c-0.599-0.65-1.074-1.433-1.428-2.346
				c-0.15-0.388-0.284-0.789-0.399-1.202c-0.116-0.414-0.214-0.839-0.294-1.277l-2.684-13.405l6.138-2.378l2.602,12.934
				c0.07,0.353,0.14,0.678,0.21,0.974c0.07,0.297,0.15,0.562,0.241,0.795c0.18,0.466,0.416,0.8,0.705,1
				c0.29,0.201,0.628,0.227,1.016,0.076c0.659-0.255,0.999-0.717,1.02-1.384c0.021-0.667-0.074-1.53-0.283-2.588l-2.602-12.935
				l6.08-2.355L123.581,197.594z"/>
			<path fill="#FFFFFF" d="M137.104,184.914c-0.43-0.19-0.92-0.302-1.468-0.336c-0.548-0.033-1.045,0.037-1.492,0.209
				c-0.175,0.068-0.346,0.157-0.516,0.267c-0.169,0.111-0.311,0.249-0.424,0.416c-0.114,0.167-0.187,0.352-0.22,0.554
				c-0.033,0.204,0,0.431,0.097,0.683c0.136,0.35,0.371,0.583,0.706,0.699c0.334,0.117,0.884,0.239,1.648,0.367
				c0.424,0.059,0.905,0.164,1.442,0.312c0.537,0.149,1.082,0.374,1.633,0.674s1.073,0.713,1.566,1.237
				c0.493,0.524,0.897,1.194,1.213,2.01c0.504,1.302,0.704,2.509,0.6,3.622c-0.104,1.112-0.413,2.115-0.926,3.007
				c-0.514,0.892-1.186,1.661-2.018,2.306c-0.832,0.646-1.713,1.149-2.644,1.51c-1.416,0.548-2.78,0.842-4.092,0.881
				c-1.312,0.04-2.415-0.115-3.307-0.461l1.696-5.986c0.515,0.18,1.083,0.279,1.703,0.295c0.62,0.017,1.201-0.08,1.745-0.29
				c0.388-0.15,0.702-0.39,0.943-0.718c0.242-0.328,0.275-0.715,0.102-1.162c-0.127-0.33-0.373-0.587-0.733-0.771
				c-0.362-0.184-0.957-0.339-1.786-0.465c-0.544-0.079-1.092-0.197-1.643-0.353s-1.072-0.377-1.563-0.667
				c-0.492-0.29-0.944-0.679-1.356-1.167c-0.412-0.488-0.761-1.102-1.047-1.84c-0.384-0.991-0.57-2.002-0.557-3.035
				c0.012-1.032,0.228-2.016,0.647-2.949c0.419-0.934,1.037-1.787,1.853-2.561c0.815-0.774,1.834-1.397,3.056-1.871
				c1.357-0.525,2.647-0.796,3.868-0.811c1.221-0.015,2.229,0.169,3.025,0.554L137.104,184.914z"/>
			<path fill="#FFFFFF" d="M165.712,182.411c0.224,1.097,0.363,2.161,0.416,3.19c0.053,1.03-0.065,1.992-0.354,2.886
				c-0.29,0.895-0.789,1.708-1.497,2.44c-0.709,0.732-1.723,1.354-3.042,1.865c-0.873,0.338-1.703,0.515-2.489,0.528
				c-0.786,0.015-1.522-0.085-2.208-0.3c-0.685-0.215-1.309-0.543-1.87-0.985c-0.562-0.441-1.044-0.953-1.447-1.534l4.269-4.268
				c0.186,0.308,0.412,0.533,0.68,0.675c0.267,0.142,0.546,0.157,0.837,0.044c0.446-0.172,0.692-0.486,0.74-0.94
				c0.047-0.454-0.01-1.063-0.172-1.827l-2.817-13.923l6.022-2.333L165.712,182.411z"/>
			<path fill="#FFFFFF" d="M179.346,168.549c-0.431-0.189-0.92-0.302-1.468-0.335s-1.045,0.037-1.492,0.209
				c-0.174,0.068-0.346,0.157-0.515,0.267c-0.169,0.111-0.311,0.25-0.424,0.416c-0.114,0.167-0.188,0.352-0.22,0.554
				c-0.033,0.203,0,0.431,0.097,0.683c0.135,0.35,0.371,0.583,0.706,0.699c0.335,0.116,0.884,0.239,1.648,0.367
				c0.425,0.059,0.905,0.164,1.443,0.312c0.537,0.15,1.082,0.375,1.633,0.675c0.551,0.301,1.073,0.712,1.566,1.236
				c0.493,0.525,0.897,1.194,1.214,2.01c0.504,1.302,0.704,2.509,0.6,3.621c-0.104,1.113-0.413,2.116-0.927,3.007
				c-0.514,0.892-1.186,1.661-2.018,2.306c-0.832,0.646-1.712,1.15-2.644,1.511c-1.416,0.548-2.78,0.842-4.092,0.881
				s-2.414-0.114-3.307-0.461l1.696-5.986c0.516,0.18,1.083,0.279,1.704,0.295c0.62,0.017,1.201-0.08,1.745-0.29
				c0.387-0.15,0.702-0.39,0.943-0.718c0.241-0.328,0.275-0.715,0.102-1.162c-0.128-0.33-0.373-0.587-0.734-0.771
				c-0.361-0.184-0.957-0.339-1.786-0.464c-0.544-0.08-1.092-0.197-1.643-0.353s-1.072-0.377-1.563-0.667s-0.944-0.679-1.356-1.167
				c-0.412-0.488-0.761-1.102-1.047-1.84c-0.384-0.991-0.57-2.002-0.557-3.035s0.228-2.016,0.647-2.949
				c0.419-0.933,1.037-1.786,1.852-2.561c0.815-0.774,1.834-1.398,3.056-1.871c1.357-0.526,2.647-0.796,3.868-0.811
				c1.221-0.015,2.229,0.169,3.025,0.554L179.346,168.549z"/>
		</g>
	</g>
</g>
</svg>
