<?xml version="1.0" encoding="UTF-8" standalone="no"?>
<svg width="137px" height="22px" viewBox="0 0 137 22" version="1.1" xmlns="http://www.w3.org/2000/svg" xmlns:xlink="http://www.w3.org/1999/xlink">
    <!-- Generator: Sketch 42 (36781) - http://www.bohemiancoding.com/sketch -->
    <title>DB Logo With Outline</title>
    <desc>Created with Sketch.</desc>
    <defs>
        <rect id="path-1" x="0" y="0" width="137" height="22"></rect>
        <mask id="mask-2" maskContentUnits="userSpaceOnUse" maskUnits="objectBoundingBox" x="0" y="0" width="137" height="22" fill="white">
            <use xlink:href="#path-1"></use>
        </mask>
    </defs>
    <g id="Symbols" stroke="none" stroke-width="1" fill="none" fill-rule="evenodd">
        <g id="Footer" transform="translate(-987.000000, -367.000000)">
            <g id="Group-2" transform="translate(987.000000, 367.000000)">
                <g id="Group">
                    <use id="Rectangle" stroke="#FFFFFF" mask="url(#mask-2)" stroke-width="2" fill="#FFFFFF" xlink:href="#path-1"></use>
                    <g id="Logos-/-Danske-Bank" transform="translate(1.000000, 1.000000)">
                        <rect id="white-bg" fill="#FFFFFF" x="86.8215613" y="0" width="47.6765799" height="19.5"></rect>
                        <g id="Danske-Bank-Logo" stroke-width="1">
                            <path d="M86.4490162,19.9279114 L134.623896,19.9279114 L134.623896,0.0186120032 L86.4490162,0.0186120032 L86.4490162,19.9279114 Z M134.103346,0.52885809 L134.103346,19.4172693 L86.969364,19.4172693 L86.969364,0.52885809 L134.103346,0.52885809 L134.103346,0.52885809 Z" id="Fill-1" fill="#003F62"></path>
                            <polygon id="Fill-2" fill="#003F62" points="0.0629990378 0.0186120032 84.3694422 0.0186120032 84.3694422 19.9279114 0.0629990378 19.9279114"></polygon>
                            <path d="M134.103346,0.52885809 L134.103346,19.4172693 L86.969364,19.4172693 L86.969364,0.52885809 L134.103346,0.52885809" id="Fill-3"></path>
                            <path d="M29.1744102,11.3210479 C29.1744102,13.2743183 28.1127149,14.2441224 25.7135015,14.2441224 L21.9325496,14.2441224 L21.9325496,6.91495317 L25.5822535,6.91495317 C28.490911,6.91495317 29.1744102,8.29837941 29.1744102,9.80971366 L29.1744102,11.3210479 L29.1744102,11.3210479 Z M30.7302037,11.2640239 L30.7302037,10.0096937 C30.7302037,6.00276702 27.5164451,5.84555499 25.3498436,5.84555499 L20.376958,5.84555499 L20.376958,15.3277766 L25.7859908,15.3277766 C30.0319644,15.3277766 30.7302037,13.0749322 30.7302037,11.2640239 L30.7302037,11.2640239 Z" id="Fill-4" fill="#FFFFFF"></path>
                            <path d="M39.1492578,12.9895942 C39.1492578,13.5455783 39.1056431,14.0445384 38.4657587,14.2728324 C38.0873606,14.4151944 37.5496477,14.4579625 36.647873,14.4579625 C35.7465021,14.4579625 35.2083853,14.3722284 34.888746,14.1728424 C34.6708743,14.0445384 34.583241,13.8305003 34.583241,13.3743083 C34.583241,12.8036722 34.7288254,12.4757841 35.0195902,12.3476781 C35.2960186,12.2193741 35.6451383,12.1908621 36.7500445,12.1908621 L39.1492578,12.1908621 L39.1492578,12.9895942 L39.1492578,12.9895942 Z M40.6182258,15.3277766 L40.6182258,11.606168 C40.6182258,10.9072279 40.6182258,10.4086638 40.5602748,10.0520657 C40.4871797,9.68101364 40.3559317,9.4246036 40.0508306,9.19630956 C39.3525913,8.65458147 37.6223389,8.64052347 36.7645827,8.64052347 C36.1249002,8.64052347 34.3649655,8.71200148 33.725283,9.25372957 C33.5074113,9.4388596 33.4492584,9.65289764 33.4492584,9.90950568 C33.4492584,10.0805777 33.4781329,10.3086737 33.4928731,10.6084458 L34.9176206,10.6084458 C34.946899,10.4367798 34.9755716,10.0235537 35.1358961,9.86693567 C35.3246913,9.68101364 35.6594746,9.61012963 36.6333347,9.61012963 C37.753183,9.61012963 38.5386518,9.65289764 38.8582911,9.82357367 C39.163998,9.9952397 39.1492578,10.3514418 39.1492578,10.6223058 L39.1492578,11.2782799 L35.8626061,11.2782799 C34.9755716,11.2782799 33.9578948,11.2927339 33.3904996,12.048302 C33.1437534,12.3759921 33.0274475,12.7896142 33.0274475,13.3315403 C33.0274475,14.8997005 34.0158459,15.4275686 36.5467111,15.4275686 C37.8694889,15.4275686 38.7272451,15.2281826 39.2510255,14.7858505 L39.3818697,15.3277766 L40.6182258,15.3277766 L40.6182258,15.3277766 Z" id="Fill-5" fill="#FFFFFF"></path>
                            <path d="M49.4298124,15.3277766 L49.4298124,11.706158 C49.4298124,10.4512338 49.3714575,10.1803697 49.0659525,9.95227369 C48.7751878,9.73823565 48.1938601,9.61012963 47.3066236,9.61012963 C46.5211549,9.61012963 45.7219555,9.70992165 44.9655632,9.90950568 L44.9655632,15.3277766 L43.5113355,15.3277766 L43.5113355,8.69754748 L44.8201809,8.69754748 L44.9215447,9.16799556 C45.2127133,9.01078353 45.4307869,8.89713151 45.7362919,8.8111995 C46.2160538,8.66903547 46.8270637,8.59775546 47.6412051,8.59775546 C48.5716524,8.59775546 49.2842281,8.74011748 49.8364792,8.98266752 C50.374596,9.21056556 50.6655627,9.63844364 50.7818686,10.1376017 C50.8547618,10.4801418 50.8838382,10.7791218 50.8838382,11.534888 L50.8838382,15.3277766 L49.4298124,15.3277766" id="Fill-6" fill="#FFFFFF"></path>
                            <path d="M60.189725,14.9286085 C59.5211679,15.2562986 58.4307999,15.3990566 57.0050428,15.3990566 C56.0166445,15.3990566 55.2020992,15.3277766 54.5626186,15.1709606 C53.8789175,15.0143425 53.544538,14.7007105 53.5009233,14.1302724 C53.4861831,13.8305003 53.5009233,13.5596363 53.544538,13.2028402 L54.9404109,13.2028402 C54.9844295,13.5455783 54.9844295,13.6453703 54.9985639,13.7166503 C55.0565149,14.0298864 55.0278423,14.2015524 55.4058365,14.3154024 C55.7690906,14.4292524 56.3512259,14.4724165 57.0926761,14.4724165 C58.0237292,14.4724165 58.662806,14.3722284 59.099357,14.1870984 C59.4042562,14.0587944 59.5498405,13.8164423 59.5498405,13.3600523 C59.5498405,12.8325802 59.4335346,12.6185421 58.8812834,12.5328081 C58.7064207,12.5046921 58.5321637,12.5046921 58.3579068,12.4902381 C58.2557353,12.4757841 57.9360959,12.4757841 57.4270556,12.4617261 C57.1797036,12.4617261 56.9038809,12.4474701 56.5690976,12.4334121 C55.1292061,12.3621321 53.5881527,12.3053061 53.5881527,10.6365618 C53.5881527,9.13948355 54.5333402,8.61161546 57.1074163,8.61161546 C57.7612332,8.61161546 58.5761823,8.65458147 59.0561461,8.71200148 C59.6225317,8.78328149 60.0441406,8.88267751 60.3500494,9.05414554 C60.684227,9.23927557 60.800331,9.53865162 60.800331,10.0665197 C60.800331,10.2086837 60.800331,10.3514418 60.7718603,10.5795378 L59.3610453,10.5795378 L59.3030943,10.2799637 C59.2302012,9.92376168 59.2013266,9.85248167 59.0848188,9.76674766 C58.8812834,9.61012963 58.2557353,9.53865162 57.3836428,9.53865162 C56.4964064,9.53865162 56.0023081,9.58161763 55.5952374,9.72417765 C55.2168394,9.85248167 55.0565149,10.0944377 55.0565149,10.5650838 C55.0565149,10.8933678 55.1736285,11.1357199 55.3327414,11.2355119 C55.7111395,11.4636079 57.7032822,11.4350959 58.3865794,11.4491539 C59.1140972,11.4636079 59.5938591,11.520632 60.0156699,11.663192 C60.7571201,11.9198 61.0478849,12.3904461 61.0478849,13.3600523 C61.0478849,14.1443304 60.7863985,14.6290345 60.189725,14.9286085" id="Fill-7" fill="#FFFFFF"></path>
                            <polyline id="Fill-8" fill="#FFFFFF" points="69.1319538 15.3277766 65.6423725 12.1908621 65.1189958 12.1908621 65.1189958 15.3277766 63.6653738 15.3277766 63.6653738 5.84555499 65.1189958 5.84555499 65.1189958 11.2495699 65.6423725 11.2495699 68.5364917 8.69754748 70.2374657 8.69754748 66.8639884 11.620622 71.0667511 15.3277766 69.1319538 15.3277766"></polyline>
                            <path d="M78.2787275,11.3638159 L73.6113469,11.3638159 C73.6686922,10.5369678 73.8435549,10.1659157 74.1779344,9.92376168 C74.5125158,9.68101364 75.1376601,9.56716362 76.0537711,9.56716362 C77.3192037,9.56716362 77.9150696,9.83822567 78.1331432,10.4086638 C78.2207765,10.6508178 78.2787275,10.8793098 78.2787275,11.3638159 L78.2787275,11.3638159 Z M79.6168513,13.2602603 L78.1773637,13.2602603 C78.1331432,13.4602403 78.1044706,13.9730604 77.9150696,14.1583884 C77.6973999,14.3722284 77.2610508,14.4724165 76.0830495,14.4724165 C74.9347305,14.4724165 74.2946442,14.3154024 73.974399,14.0019684 C73.7276528,13.7592203 73.5820685,13.2602603 73.5820685,12.4757841 L73.5820685,12.3053061 L79.6602641,12.3053061 C79.6748024,11.976824 79.6893406,11.891684 79.6893406,11.63468 C79.6893406,10.5369678 79.5292181,9.92376168 79.0496581,9.4533136 C78.4968011,8.89713151 77.4353077,8.62606946 75.9810799,8.62606946 C74.1199834,8.62606946 72.9712605,9.03969153 72.4917005,9.95227369 C72.215474,10.4801418 72.0551495,11.2214539 72.0551495,12.1480941 C72.0551495,13.5883463 72.447682,14.5005325 73.30564,14.9571205 C73.8435549,15.2422406 74.7744061,15.3990566 75.9518015,15.4133126 C76.9406037,15.4133126 77.7260725,15.3705446 78.5985688,15.1137386 C79.4421905,14.8571305 79.645524,14.3866824 79.645524,14.0019684 C79.645524,13.9017804 79.645524,13.5740903 79.6168513,13.2602603 L79.6168513,13.2602603 Z" id="Fill-9" fill="#FFFFFF"></path>
                            <path d="M98.8117697,8.2413554 C98.8117697,9.63844364 98.0121665,9.92376168 96.3544034,9.92376168 L92.6901613,9.92376168 L92.6901613,6.91495317 L96.5434005,6.91495317 C98.0121665,6.91495317 98.8117697,7.0432572 98.8117697,8.2413554 L98.8117697,8.2413554 Z M100.730817,12.6615081 C100.730817,11.49212 100.047722,10.6223058 98.4194392,10.3799538 L98.4194392,10.3514418 C99.6838622,10.0235537 100.367563,9.38183559 100.367563,8.36946142 C100.367563,6.70111314 99.5382778,5.84555499 97.1824773,5.84555499 L91.133762,5.84555499 L91.133762,15.3277766 L97.4302331,15.3277766 C99.5528161,15.3277766 100.730817,14.3866824 100.730817,12.6615081 L100.730817,12.6615081 Z M99.1746199,12.7613002 C99.1746199,14.1158184 98.2011636,14.2441224 96.6887829,14.2441224 L92.6901613,14.2441224 L92.6901613,10.9929619 L96.8775781,10.9929619 C98.6663873,10.9929619 99.1746199,11.5634 99.1746199,12.7613002 L99.1746199,12.7613002 Z" id="Fill-10" fill="#003F62"></path>
                            <path d="M108.640831,12.9895942 C108.640831,13.5455783 108.597418,14.0445384 107.957332,14.2728324 C107.57954,14.4151944 107.042029,14.4579625 106.139648,14.4579625 C105.238681,14.4579625 104.700161,14.3722284 104.380723,14.1728424 C104.16265,14.0445384 104.075218,13.8305003 104.075218,13.3743083 C104.075218,12.8036722 104.220601,12.4757841 104.511365,12.3476781 C104.787794,12.2193741 105.13651,12.1908621 106.24182,12.1908621 L108.640831,12.1908621 L108.640831,12.9895942 L108.640831,12.9895942 Z M110.110001,15.3277766 L110.110001,11.606168 C110.110001,10.9072279 110.110001,10.4086638 110.051444,10.0520657 C109.978955,9.68101364 109.848111,9.4246036 109.543212,9.19630956 C108.845174,8.65458147 107.11472,8.64052347 106.25656,8.64052347 C105.616675,8.64052347 103.856741,8.71200148 103.217462,9.25372957 C102.999388,9.4388596 102.941235,9.65289764 102.941235,9.90950568 C102.941235,10.0805777 102.97011,10.3086737 102.984648,10.6084458 L104.410002,10.6084458 C104.438876,10.4367798 104.467953,10.0235537 104.627671,9.86693567 C104.816668,9.68101364 105.151452,9.61012963 106.125514,9.61012963 C107.244756,9.61012963 108.031033,9.65289764 108.350672,9.82357367 C108.655369,9.9952397 108.640831,10.3514418 108.640831,10.6223058 L108.640831,11.2782799 L105.354987,11.2782799 C104.467953,11.2782799 103.44967,11.2927339 102.882881,12.048302 C102.635327,12.3759921 102.519425,12.7896142 102.519425,13.3315403 C102.519425,14.8997005 103.508429,15.4275686 106.038284,15.4275686 C107.361466,15.4275686 108.22003,15.2281826 108.743003,14.7858505 L108.873847,15.3277766 L110.110001,15.3277766 L110.110001,15.3277766 Z" id="Fill-11" fill="#003F62"></path>
                            <path d="M118.558535,15.3277766 L118.558535,11.706158 C118.558535,10.4512338 118.500181,10.1803697 118.194676,9.95227369 C117.903507,9.73823565 117.322179,9.61012963 116.434943,9.61012963 C115.65008,9.61012963 114.850679,9.70992165 114.093882,9.90950568 L114.093882,15.3277766 L112.639857,15.3277766 L112.639857,8.69754748 L113.948298,8.69754748 L114.05047,9.16799556 C114.341436,9.01078353 114.559308,8.89713151 114.864813,8.8111995 C115.344373,8.66903547 115.954979,8.59775546 116.769726,8.59775546 C117.699972,8.59775546 118.412749,8.74011748 118.965606,8.98266752 C119.503117,9.21056556 119.794084,9.63844364 119.910188,10.1376017 C119.983081,10.4801418 120.012561,10.7791218 120.012561,11.534888 L120.012561,15.3277766 L118.558535,15.3277766" id="Fill-12" fill="#003F62"></path>
                            <polyline id="Fill-13" fill="#003F62" points="128.009805 15.3277766 124.520021 12.1908621 123.996241 12.1908621 123.996241 15.3277766 122.542215 15.3277766 122.542215 5.84555499 123.996241 5.84555499 123.996241 11.2495699 124.520021 11.2495699 127.413939 8.69754748 129.114711 8.69754748 125.741839 11.620622 129.943794 15.3277766 128.009805 15.3277766"></polyline>
                        </g>
                    </g>
                </g>
            </g>
        </g>
    </g>
</svg>
