<svg width="200" height="38" xmlns="http://www.w3.org/2000/svg" xmlns:xlink="http://www.w3.org/1999/xlink"><defs><path d="M.056 19.02c0 10.426 8.896 18.878 19.871 18.878 10.976 0 19.872-8.452 19.872-18.878C39.8 8.593 30.903.14 19.927.14 8.952.141.056 8.593.056 19.02" id="a"/><path d="M.056 19.02c0 10.426 8.896 18.878 19.871 18.878 10.976 0 19.872-8.452 19.872-18.878C39.8 8.593 30.903.14 19.927.14 8.952.141.056 8.593.056 19.02" id="c"/><path d="M.056 19.02c0 10.426 8.896 18.878 19.871 18.878 10.976 0 19.872-8.452 19.872-18.878C39.8 8.593 30.903.14 19.927.14 8.952.141.056 8.593.056 19.02z" id="e"/><path d="M.056 19.02c0 10.426 8.896 18.878 19.871 18.878 10.976 0 19.872-8.452 19.872-18.878C39.8 8.593 30.903.14 19.927.14 8.952.141.056 8.593.056 19.02" id="g"/><path d="M.056 19.02c0 10.426 8.896 18.878 19.871 18.878 10.976 0 19.872-8.452 19.872-18.878C39.8 8.593 30.903.14 19.927.14 8.952.141.056 8.593.056 19.02" id="i"/><path d="M.056 19.02c0 10.426 8.896 18.878 19.871 18.878 10.976 0 19.872-8.452 19.872-18.878C39.8 8.593 30.903.14 19.927.14 8.952.141.056 8.593.056 19.02" id="k"/><path d="M.056 19.02c0 10.426 8.896 18.878 19.871 18.878 10.976 0 19.872-8.452 19.872-18.878C39.8 8.593 30.903.14 19.927.14 8.952.141.056 8.593.056 19.02" id="m"/><path d="M.056 19.02c0 10.426 8.896 18.878 19.871 18.878 10.976 0 19.872-8.452 19.872-18.878C39.8 8.593 30.903.14 19.927.14 8.952.141.056 8.593.056 19.02" id="o"/><path d="M.056 19.02c0 10.426 8.896 18.878 19.871 18.878 10.976 0 19.872-8.452 19.872-18.878C39.8 8.593 30.903.14 19.927.14 8.952.141.056 8.593.056 19.02" id="q"/><path d="M.056 19.02c0 10.426 8.896 18.878 19.871 18.878 10.976 0 19.872-8.452 19.872-18.878C39.8 8.593 30.903.14 19.927.14 8.952.141.056 8.593.056 19.02" id="s"/><path d="M.056 19.02c0 10.426 8.896 18.878 19.871 18.878 10.976 0 19.872-8.452 19.872-18.878C39.8 8.593 30.903.14 19.927.14 8.952.141.056 8.593.056 19.02" id="u"/><path d="M.056 19.02c0 10.426 8.896 18.878 19.871 18.878 10.976 0 19.872-8.452 19.872-18.878C39.8 8.593 30.903.14 19.927.14 8.952.141.056 8.593.056 19.02" id="w"/><path d="M.056 19.02c0 10.426 8.896 18.878 19.871 18.878 10.976 0 19.872-8.452 19.872-18.878C39.8 8.593 30.903.14 19.927.14 8.952.141.056 8.593.056 19.02" id="y"/><path d="M.056 19.02c0 10.426 8.896 18.878 19.871 18.878 10.976 0 19.872-8.452 19.872-18.878C39.8 8.593 30.903.14 19.927.14 8.952.141.056 8.593.056 19.02" id="A"/><path d="M.056 19.02c0 10.426 8.896 18.878 19.871 18.878 10.976 0 19.872-8.452 19.872-18.878C39.8 8.593 30.903.14 19.927.14 8.952.141.056 8.593.056 19.02" id="C"/><path d="M.056 19.02c0 10.426 8.896 18.878 19.871 18.878 10.976 0 19.872-8.452 19.872-18.878C39.8 8.593 30.903.14 19.927.14 8.952.141.056 8.593.056 19.02z" id="E"/><path d="M.056 19.02c0 10.426 8.896 18.878 19.871 18.878 10.976 0 19.872-8.452 19.872-18.878C39.8 8.593 30.903.14 19.927.14 8.952.141.056 8.593.056 19.02" id="G"/><path d="M.056 19.02c0 10.426 8.896 18.878 19.871 18.878 10.976 0 19.872-8.452 19.872-18.878C39.8 8.593 30.903.14 19.927.14 8.952.141.056 8.593.056 19.02z" id="I"/><path d="M11.582.55l-3.16 2.13a1.412 1.412 0 0 0-.832-.27c-.325 0-.624.108-.862.291L3.537.55S2.812.053 2.25.748L.19 3.458s-.044.092-.067.224H.122a.763.763 0 0 0-.013.14v.007a.77.77 0 0 0 .013.142h.002a.911.911 0 0 0 .067.223l2.059 2.71c.562.696 1.287.199 1.287.199l3.19-2.153a1.418 1.418 0 0 0 1.694.022l3.161 2.131s.726.497 1.29-.199l2.055-2.71s.044-.09.067-.223h.003a.803.803 0 0 0 .012-.14v-.008a.8.8 0 0 0-.012-.14h-.003c-.023-.133-.067-.225-.067-.225L12.871.748c-.232-.286-.491-.37-.716-.37-.322 0-.573.172-.573.172" id="K"/><path d="M11.582.55l-3.16 2.13a1.412 1.412 0 0 0-.832-.27c-.325 0-.624.108-.862.291L3.537.55S2.812.053 2.25.748L.19 3.458s-.044.092-.067.224H.122a.763.763 0 0 0-.013.14v.007a.77.77 0 0 0 .013.142h.002a.911.911 0 0 0 .067.223l2.059 2.71c.562.696 1.287.199 1.287.199l3.19-2.153a1.418 1.418 0 0 0 1.694.022l3.161 2.131s.726.497 1.29-.199l2.055-2.71s.044-.09.067-.223h.003a.803.803 0 0 0 .012-.14v-.008a.8.8 0 0 0-.012-.14h-.003c-.023-.133-.067-.225-.067-.225L12.871.748c-.232-.286-.491-.37-.716-.37-.322 0-.573.172-.573.172" id="M"/><path d="M11.582.55l-3.16 2.13a1.412 1.412 0 0 0-.832-.27c-.325 0-.624.108-.862.291L3.537.55S2.812.053 2.25.748L.19 3.458s-.044.092-.067.224H.122a.763.763 0 0 0-.013.14v.007a.77.77 0 0 0 .013.142h.002a.911.911 0 0 0 .067.223l2.059 2.71c.562.696 1.287.199 1.287.199l3.19-2.153a1.418 1.418 0 0 0 1.694.022l3.161 2.131s.726.497 1.29-.199l2.055-2.71s.044-.09.067-.223h.003a.803.803 0 0 0 .012-.14v-.008a.8.8 0 0 0-.012-.14h-.003c-.023-.133-.067-.225-.067-.225L12.871.748c-.232-.286-.491-.37-.716-.37-.322 0-.573.172-.573.172" id="O"/><path d="M11.582.55l-3.16 2.13a1.412 1.412 0 0 0-.832-.27c-.325 0-.624.108-.862.291L3.537.55S2.812.053 2.25.748L.19 3.458s-.044.092-.067.224H.122a.763.763 0 0 0-.013.14v.007a.77.77 0 0 0 .013.142h.002a.911.911 0 0 0 .067.223l2.059 2.71c.562.696 1.287.199 1.287.199l3.19-2.153a1.418 1.418 0 0 0 1.694.022l3.161 2.131s.726.497 1.29-.199l2.055-2.71s.044-.09.067-.223h.003a.803.803 0 0 0 .012-.14v-.008a.8.8 0 0 0-.012-.14h-.003c-.023-.133-.067-.225-.067-.225L12.871.748c-.232-.286-.491-.37-.716-.37-.322 0-.573.172-.573.172" id="Q"/><path d="M11.582.55l-3.16 2.13a1.412 1.412 0 0 0-.832-.27c-.325 0-.624.108-.862.291L3.537.55S2.812.053 2.25.748L.19 3.458s-.044.092-.067.224H.122a.763.763 0 0 0-.013.14v.007a.77.77 0 0 0 .013.142h.002a.911.911 0 0 0 .067.223l2.059 2.71c.562.696 1.287.199 1.287.199l3.19-2.153a1.418 1.418 0 0 0 1.694.022l3.161 2.131s.726.497 1.29-.199l2.055-2.71s.044-.09.067-.223h.003a.803.803 0 0 0 .012-.14v-.008a.8.8 0 0 0-.012-.14h-.003c-.023-.133-.067-.225-.067-.225L12.871.748c-.232-.286-.491-.37-.716-.37-.322 0-.573.172-.573.172" id="S"/><path d="M11.582.55l-3.16 2.13a1.412 1.412 0 0 0-.832-.27c-.325 0-.624.108-.862.291L3.537.55S2.812.053 2.25.748L.19 3.458s-.044.092-.067.224H.122a.763.763 0 0 0-.013.14v.007a.77.77 0 0 0 .013.142h.002a.911.911 0 0 0 .067.223l2.059 2.71c.562.696 1.287.199 1.287.199l3.19-2.153a1.418 1.418 0 0 0 1.694.022l3.161 2.131s.726.497 1.29-.199l2.055-2.71s.044-.09.067-.223h.003a.803.803 0 0 0 .012-.14v-.008a.8.8 0 0 0-.012-.14h-.003c-.023-.133-.067-.225-.067-.225L12.871.748c-.232-.286-.491-.37-.716-.37-.322 0-.573.172-.573.172" id="U"/><path d="M11.582.55l-3.16 2.13a1.412 1.412 0 0 0-.832-.27c-.325 0-.624.108-.862.291L3.537.55S2.812.053 2.25.748L.19 3.458s-.044.092-.067.224H.122a.763.763 0 0 0-.013.14v.007a.77.77 0 0 0 .013.142h.002a.911.911 0 0 0 .067.223l2.059 2.71c.562.696 1.287.199 1.287.199l3.19-2.153a1.418 1.418 0 0 0 1.694.022l3.161 2.131s.726.497 1.29-.199l2.055-2.71s.044-.09.067-.223h.003a.803.803 0 0 0 .012-.14v-.008a.8.8 0 0 0-.012-.14h-.003c-.023-.133-.067-.225-.067-.225L12.871.748c-.232-.286-.491-.37-.716-.37-.322 0-.573.172-.573.172" id="W"/><path d="M11.582.55l-3.16 2.13a1.412 1.412 0 0 0-.832-.27c-.325 0-.624.108-.862.291L3.537.55S2.812.053 2.25.748L.19 3.458s-.044.092-.067.224H.122a.763.763 0 0 0-.013.14v.007a.77.77 0 0 0 .013.142h.002a.911.911 0 0 0 .067.223l2.059 2.71c.562.696 1.287.199 1.287.199l3.19-2.153a1.418 1.418 0 0 0 1.694.022l3.161 2.131s.726.497 1.29-.199l2.055-2.71s.044-.09.067-.223h.003a.803.803 0 0 0 .012-.14v-.008a.8.8 0 0 0-.012-.14h-.003c-.023-.133-.067-.225-.067-.225L12.871.748c-.232-.286-.491-.37-.716-.37-.322 0-.573.172-.573.172" id="Y"/><path d="M11.582.55l-3.16 2.13a1.412 1.412 0 0 0-.832-.27c-.325 0-.624.108-.862.291L3.537.55S2.812.053 2.25.748L.19 3.458s-.044.092-.067.224H.122a.763.763 0 0 0-.013.14v.007a.77.77 0 0 0 .013.142h.002a.911.911 0 0 0 .067.223l2.059 2.71c.562.696 1.287.199 1.287.199l3.19-2.153a1.418 1.418 0 0 0 1.694.022l3.161 2.131s.726.497 1.29-.199l2.055-2.71s.044-.09.067-.223h.003a.803.803 0 0 0 .012-.14v-.008a.8.8 0 0 0-.012-.14h-.003c-.023-.133-.067-.225-.067-.225L12.871.748c-.232-.286-.491-.37-.716-.37-.322 0-.573.172-.573.172" id="aa"/><path d="M11.582.55l-3.16 2.13a1.412 1.412 0 0 0-.832-.27c-.325 0-.624.108-.862.291L3.537.55S2.812.053 2.25.748L.19 3.458s-.044.092-.067.224H.122a.763.763 0 0 0-.013.14v.007a.77.77 0 0 0 .013.142h.002a.911.911 0 0 0 .067.223l2.059 2.71c.562.696 1.287.199 1.287.199l3.19-2.153a1.418 1.418 0 0 0 1.694.022l3.161 2.131s.726.497 1.29-.199l2.055-2.71s.044-.09.067-.223h.003a.803.803 0 0 0 .012-.14v-.008a.8.8 0 0 0-.012-.14h-.003c-.023-.133-.067-.225-.067-.225L12.871.748c-.232-.286-.491-.37-.716-.37-.322 0-.573.172-.573.172" id="ac"/><path d="M11.582.55l-3.16 2.13a1.412 1.412 0 0 0-.832-.27c-.325 0-.624.108-.862.291L3.537.55S2.812.053 2.25.748L.19 3.458s-.044.092-.067.224H.122a.763.763 0 0 0-.013.14v.007a.77.77 0 0 0 .013.142h.002a.911.911 0 0 0 .067.223l2.059 2.71c.562.696 1.287.199 1.287.199l3.19-2.153a1.418 1.418 0 0 0 1.694.022l3.161 2.131s.726.497 1.29-.199l2.055-2.71s.044-.09.067-.223h.003a.803.803 0 0 0 .012-.14v-.008a.8.8 0 0 0-.012-.14h-.003c-.023-.133-.067-.225-.067-.225L12.871.748c-.232-.286-.491-.37-.716-.37-.322 0-.573.172-.573.172" id="ae"/><path d="M11.582.55l-3.16 2.13a1.412 1.412 0 0 0-.832-.27c-.325 0-.624.108-.862.291L3.537.55S2.812.053 2.25.748L.19 3.458s-.044.092-.067.224H.122a.763.763 0 0 0-.013.14v.007a.77.77 0 0 0 .013.142h.002a.911.911 0 0 0 .067.223l2.059 2.71c.562.696 1.287.199 1.287.199l3.19-2.153a1.418 1.418 0 0 0 1.694.022l3.161 2.131s.726.497 1.29-.199l2.055-2.71s.044-.09.067-.223h.003a.803.803 0 0 0 .012-.14v-.008a.8.8 0 0 0-.012-.14h-.003c-.023-.133-.067-.225-.067-.225L12.871.748c-.232-.286-.491-.37-.716-.37-.322 0-.573.172-.573.172" id="ag"/><path d="M11.582.55l-3.16 2.13a1.412 1.412 0 0 0-.832-.27c-.325 0-.624.108-.862.291L3.537.55S2.812.053 2.25.748L.19 3.458s-.044.092-.067.224H.122a.763.763 0 0 0-.013.14v.007a.77.77 0 0 0 .013.142h.002a.911.911 0 0 0 .067.223l2.059 2.71c.562.696 1.287.199 1.287.199l3.19-2.153a1.418 1.418 0 0 0 1.694.022l3.161 2.131s.726.497 1.29-.199l2.055-2.71s.044-.09.067-.223h.003a.803.803 0 0 0 .012-.14v-.008a.8.8 0 0 0-.012-.14h-.003c-.023-.133-.067-.225-.067-.225L12.871.748c-.232-.286-.491-.37-.716-.37-.322 0-.573.172-.573.172" id="ai"/><path d="M11.582.55l-3.16 2.13a1.412 1.412 0 0 0-.832-.27c-.325 0-.624.108-.862.291L3.537.55S2.812.053 2.25.748L.19 3.458s-.044.092-.067.224H.122a.763.763 0 0 0-.013.14v.007a.77.77 0 0 0 .013.142h.002a.911.911 0 0 0 .067.223l2.059 2.71c.562.696 1.287.199 1.287.199l3.19-2.153a1.418 1.418 0 0 0 1.694.022l3.161 2.131s.726.497 1.29-.199l2.055-2.71s.044-.09.067-.223h.003a.803.803 0 0 0 .012-.14v-.008a.8.8 0 0 0-.012-.14h-.003c-.023-.133-.067-.225-.067-.225L12.871.748c-.232-.286-.491-.37-.716-.37-.322 0-.573.172-.573.172" id="ak"/><path d="M11.582.55l-3.16 2.13a1.412 1.412 0 0 0-.832-.27c-.325 0-.624.108-.862.291L3.537.55S2.812.053 2.25.748L.19 3.458s-.044.092-.067.224H.122a.763.763 0 0 0-.013.14v.007a.77.77 0 0 0 .013.142h.002a.911.911 0 0 0 .067.223l2.059 2.71c.562.696 1.287.199 1.287.199l3.19-2.153a1.418 1.418 0 0 0 1.694.022l3.161 2.131s.726.497 1.29-.199l2.055-2.71s.044-.09.067-.223h.003a.803.803 0 0 0 .012-.14v-.008a.8.8 0 0 0-.012-.14h-.003c-.023-.133-.067-.225-.067-.225L12.871.748c-.232-.286-.491-.37-.716-.37-.322 0-.573.172-.573.172" id="am"/><path d="M11.582.55l-3.16 2.13a1.412 1.412 0 0 0-.832-.27c-.325 0-.624.108-.862.291L3.537.55S2.812.053 2.25.748L.19 3.458s-.044.092-.067.224H.122a.763.763 0 0 0-.013.14v.007a.77.77 0 0 0 .013.142h.002a.911.911 0 0 0 .067.223l2.059 2.71c.562.696 1.287.199 1.287.199l3.19-2.153a1.418 1.418 0 0 0 1.694.022l3.161 2.131s.726.497 1.29-.199l2.055-2.71s.044-.09.067-.223h.003a.803.803 0 0 0 .012-.14v-.008a.8.8 0 0 0-.012-.14h-.003c-.023-.133-.067-.225-.067-.225L12.871.748c-.232-.286-.491-.37-.716-.37-.322 0-.573.172-.573.172" id="ao"/><path d="M11.582.55l-3.16 2.13a1.412 1.412 0 0 0-.832-.27c-.325 0-.624.108-.862.291L3.537.55S2.812.053 2.25.748L.19 3.458s-.044.092-.067.224H.122a.763.763 0 0 0-.013.14v.007a.77.77 0 0 0 .013.142h.002a.911.911 0 0 0 .067.223l2.059 2.71c.562.696 1.287.199 1.287.199l3.19-2.153a1.418 1.418 0 0 0 1.694.022l3.161 2.131s.726.497 1.29-.199l2.055-2.71s.044-.09.067-.223h.003a.803.803 0 0 0 .012-.14v-.008a.8.8 0 0 0-.012-.14h-.003c-.023-.133-.067-.225-.067-.225L12.871.748c-.232-.286-.491-.37-.716-.37-.322 0-.573.172-.573.172" id="aq"/><path d="M11.582.55l-3.16 2.13a1.412 1.412 0 0 0-.832-.27c-.325 0-.624.108-.862.291L3.537.55S2.812.053 2.25.748L.19 3.458s-.044.092-.067.224H.122a.763.763 0 0 0-.013.14v.007a.77.77 0 0 0 .013.142h.002a.911.911 0 0 0 .067.223l2.059 2.71c.562.696 1.287.199 1.287.199l3.19-2.153a1.418 1.418 0 0 0 1.694.022l3.161 2.131s.726.497 1.29-.199l2.055-2.71s.044-.09.067-.223h.003a.803.803 0 0 0 .012-.14v-.008a.8.8 0 0 0-.012-.14h-.003c-.023-.133-.067-.225-.067-.225L12.871.748c-.232-.286-.491-.37-.716-.37-.322 0-.573.172-.573.172" id="as"/><path d="M11.582.55l-3.16 2.13a1.412 1.412 0 0 0-.832-.27c-.325 0-.624.108-.862.291L3.537.55S2.812.053 2.25.748L.19 3.458s-.044.092-.067.224H.122a.763.763 0 0 0-.013.14v.007a.77.77 0 0 0 .013.142h.002a.911.911 0 0 0 .067.223l2.059 2.71c.562.696 1.287.199 1.287.199l3.19-2.153a1.418 1.418 0 0 0 1.694.022l3.161 2.131s.726.497 1.29-.199l2.055-2.71s.044-.09.067-.223h.003a.803.803 0 0 0 .012-.14v-.008a.8.8 0 0 0-.012-.14h-.003c-.023-.133-.067-.225-.067-.225L12.871.748c-.232-.286-.491-.37-.716-.37-.322 0-.573.172-.573.172" id="au"/><path d="M11.582.55l-3.16 2.13a1.412 1.412 0 0 0-.832-.27c-.325 0-.624.108-.862.291L3.537.55S2.812.053 2.25.748L.19 3.458s-.044.092-.067.224H.122a.763.763 0 0 0-.013.14v.007a.77.77 0 0 0 .013.142h.002a.911.911 0 0 0 .067.223l2.059 2.71c.562.696 1.287.199 1.287.199l3.19-2.153a1.418 1.418 0 0 0 1.694.022l3.161 2.131s.726.497 1.29-.199l2.055-2.71s.044-.09.067-.223h.003a.803.803 0 0 0 .012-.14v-.008a.8.8 0 0 0-.012-.14h-.003c-.023-.133-.067-.225-.067-.225L12.871.748c-.232-.286-.491-.37-.716-.37-.322 0-.573.172-.573.172" id="aw"/><path d="M11.582.55l-3.16 2.13a1.412 1.412 0 0 0-.832-.27c-.325 0-.624.108-.862.291L3.537.55S2.812.053 2.25.748L.19 3.458s-.044.092-.067.224H.122a.763.763 0 0 0-.013.14v.007a.77.77 0 0 0 .013.142h.002a.911.911 0 0 0 .067.223l2.059 2.71c.562.696 1.287.199 1.287.199l3.19-2.153a1.418 1.418 0 0 0 1.694.022l3.161 2.131s.726.497 1.29-.199l2.055-2.71s.044-.09.067-.223h.003a.803.803 0 0 0 .012-.14v-.008a.8.8 0 0 0-.012-.14h-.003c-.023-.133-.067-.225-.067-.225L12.871.748c-.232-.286-.491-.37-.716-.37-.322 0-.573.172-.573.172" id="ay"/><path d="M11.582.55l-3.16 2.13a1.412 1.412 0 0 0-.832-.27c-.325 0-.624.108-.862.291L3.537.55S2.812.053 2.25.748L.19 3.458s-.044.092-.067.224H.122a.763.763 0 0 0-.013.14v.007a.77.77 0 0 0 .013.142h.002a.911.911 0 0 0 .067.223l2.059 2.71c.562.696 1.287.199 1.287.199l3.19-2.153a1.418 1.418 0 0 0 1.694.022l3.161 2.131s.726.497 1.29-.199l2.055-2.71s.044-.09.067-.223h.003a.803.803 0 0 0 .012-.14v-.008a.8.8 0 0 0-.012-.14h-.003c-.023-.133-.067-.225-.067-.225L12.871.748c-.232-.286-.491-.37-.716-.37-.322 0-.573.172-.573.172" id="aA"/><path d="M11.582.55l-3.16 2.13a1.412 1.412 0 0 0-.832-.27c-.325 0-.624.108-.862.291L3.537.55S2.812.053 2.25.748L.19 3.458s-.044.092-.067.224H.122a.763.763 0 0 0-.013.14v.007a.77.77 0 0 0 .013.142h.002a.911.911 0 0 0 .067.223l2.059 2.71c.562.696 1.287.199 1.287.199l3.19-2.153a1.418 1.418 0 0 0 1.694.022l3.161 2.131s.726.497 1.29-.199l2.055-2.71s.044-.09.067-.223h.003a.803.803 0 0 0 .012-.14v-.008a.8.8 0 0 0-.012-.14h-.003c-.023-.133-.067-.225-.067-.225L12.871.748c-.232-.286-.491-.37-.716-.37-.322 0-.573.172-.573.172" id="aC"/><path d="M11.582.55l-3.16 2.13a1.412 1.412 0 0 0-.832-.27c-.325 0-.624.108-.862.291L3.537.55S2.812.053 2.25.748L.19 3.458s-.044.092-.067.224H.122a.763.763 0 0 0-.013.14v.007a.77.77 0 0 0 .013.142h.002a.911.911 0 0 0 .067.223l2.059 2.71c.562.696 1.287.199 1.287.199l3.19-2.153a1.418 1.418 0 0 0 1.694.022l3.161 2.131s.726.497 1.29-.199l2.055-2.71s.044-.09.067-.223h.003a.803.803 0 0 0 .012-.14v-.008a.8.8 0 0 0-.012-.14h-.003c-.023-.133-.067-.225-.067-.225L12.871.748c-.232-.286-.491-.37-.716-.37-.322 0-.573.172-.573.172" id="aE"/><path d="M11.582.55l-3.16 2.13a1.412 1.412 0 0 0-.832-.27c-.325 0-.624.108-.862.291L3.537.55S2.812.053 2.25.748L.19 3.458s-.044.092-.067.224H.122a.763.763 0 0 0-.013.14v.007a.77.77 0 0 0 .013.142h.002a.911.911 0 0 0 .067.223l2.059 2.71c.562.696 1.287.199 1.287.199l3.19-2.153a1.418 1.418 0 0 0 1.694.022l3.161 2.131s.726.497 1.29-.199l2.055-2.71s.044-.09.067-.223h.003a.803.803 0 0 0 .012-.14v-.008a.8.8 0 0 0-.012-.14h-.003c-.023-.133-.067-.225-.067-.225L12.871.748c-.232-.286-.491-.37-.716-.37-.322 0-.573.172-.573.172" id="aG"/><path d="M11.582.55l-3.16 2.13a1.412 1.412 0 0 0-.832-.27c-.325 0-.624.108-.862.291L3.537.55S2.812.053 2.25.748L.19 3.458s-.044.092-.067.224H.122a.763.763 0 0 0-.013.14v.007a.77.77 0 0 0 .013.142h.002a.911.911 0 0 0 .067.223l2.059 2.71c.562.696 1.287.199 1.287.199l3.19-2.153a1.418 1.418 0 0 0 1.694.022l3.161 2.131s.726.497 1.29-.199l2.055-2.71s.044-.09.067-.223h.003a.803.803 0 0 0 .012-.14v-.008a.8.8 0 0 0-.012-.14h-.003c-.023-.133-.067-.225-.067-.225L12.871.748c-.232-.286-.491-.37-.716-.37-.322 0-.573.172-.573.172" id="aI"/><path d="M11.582.55l-3.16 2.13a1.412 1.412 0 0 0-.832-.27c-.325 0-.624.108-.862.291L3.537.55S2.812.053 2.25.748L.19 3.458s-.044.092-.067.224H.122a.763.763 0 0 0-.013.14v.007a.77.77 0 0 0 .013.142h.002a.911.911 0 0 0 .067.223l2.059 2.71c.562.696 1.287.199 1.287.199l3.19-2.153a1.418 1.418 0 0 0 1.694.022l3.161 2.131s.726.497 1.29-.199l2.055-2.71s.044-.09.067-.223h.003a.803.803 0 0 0 .012-.14v-.008a.8.8 0 0 0-.012-.14h-.003c-.023-.133-.067-.225-.067-.225L12.871.748c-.232-.286-.491-.37-.716-.37-.322 0-.573.172-.573.172" id="aK"/><path d="M11.582.55l-3.16 2.13a1.412 1.412 0 0 0-.832-.27c-.325 0-.624.108-.862.291L3.537.55S2.812.053 2.25.748L.19 3.458s-.044.092-.067.224H.122a.763.763 0 0 0-.013.14v.007a.77.77 0 0 0 .013.142h.002a.911.911 0 0 0 .067.223l2.059 2.71c.562.696 1.287.199 1.287.199l3.19-2.153a1.418 1.418 0 0 0 1.694.022l3.161 2.131s.726.497 1.29-.199l2.055-2.71s.044-.09.067-.223h.003a.803.803 0 0 0 .012-.14v-.008a.8.8 0 0 0-.012-.14h-.003c-.023-.133-.067-.225-.067-.225L12.871.748c-.232-.286-.491-.37-.716-.37-.322 0-.573.172-.573.172" id="aM"/><path d="M11.582.55l-3.16 2.13a1.412 1.412 0 0 0-.832-.27c-.325 0-.624.108-.862.291L3.537.55S2.812.053 2.25.748L.19 3.458s-.044.092-.067.224H.122a.763.763 0 0 0-.013.14v.007a.77.77 0 0 0 .013.142h.002a.911.911 0 0 0 .067.223l2.059 2.71c.562.696 1.287.199 1.287.199l3.19-2.153a1.418 1.418 0 0 0 1.694.022l3.161 2.131s.726.497 1.29-.199l2.055-2.71s.044-.09.067-.223h.003a.803.803 0 0 0 .012-.14v-.008a.8.8 0 0 0-.012-.14h-.003c-.023-.133-.067-.225-.067-.225L12.871.748c-.232-.286-.491-.37-.716-.37-.322 0-.573.172-.573.172" id="aO"/><path d="M11.582.55l-3.16 2.13a1.412 1.412 0 0 0-.832-.27c-.325 0-.624.108-.862.291L3.537.55S2.812.053 2.25.748L.19 3.458s-.044.092-.067.224H.122a.763.763 0 0 0-.013.14v.007a.77.77 0 0 0 .013.142h.002a.911.911 0 0 0 .067.223l2.059 2.71c.562.696 1.287.199 1.287.199l3.19-2.153a1.418 1.418 0 0 0 1.694.022l3.161 2.131s.726.497 1.29-.199l2.055-2.71s.044-.09.067-.223h.003a.803.803 0 0 0 .012-.14v-.008a.8.8 0 0 0-.012-.14h-.003c-.023-.133-.067-.225-.067-.225L12.871.748c-.232-.286-.491-.37-.716-.37-.322 0-.573.172-.573.172" id="aQ"/><path d="M11.582.55l-3.16 2.13a1.412 1.412 0 0 0-.832-.27c-.325 0-.624.108-.862.291L3.537.55S2.812.053 2.25.748L.19 3.458s-.044.092-.067.224H.122a.763.763 0 0 0-.013.14v.007a.77.77 0 0 0 .013.142h.002a.911.911 0 0 0 .067.223l2.059 2.71c.562.696 1.287.199 1.287.199l3.19-2.153a1.418 1.418 0 0 0 1.694.022l3.161 2.131s.726.497 1.29-.199l2.055-2.71s.044-.09.067-.223h.003a.803.803 0 0 0 .012-.14v-.008a.8.8 0 0 0-.012-.14h-.003c-.023-.133-.067-.225-.067-.225L12.871.748c-.232-.286-.491-.37-.716-.37-.322 0-.573.172-.573.172" id="aS"/><path d="M11.582.55l-3.16 2.13a1.412 1.412 0 0 0-.832-.27c-.325 0-.624.108-.862.291L3.537.55S2.812.053 2.25.748L.19 3.458s-.044.092-.067.224H.122a.763.763 0 0 0-.013.14v.007a.77.77 0 0 0 .013.142h.002a.911.911 0 0 0 .067.223l2.059 2.71c.562.696 1.287.199 1.287.199l3.19-2.153a1.418 1.418 0 0 0 1.694.022l3.161 2.131s.726.497 1.29-.199l2.055-2.71s.044-.09.067-.223h.003a.803.803 0 0 0 .012-.14v-.008a.8.8 0 0 0-.012-.14h-.003c-.023-.133-.067-.225-.067-.225L12.871.748c-.232-.286-.491-.37-.716-.37-.322 0-.573.172-.573.172" id="aU"/><path d="M11.582.55l-3.16 2.13a1.412 1.412 0 0 0-.832-.27c-.325 0-.624.108-.862.291L3.537.55S2.812.053 2.25.748L.19 3.458s-.044.092-.067.224H.122a.763.763 0 0 0-.013.14v.007a.77.77 0 0 0 .013.142h.002a.911.911 0 0 0 .067.223l2.059 2.71c.562.696 1.287.199 1.287.199l3.19-2.153a1.418 1.418 0 0 0 1.694.022l3.161 2.131s.726.497 1.29-.199l2.055-2.71s.044-.09.067-.223h.003a.803.803 0 0 0 .012-.14v-.008a.8.8 0 0 0-.012-.14h-.003c-.023-.133-.067-.225-.067-.225L12.871.748c-.232-.286-.491-.37-.716-.37-.322 0-.573.172-.573.172" id="aW"/><path d="M11.582.55l-3.16 2.13a1.412 1.412 0 0 0-.832-.27c-.325 0-.624.108-.862.291L3.537.55S2.812.053 2.25.748L.19 3.458s-.044.092-.067.224H.122a.763.763 0 0 0-.013.14v.007a.77.77 0 0 0 .013.142h.002a.911.911 0 0 0 .067.223l2.059 2.71c.562.696 1.287.199 1.287.199l3.19-2.153a1.418 1.418 0 0 0 1.694.022l3.161 2.131s.726.497 1.29-.199l2.055-2.71s.044-.09.067-.223h.003a.803.803 0 0 0 .012-.14v-.008a.8.8 0 0 0-.012-.14h-.003c-.023-.133-.067-.225-.067-.225L12.871.748c-.232-.286-.491-.37-.716-.37-.322 0-.573.172-.573.172" id="aY"/><path d="M11.582.55l-3.16 2.13a1.412 1.412 0 0 0-.832-.27c-.325 0-.624.108-.862.291L3.537.55S2.812.053 2.25.748L.19 3.458s-.044.092-.067.224H.122a.763.763 0 0 0-.013.14v.007a.77.77 0 0 0 .013.142h.002a.911.911 0 0 0 .067.223l2.059 2.71c.562.696 1.287.199 1.287.199l3.19-2.153a1.418 1.418 0 0 0 1.694.022l3.161 2.131s.726.497 1.29-.199l2.055-2.71s.044-.09.067-.223h.003a.803.803 0 0 0 .012-.14v-.008a.8.8 0 0 0-.012-.14h-.003c-.023-.133-.067-.225-.067-.225L12.871.748c-.232-.286-.491-.37-.716-.37-.322 0-.573.172-.573.172" id="ba"/><path d="M11.582.55l-3.16 2.13a1.412 1.412 0 0 0-.832-.27c-.325 0-.624.108-.862.291L3.537.55S2.812.053 2.25.748L.19 3.458s-.044.092-.067.224H.122a.763.763 0 0 0-.013.14v.007a.77.77 0 0 0 .013.142h.002a.911.911 0 0 0 .067.223l2.059 2.71c.562.696 1.287.199 1.287.199l3.19-2.153a1.418 1.418 0 0 0 1.694.022l3.161 2.131s.726.497 1.29-.199l2.055-2.71s.044-.09.067-.223h.003a.803.803 0 0 0 .012-.14v-.008a.8.8 0 0 0-.012-.14h-.003c-.023-.133-.067-.225-.067-.225L12.871.748c-.232-.286-.491-.37-.716-.37-.322 0-.573.172-.573.172" id="bc"/><path d="M11.582.55l-3.16 2.13a1.412 1.412 0 0 0-.832-.27c-.325 0-.624.108-.862.291L3.537.55S2.812.053 2.25.748L.19 3.458s-.044.092-.067.224H.122a.763.763 0 0 0-.013.14v.007a.77.77 0 0 0 .013.142h.002a.911.911 0 0 0 .067.223l2.059 2.71c.562.696 1.287.199 1.287.199l3.19-2.153a1.418 1.418 0 0 0 1.694.022l3.161 2.131s.726.497 1.29-.199l2.055-2.71s.044-.09.067-.223h.003a.803.803 0 0 0 .012-.14v-.008a.8.8 0 0 0-.012-.14h-.003c-.023-.133-.067-.225-.067-.225L12.871.748c-.232-.286-.491-.37-.716-.37-.322 0-.573.172-.573.172" id="be"/><path d="M11.582.55l-3.16 2.13a1.412 1.412 0 0 0-.832-.27c-.325 0-.624.108-.862.291L3.537.55S2.812.053 2.25.748L.19 3.458s-.044.092-.067.224H.122a.763.763 0 0 0-.013.14v.007a.77.77 0 0 0 .013.142h.002a.911.911 0 0 0 .067.223l2.059 2.71c.562.696 1.287.199 1.287.199l3.19-2.153a1.418 1.418 0 0 0 1.694.022l3.161 2.131s.726.497 1.29-.199l2.055-2.71s.044-.09.067-.223h.003a.803.803 0 0 0 .012-.14v-.008a.8.8 0 0 0-.012-.14h-.003c-.023-.133-.067-.225-.067-.225L12.871.748c-.232-.286-.491-.37-.716-.37-.322 0-.573.172-.573.172" id="bg"/><path d="M11.582.55l-3.16 2.13a1.412 1.412 0 0 0-.832-.27c-.325 0-.624.108-.862.291L3.537.55S2.812.053 2.25.748L.19 3.458s-.044.092-.067.224H.122a.763.763 0 0 0-.013.14v.007a.77.77 0 0 0 .013.142h.002a.911.911 0 0 0 .067.223l2.059 2.71c.562.696 1.287.199 1.287.199l3.19-2.153a1.418 1.418 0 0 0 1.694.022l3.161 2.131s.726.497 1.29-.199l2.055-2.71s.044-.09.067-.223h.003a.803.803 0 0 0 .012-.14v-.008a.8.8 0 0 0-.012-.14h-.003c-.023-.133-.067-.225-.067-.225L12.871.748c-.232-.286-.491-.37-.716-.37-.322 0-.573.172-.573.172" id="bi"/><path d="M11.582.55l-3.16 2.13a1.412 1.412 0 0 0-.832-.27c-.325 0-.624.108-.862.291L3.537.55S2.812.053 2.25.748L.19 3.458s-.044.092-.067.224H.122a.763.763 0 0 0-.013.14v.007a.77.77 0 0 0 .013.142h.002a.911.911 0 0 0 .067.223l2.059 2.71c.562.696 1.287.199 1.287.199l3.19-2.153a1.418 1.418 0 0 0 1.694.022l3.161 2.131s.726.497 1.29-.199l2.055-2.71s.044-.09.067-.223h.003a.803.803 0 0 0 .012-.14v-.008a.8.8 0 0 0-.012-.14h-.003c-.023-.133-.067-.225-.067-.225L12.871.748c-.232-.286-.491-.37-.716-.37-.322 0-.573.172-.573.172" id="bk"/><path d="M11.582.55l-3.16 2.13a1.412 1.412 0 0 0-.832-.27c-.325 0-.624.108-.862.291L3.537.55S2.812.053 2.25.748L.19 3.458s-.044.092-.067.224H.122a.763.763 0 0 0-.013.14v.007a.77.77 0 0 0 .013.142h.002a.911.911 0 0 0 .067.223l2.059 2.71c.562.696 1.287.199 1.287.199l3.19-2.153a1.418 1.418 0 0 0 1.694.022l3.161 2.131s.726.497 1.29-.199l2.055-2.71s.044-.09.067-.223h.003a.803.803 0 0 0 .012-.14v-.008a.8.8 0 0 0-.012-.14h-.003c-.023-.133-.067-.225-.067-.225L12.871.748c-.232-.286-.491-.37-.716-.37-.322 0-.573.172-.573.172" id="bm"/><path d="M11.582.55l-3.16 2.13a1.412 1.412 0 0 0-.832-.27c-.325 0-.624.108-.862.291L3.537.55S2.812.053 2.25.748L.19 3.458s-.044.092-.067.224H.122a.763.763 0 0 0-.013.14v.007a.77.77 0 0 0 .013.142h.002a.911.911 0 0 0 .067.223l2.059 2.71c.562.696 1.287.199 1.287.199l3.19-2.153a1.418 1.418 0 0 0 1.694.022l3.161 2.131s.726.497 1.29-.199l2.055-2.71s.044-.09.067-.223h.003a.803.803 0 0 0 .012-.14v-.008a.8.8 0 0 0-.012-.14h-.003c-.023-.133-.067-.225-.067-.225L12.871.748c-.232-.286-.491-.37-.716-.37-.322 0-.573.172-.573.172" id="bo"/><path d="M11.582.55l-3.16 2.13a1.412 1.412 0 0 0-.832-.27c-.325 0-.624.108-.862.291L3.537.55S2.812.053 2.25.748L.19 3.458s-.044.092-.067.224H.122a.763.763 0 0 0-.013.14v.007a.77.77 0 0 0 .013.142h.002a.911.911 0 0 0 .067.223l2.059 2.71c.562.696 1.287.199 1.287.199l3.19-2.153a1.418 1.418 0 0 0 1.694.022l3.161 2.131s.726.497 1.29-.199l2.055-2.71s.044-.09.067-.223h.003a.803.803 0 0 0 .012-.14v-.008a.8.8 0 0 0-.012-.14h-.003c-.023-.133-.067-.225-.067-.225L12.871.748c-.232-.286-.491-.37-.716-.37-.322 0-.573.172-.573.172" id="bq"/><path d="M11.582.55l-3.16 2.13a1.412 1.412 0 0 0-.832-.27c-.325 0-.624.108-.862.291L3.537.55S2.812.053 2.25.748L.19 3.458s-.044.092-.067.224H.122a.763.763 0 0 0-.013.14v.007a.77.77 0 0 0 .013.142h.002a.911.911 0 0 0 .067.223l2.059 2.71c.562.696 1.287.199 1.287.199l3.19-2.153a1.418 1.418 0 0 0 1.694.022l3.161 2.131s.726.497 1.29-.199l2.055-2.71s.044-.09.067-.223h.003a.803.803 0 0 0 .012-.14v-.008a.8.8 0 0 0-.012-.14h-.003c-.023-.133-.067-.225-.067-.225L12.871.748c-.232-.286-.491-.37-.716-.37-.322 0-.573.172-.573.172" id="bs"/><path d="M11.582.55l-3.16 2.13a1.412 1.412 0 0 0-.832-.27c-.325 0-.624.108-.862.291L3.537.55S2.812.053 2.25.748L.19 3.458s-.044.092-.067.224H.122a.763.763 0 0 0-.013.14v.007a.77.77 0 0 0 .013.142h.002a.911.911 0 0 0 .067.223l2.059 2.71c.562.696 1.287.199 1.287.199l3.19-2.153a1.418 1.418 0 0 0 1.694.022l3.161 2.131s.726.497 1.29-.199l2.055-2.71s.044-.09.067-.223h.003a.803.803 0 0 0 .012-.14v-.008a.8.8 0 0 0-.012-.14h-.003c-.023-.133-.067-.225-.067-.225L12.871.748c-.232-.286-.491-.37-.716-.37-.322 0-.573.172-.573.172" id="bu"/><path d="M11.582.55l-3.16 2.13a1.412 1.412 0 0 0-.832-.27c-.325 0-.624.108-.862.291L3.537.55S2.812.053 2.25.748L.19 3.458s-.044.092-.067.224H.122a.763.763 0 0 0-.013.14v.007a.77.77 0 0 0 .013.142h.002a.911.911 0 0 0 .067.223l2.059 2.71c.562.696 1.287.199 1.287.199l3.19-2.153a1.418 1.418 0 0 0 1.694.022l3.161 2.131s.726.497 1.29-.199l2.055-2.71s.044-.09.067-.223h.003a.803.803 0 0 0 .012-.14v-.008a.8.8 0 0 0-.012-.14h-.003c-.023-.133-.067-.225-.067-.225L12.871.748c-.232-.286-.491-.37-.716-.37-.322 0-.573.172-.573.172" id="bw"/><path d="M11.582.55l-3.16 2.13a1.412 1.412 0 0 0-.832-.27c-.325 0-.624.108-.862.291L3.537.55S2.812.053 2.25.748L.19 3.458s-.044.092-.067.224H.122a.763.763 0 0 0-.013.14v.007a.77.77 0 0 0 .013.142h.002a.911.911 0 0 0 .067.223l2.059 2.71c.562.696 1.287.199 1.287.199l3.19-2.153a1.418 1.418 0 0 0 1.694.022l3.161 2.131s.726.497 1.29-.199l2.055-2.71s.044-.09.067-.223h.003a.803.803 0 0 0 .012-.14v-.008a.8.8 0 0 0-.012-.14h-.003c-.023-.133-.067-.225-.067-.225L12.871.748c-.232-.286-.491-.37-.716-.37-.322 0-.573.172-.573.172" id="by"/><path d="M11.582.55l-3.16 2.13a1.412 1.412 0 0 0-.832-.27c-.325 0-.624.108-.862.291L3.537.55S2.812.053 2.25.748L.19 3.458s-.044.092-.067.224H.122a.763.763 0 0 0-.013.14v.007a.77.77 0 0 0 .013.142h.002a.911.911 0 0 0 .067.223l2.059 2.71c.562.696 1.287.199 1.287.199l3.19-2.153a1.418 1.418 0 0 0 1.694.022l3.161 2.131s.726.497 1.29-.199l2.055-2.71s.044-.09.067-.223h.003a.803.803 0 0 0 .012-.14v-.008a.8.8 0 0 0-.012-.14h-.003c-.023-.133-.067-.225-.067-.225L12.871.748c-.232-.286-.491-.37-.716-.37-.322 0-.573.172-.573.172" id="bA"/><path d="M11.582.55l-3.16 2.13a1.412 1.412 0 0 0-.832-.27c-.325 0-.624.108-.862.291L3.537.55S2.812.053 2.25.748L.19 3.458s-.044.092-.067.224H.122a.763.763 0 0 0-.013.14v.007a.77.77 0 0 0 .013.142h.002a.911.911 0 0 0 .067.223l2.059 2.71c.562.696 1.287.199 1.287.199l3.19-2.153a1.418 1.418 0 0 0 1.694.022l3.161 2.131s.726.497 1.29-.199l2.055-2.71s.044-.09.067-.223h.003a.803.803 0 0 0 .012-.14v-.008a.8.8 0 0 0-.012-.14h-.003c-.023-.133-.067-.225-.067-.225L12.871.748c-.232-.286-.491-.37-.716-.37-.322 0-.573.172-.573.172" id="bC"/><path d="M11.582.55l-3.16 2.13a1.412 1.412 0 0 0-.832-.27c-.325 0-.624.108-.862.291L3.537.55S2.812.053 2.25.748L.19 3.458s-.044.092-.067.224H.122a.763.763 0 0 0-.013.14v.007a.77.77 0 0 0 .013.142h.002a.911.911 0 0 0 .067.223l2.059 2.71c.562.696 1.287.199 1.287.199l3.19-2.153a1.418 1.418 0 0 0 1.694.022l3.161 2.131s.726.497 1.29-.199l2.055-2.71s.044-.09.067-.223h.003a.803.803 0 0 0 .012-.14v-.008a.8.8 0 0 0-.012-.14h-.003c-.023-.133-.067-.225-.067-.225L12.871.748c-.232-.286-.491-.37-.716-.37-.322 0-.573.172-.573.172" id="bE"/><path d="M11.582.55l-3.16 2.13a1.412 1.412 0 0 0-.832-.27c-.325 0-.624.108-.862.291L3.537.55S2.812.053 2.25.748L.19 3.458s-.044.092-.067.224H.122a.763.763 0 0 0-.013.14v.007a.77.77 0 0 0 .013.142h.002a.911.911 0 0 0 .067.223l2.059 2.71c.562.696 1.287.199 1.287.199l3.19-2.153a1.418 1.418 0 0 0 1.694.022l3.161 2.131s.726.497 1.29-.199l2.055-2.71s.044-.09.067-.223h.003a.803.803 0 0 0 .012-.14v-.008a.8.8 0 0 0-.012-.14h-.003c-.023-.133-.067-.225-.067-.225L12.871.748c-.232-.286-.491-.37-.716-.37-.322 0-.573.172-.573.172" id="bG"/><path d="M11.582.55l-3.16 2.13a1.412 1.412 0 0 0-.832-.27c-.325 0-.624.108-.862.291L3.537.55S2.812.053 2.25.748L.19 3.458s-.044.092-.067.224H.122a.763.763 0 0 0-.013.14v.007a.77.77 0 0 0 .013.142h.002a.911.911 0 0 0 .067.223l2.059 2.71c.562.696 1.287.199 1.287.199l3.19-2.153a1.418 1.418 0 0 0 1.694.022l3.161 2.131s.726.497 1.29-.199l2.055-2.71s.044-.09.067-.223h.003a.803.803 0 0 0 .012-.14v-.008a.8.8 0 0 0-.012-.14h-.003c-.023-.133-.067-.225-.067-.225L12.871.748c-.232-.286-.491-.37-.716-.37-.322 0-.573.172-.573.172" id="bI"/><path d="M11.582.55l-3.16 2.13a1.412 1.412 0 0 0-.832-.27c-.325 0-.624.108-.862.291L3.537.55S2.812.053 2.25.748L.19 3.458s-.044.092-.067.224H.122a.763.763 0 0 0-.013.14v.007a.77.77 0 0 0 .013.142h.002a.911.911 0 0 0 .067.223l2.059 2.71c.562.696 1.287.199 1.287.199l3.19-2.153a1.418 1.418 0 0 0 1.694.022l3.161 2.131s.726.497 1.29-.199l2.055-2.71s.044-.09.067-.223h.003a.803.803 0 0 0 .012-.14v-.008a.8.8 0 0 0-.012-.14h-.003c-.023-.133-.067-.225-.067-.225L12.871.748c-.232-.286-.491-.37-.716-.37-.322 0-.573.172-.573.172" id="bK"/><path d="M11.582.55l-3.16 2.13a1.412 1.412 0 0 0-.832-.27c-.325 0-.624.108-.862.291L3.537.55S2.812.053 2.25.748L.19 3.458s-.044.092-.067.224H.122a.763.763 0 0 0-.013.14v.007a.77.77 0 0 0 .013.142h.002a.911.911 0 0 0 .067.223l2.059 2.71c.562.696 1.287.199 1.287.199l3.19-2.153a1.418 1.418 0 0 0 1.694.022l3.161 2.131s.726.497 1.29-.199l2.055-2.71s.044-.09.067-.223h.003a.803.803 0 0 0 .012-.14v-.008a.8.8 0 0 0-.012-.14h-.003c-.023-.133-.067-.225-.067-.225L12.871.748c-.232-.286-.491-.37-.716-.37-.322 0-.573.172-.573.172" id="bM"/><path d="M11.582.55l-3.16 2.13a1.412 1.412 0 0 0-.832-.27c-.325 0-.624.108-.862.291L3.537.55S2.812.053 2.25.748L.19 3.458s-.044.092-.067.224H.122a.763.763 0 0 0-.013.14v.007a.77.77 0 0 0 .013.142h.002a.911.911 0 0 0 .067.223l2.059 2.71c.562.696 1.287.199 1.287.199l3.19-2.153a1.418 1.418 0 0 0 1.694.022l3.161 2.131s.726.497 1.29-.199l2.055-2.71s.044-.09.067-.223h.003a.803.803 0 0 0 .012-.14v-.008a.8.8 0 0 0-.012-.14h-.003c-.023-.133-.067-.225-.067-.225L12.871.748c-.232-.286-.491-.37-.716-.37-.322 0-.573.172-.573.172" id="bO"/><path d="M11.582.55l-3.16 2.13a1.412 1.412 0 0 0-.832-.27c-.325 0-.624.108-.862.291L3.537.55S2.812.053 2.25.748L.19 3.458s-.044.092-.067.224H.122a.763.763 0 0 0-.013.14v.007a.77.77 0 0 0 .013.142h.002a.911.911 0 0 0 .067.223l2.059 2.71c.562.696 1.287.199 1.287.199l3.19-2.153a1.418 1.418 0 0 0 1.694.022l3.161 2.131s.726.497 1.29-.199l2.055-2.71s.044-.09.067-.223h.003a.803.803 0 0 0 .012-.14v-.008a.8.8 0 0 0-.012-.14h-.003c-.023-.133-.067-.225-.067-.225L12.871.748c-.232-.286-.491-.37-.716-.37-.322 0-.573.172-.573.172" id="bQ"/><path d="M11.582.55l-3.16 2.13a1.412 1.412 0 0 0-.832-.27c-.325 0-.624.108-.862.291L3.537.55S2.812.053 2.25.748L.19 3.458s-.044.092-.067.224H.122a.763.763 0 0 0-.013.14v.007a.77.77 0 0 0 .013.142h.002a.911.911 0 0 0 .067.223l2.059 2.71c.562.696 1.287.199 1.287.199l3.19-2.153a1.418 1.418 0 0 0 1.694.022l3.161 2.131s.726.497 1.29-.199l2.055-2.71s.044-.09.067-.223h.003a.803.803 0 0 0 .012-.14v-.008a.8.8 0 0 0-.012-.14h-.003c-.023-.133-.067-.225-.067-.225L12.871.748c-.232-.286-.491-.37-.716-.37-.322 0-.573.172-.573.172" id="bS"/><path d="M11.582.55l-3.16 2.13a1.412 1.412 0 0 0-.832-.27c-.325 0-.624.108-.862.291L3.537.55S2.812.053 2.25.748L.19 3.458s-.044.092-.067.224H.122a.763.763 0 0 0-.013.14v.007a.77.77 0 0 0 .013.142h.002a.911.911 0 0 0 .067.223l2.059 2.71c.562.696 1.287.199 1.287.199l3.19-2.153a1.418 1.418 0 0 0 1.694.022l3.161 2.131s.726.497 1.29-.199l2.055-2.71s.044-.09.067-.223h.003a.803.803 0 0 0 .012-.14v-.008a.8.8 0 0 0-.012-.14h-.003c-.023-.133-.067-.225-.067-.225L12.871.748c-.232-.286-.491-.37-.716-.37-.322 0-.573.172-.573.172" id="bU"/><path d="M11.582.55l-3.16 2.13a1.412 1.412 0 0 0-.832-.27c-.325 0-.624.108-.862.291L3.537.55S2.812.053 2.25.748L.19 3.458s-.044.092-.067.224H.122a.763.763 0 0 0-.013.14v.007a.77.77 0 0 0 .013.142h.002a.911.911 0 0 0 .067.223l2.059 2.71c.562.696 1.287.199 1.287.199l3.19-2.153a1.418 1.418 0 0 0 1.694.022l3.161 2.131s.726.497 1.29-.199l2.055-2.71s.044-.09.067-.223h.003a.803.803 0 0 0 .012-.14v-.008a.8.8 0 0 0-.012-.14h-.003c-.023-.133-.067-.225-.067-.225L12.871.748c-.232-.286-.491-.37-.716-.37-.322 0-.573.172-.573.172" id="bW"/><path d="M11.582.55l-3.16 2.13a1.412 1.412 0 0 0-.832-.27c-.325 0-.624.108-.862.291L3.537.55S2.812.053 2.25.748L.19 3.458s-.044.092-.067.224H.122a.763.763 0 0 0-.013.14v.007a.77.77 0 0 0 .013.142h.002a.911.911 0 0 0 .067.223l2.059 2.71c.562.696 1.287.199 1.287.199l3.19-2.153a1.418 1.418 0 0 0 1.694.022l3.161 2.131s.726.497 1.29-.199l2.055-2.71s.044-.09.067-.223h.003a.803.803 0 0 0 .012-.14v-.008a.8.8 0 0 0-.012-.14h-.003c-.023-.133-.067-.225-.067-.225L12.871.748c-.232-.286-.491-.37-.716-.37-.322 0-.573.172-.573.172" id="bY"/><path d="M11.582.55l-3.16 2.13a1.412 1.412 0 0 0-.832-.27c-.325 0-.624.108-.862.291L3.537.55S2.812.053 2.25.748L.19 3.458s-.044.092-.067.224H.122a.763.763 0 0 0-.013.14v.007a.77.77 0 0 0 .013.142h.002a.911.911 0 0 0 .067.223l2.059 2.71c.562.696 1.287.199 1.287.199l3.19-2.153a1.418 1.418 0 0 0 1.694.022l3.161 2.131s.726.497 1.29-.199l2.055-2.71s.044-.09.067-.223h.003a.803.803 0 0 0 .012-.14v-.008a.8.8 0 0 0-.012-.14h-.003c-.023-.133-.067-.225-.067-.225L12.871.748c-.232-.286-.491-.37-.716-.37-.322 0-.573.172-.573.172" id="ca"/><path d="M11.582.55l-3.16 2.13a1.412 1.412 0 0 0-.832-.27c-.325 0-.624.108-.862.291L3.537.55S2.812.053 2.25.748L.19 3.458s-.044.092-.067.224H.122a.763.763 0 0 0-.013.14v.007a.77.77 0 0 0 .013.142h.002a.911.911 0 0 0 .067.223l2.059 2.71c.562.696 1.287.199 1.287.199l3.19-2.153a1.418 1.418 0 0 0 1.694.022l3.161 2.131s.726.497 1.29-.199l2.055-2.71s.044-.09.067-.223h.003a.803.803 0 0 0 .012-.14v-.008a.8.8 0 0 0-.012-.14h-.003c-.023-.133-.067-.225-.067-.225L12.871.748c-.232-.286-.491-.37-.716-.37-.322 0-.573.172-.573.172" id="cc"/><path d="M11.582.55l-3.16 2.13a1.412 1.412 0 0 0-.832-.27c-.325 0-.624.108-.862.291L3.537.55S2.812.053 2.25.748L.19 3.458s-.044.092-.067.224H.122a.763.763 0 0 0-.013.14v.007a.77.77 0 0 0 .013.142h.002a.911.911 0 0 0 .067.223l2.059 2.71c.562.696 1.287.199 1.287.199l3.19-2.153a1.418 1.418 0 0 0 1.694.022l3.161 2.131s.726.497 1.29-.199l2.055-2.71s.044-.09.067-.223h.003a.803.803 0 0 0 .012-.14v-.008a.8.8 0 0 0-.012-.14h-.003c-.023-.133-.067-.225-.067-.225L12.871.748c-.232-.286-.491-.37-.716-.37-.322 0-.573.172-.573.172" id="ce"/><path d="M.056 19.02c0 10.426 8.896 18.878 19.871 18.878 10.976 0 19.872-8.452 19.872-18.878C39.8 8.593 30.903.14 19.927.14 8.952.141.056 8.593.056 19.02" id="cg"/><path d="M.056 19.02c0 10.426 8.896 18.878 19.871 18.878 10.976 0 19.872-8.452 19.872-18.878C39.8 8.593 30.903.14 19.927.14 8.952.141.056 8.593.056 19.02" id="ci"/><path d="M.056 19.02c0 10.426 8.896 18.878 19.871 18.878 10.976 0 19.872-8.452 19.872-18.878C39.8 8.593 30.903.14 19.927.14 8.952.141.056 8.593.056 19.02" id="ck"/><path d="M.056 19.02c0 10.426 8.896 18.878 19.871 18.878 10.976 0 19.872-8.452 19.872-18.878C39.8 8.593 30.903.14 19.927.14 8.952.141.056 8.593.056 19.02" id="cm"/><path d="M.056 19.02c0 10.426 8.896 18.878 19.871 18.878 10.976 0 19.872-8.452 19.872-18.878C39.8 8.593 30.903.14 19.927.14 8.952.141.056 8.593.056 19.02z" id="co"/><path d="M.056 19.02c0 10.426 8.896 18.878 19.871 18.878 10.976 0 19.872-8.452 19.872-18.878C39.8 8.593 30.903.14 19.927.14 8.952.141.056 8.593.056 19.02z" id="cq"/></defs><g fill="none" fill-rule="evenodd"><path d="M53.139 24.23l-.01 1.217a83.176 83.176 0 0 0-1.908-.077 51.59 51.59 0 0 0-1.307-.02c-.26 0-.63.007-1.107.02-.477.013-1.27.038-2.379.077V24.23c.995 0 1.623-.09 1.884-.273.26-.182.39-.69.39-1.527v-6.769c0-.836-.129-1.342-.386-1.518-.257-.176-.886-.263-1.888-.263v-1.235c1.109.038 1.902.064 2.379.076.477.013.846.02 1.107.02.367 0 .803-.009 1.307-.024.504-.016 1.143-.04 1.918-.072v1.235c-.755.025-1.244.129-1.467.311-.224.182-.336.672-.336 1.47v2.528h5.208V15.66c0-.81-.112-1.304-.335-1.48-.224-.175-.713-.276-1.468-.301v-1.235c.762.032 1.394.056 1.899.072.503.015.936.023 1.296.023.267 0 .648-.006 1.142-.019a277.54 277.54 0 0 0 2.364-.076v1.235c-.995 0-1.623.087-1.883.263-.26.176-.39.682-.39 1.518v6.77c0 .836.13 1.344.395 1.526.263.182.89.273 1.878.273v1.217a277.54 277.54 0 0 0-2.364-.077 47.34 47.34 0 0 0-1.142-.02c-.374 0-.803.007-1.287.02a87.32 87.32 0 0 0-1.908.077V24.23c.742-.025 1.227-.132 1.458-.32.23-.189.345-.682.345-1.48v-2.987h-5.208v2.987c0 .798.113 1.291.34 1.48.227.188.715.295 1.463.32m21.783-5.18c0-1.864-.285-3.238-.856-4.122-.571-.884-1.454-1.326-2.65-1.326-1.195 0-2.078.442-2.648 1.326-.571.884-.857 2.258-.857 4.122 0 1.851.287 3.22.862 4.108.574.887 1.455 1.33 2.644 1.33 1.195 0 2.078-.443 2.649-1.33.57-.887.856-2.257.856-4.108m-9.735-.019c0-2.164.54-3.828 1.617-4.994 1.079-1.164 2.623-1.747 4.633-1.747s3.552.581 4.627 1.743c1.075 1.162 1.612 2.828 1.612 4.998 0 2.177-.539 3.852-1.617 5.027-1.078 1.175-2.619 1.762-4.622 1.762-2.004 0-3.546-.587-4.628-1.762-1.081-1.175-1.622-2.85-1.622-5.027m16.771 5.908v-3.351h1.823c.02 1.053.233 1.813.64 2.279.408.466 1.063.698 1.964.698.868 0 1.544-.193 2.028-.579.484-.386.726-.927.726-1.623 0-.268-.057-.528-.17-.78a1.898 1.898 0 0 0-.47-.646c-.415-.377-1.26-.786-2.535-1.226a30.49 30.49 0 0 1-1.382-.498c-.942-.376-1.64-.833-2.093-1.37-.454-.536-.681-1.17-.681-1.905 0-1.155.47-2.055 1.412-2.7.941-.644 2.25-.967 3.926-.967.728 0 1.414.06 2.058.182.644.121 1.264.31 1.858.565v3.093H89.18c0-.958-.178-1.644-.535-2.059-.358-.415-.94-.622-1.748-.622-.781 0-1.39.169-1.823.507-.434.339-.651.808-.651 1.408 0 .53.169.957.506 1.283.337.325 1.07.695 2.198 1.11l1.102.403c1.255.44 2.063.817 2.424 1.13.38.332.66.7.841 1.105.18.406.27.867.27 1.384 0 1.302-.477 2.301-1.432 2.997-.955.696-2.324 1.044-4.106 1.044a11.68 11.68 0 0 1-2.299-.216 8.198 8.198 0 0 1-1.968-.646m13.725-12.294h12.64v4.04h-1.854c0-.16.004-.359.01-.598a21 21 0 0 0 .01-.503c0-.408-.025-.711-.075-.91-.05-.197-.131-.338-.245-.421-.16-.121-.395-.207-.706-.258-.31-.051-.773-.077-1.387-.077h-.741v8.512c0 .837.132 1.345.395 1.527.264.182.89.273 1.878.273v1.216a183.714 183.714 0 0 0-2.358-.077 64.138 64.138 0 0 0-1.368-.018c-.42 0-.906.008-1.457.024-.55.016-1.227.04-2.028.071l-.01-1.216c.995 0 1.624-.09 1.888-.273.264-.182.395-.69.395-1.527v-8.512h-.72c-.662 0-1.14.026-1.433.077-.294.05-.52.137-.681.258-.12.083-.205.224-.255.422-.05.198-.075.5-.075.91 0 .095.003.262.01.502.006.24.01.439.01.598h-1.843v-4.04zm35.124 0v1.235c-1.002 0-1.63.087-1.888.263-.257.176-.386.682-.386 1.518v6.77c0 .836.13 1.344.39 1.526.262.182.89.273 1.884.273v1.216l-.701-.019a184.33 184.33 0 0 0-3.035-.076c-.427 0-.883.008-1.367.024-.485.016-1.03.04-1.637.071V24.23c.794-.019 1.31-.12 1.547-.301.237-.182.355-.682.355-1.499v-8.474l-4.026 11.318h-1.903l-3.856-11.356v8.512c0 .779.099 1.261.296 1.446.196.185.602.303 1.217.354v1.216a68.485 68.485 0 0 0-1.573-.071 41.611 41.611 0 0 0-2.854 0c-.428.016-.815.04-1.162.071l-.01-1.216c.995 0 1.623-.09 1.883-.273.26-.182.39-.69.39-1.527v-6.769c0-.836-.128-1.342-.386-1.518-.256-.176-.885-.263-1.887-.263v-1.235c.367.032.76.056 1.182.072a42.76 42.76 0 0 0 2.824 0c.487-.016 1.038-.04 1.653-.072l2.734 7.746a27.801 27.801 0 0 1 .821 2.719c.153-.6.294-1.11.42-1.532.128-.421.261-.823.402-1.207l2.764-7.726a33.298 33.298 0 0 0 2.503.095c.381 0 1.497-.031 3.346-.095h.06zm8.07 7.64h4.147l-2.074-5.898-2.073 5.898zm-4.817 5.142V24.23h.14c.928 0 1.649-.702 2.163-2.106l.06-.173 3.506-9.584h2.584l3.835 9.986.02.058c.468 1.213 1.186 1.82 2.154 1.82h.16v1.215a183.42 183.42 0 0 0-1.973-.071 47.837 47.837 0 0 0-1.412-.024c-.481 0-.971.008-1.473.024-.5.016-1.018.04-1.552.071l-.01-1.216h.04c1.216-.019 1.827-.236 1.833-.651a.925.925 0 0 0-.035-.23 3.2 3.2 0 0 0-.095-.296l-.59-1.648h-4.93l-.59 1.667a1.967 1.967 0 0 0-.12.67c0 .166.114.289.341.369.227.08.571.12 1.031.12h.33l-.01 1.215c-.78-.038-1.393-.063-1.837-.077a41.071 41.071 0 0 0-1.107-.018c-.28 0-.633.006-1.056.018-.424.014-.893.033-1.407.058zm27.142-2.116l-3.546-4.615 3.055-3.39c.234-.261.409-.477.526-.646.116-.169.175-.292.175-.369-.007-.134-.077-.23-.21-.292-.134-.06-.364-.1-.691-.12l-.01-1.234c.848.038 1.462.064 1.842.076.381.013.684.02.912.02.327 0 .693-.009 1.096-.024.404-.016.874-.04 1.407-.072v1.235h-.23c-.494 0-.928.095-1.302.287-.374.192-.888.651-1.542 1.379l-2.484 2.738 3.525 4.337c.261.32.496.586.707.8.21.214.378.36.506.436.193.128.403.222.63.282.227.061.481.091.762.091h.25l-.03 1.216a192.76 192.76 0 0 0-1.888-.071 40.818 40.818 0 0 0-1.287-.024c-.354 0-.773.006-1.257.018a92.89 92.89 0 0 0-1.898.077V24.23c.474 0 .811-.025 1.012-.077.2-.05.3-.136.3-.258 0-.115-.104-.303-.31-.565l-.02-.019zm-1.994-10.666v1.235c-.7.025-1.163.132-1.387.32-.224.189-.335.675-.335 1.461v6.77c0 .79.113 1.282.34 1.474.227.191.688.3 1.382.325v1.216a80.322 80.322 0 0 0-1.667-.071 44.545 44.545 0 0 0-1.407-.024c-.268 0-.645.006-1.132.018-.487.014-1.272.04-2.354.077V24.23c.995 0 1.623-.09 1.884-.273.26-.182.39-.69.39-1.527v-6.769c0-.836-.128-1.342-.386-1.518-.257-.176-.886-.263-1.888-.263v-1.235c1.082.038 1.867.064 2.354.076.487.013.864.02 1.132.02.427 0 .892-.009 1.397-.024.504-.016 1.063-.04 1.677-.072zM182 22v3.447h-12.058V24.23c.994 0 1.622-.09 1.883-.273.26-.182.39-.69.39-1.527v-6.77c0-.835-.128-1.341-.386-1.517-.257-.176-.886-.263-1.887-.263v-1.235h11.778v3.274l-1.703-.01a7.976 7.976 0 0 0 .02-.622c0-.612-.14-1.018-.42-1.216-.28-.197-1.015-.296-2.204-.296h-2.524v4.414h.631c1.028 0 1.683-.091 1.963-.273.28-.182.42-.547.42-1.097a3.912 3.912 0 0 0-.02-.411h1.373v4.825l-1.373-.01a3.656 3.656 0 0 0 .021-.402c0-.548-.14-.915-.421-1.1-.28-.186-.935-.278-1.963-.278h-.631v4.692h2.955c1.175 0 1.906-.098 2.193-.292.287-.195.43-.596.43-1.202 0-.115-.013-.313-.04-.594V22H182zm8.944-3.649h.932c1.041 0 1.807-.187 2.299-.56.49-.373.736-.959.736-1.757 0-.753-.23-1.29-.692-1.613-.46-.323-1.235-.484-2.323-.484h-.952v4.414zm8.743 5.88v1.215h-3.465a57.195 57.195 0 0 0-1.181-2.944c-.36-.82-.645-1.38-.851-1.68-.341-.48-.715-.82-1.123-1.02-.406-.201-.92-.302-1.542-.302h-.58v2.93c0 .83.124 1.334.375 1.513.25.179.823.275 1.718.287v1.216c-1.075-.038-1.85-.064-2.324-.076-.474-.013-.848-.02-1.121-.02-.241 0-.576.005-1.008.015-.43.01-1.257.037-2.478.081V24.23c.994 0 1.622-.09 1.883-.273.26-.181.39-.69.39-1.527v-6.77c0-.836-.128-1.342-.385-1.517-.257-.175-.887-.263-1.888-.263v-1.236h5.619c2.036 0 3.527.259 4.472.776.944.517 1.416 1.331 1.416 2.442 0 .785-.256 1.436-.77 1.953-.515.517-1.262.878-2.244 1.082.6.07 1.067.24 1.397.507.33.268.642.766.937 1.494l.89 2.097c.228.562.453.908.677 1.04.224.13.563.195 1.017.195h.17z" fill="#2B2A34"/><path d="M39.55 19.02c0 10.426-8.842 18.878-19.748 18.878S.055 29.446.055 19.019C.055 8.593 8.896.141 19.802.141S39.55 8.593 39.55 19.019" fill="#58C4C6"/><mask id="b" fill="#fff"><use xlink:href="#a"/></mask><path d="M60.39 46.748c.924-2.962.568-4.854.568-4.854s-2.51 4.848-4.288 5.094c0 0 4.358-4.252 3.979-7.545 0 0-2.202 3.798-3.861 4.317 0 0 3.97-3.332 2.963-7.726 0 0-1.779 4.662-3.556 4.832 0 0 3.022-3.443 2.755-6.623 0 0-12.237 16.005-29.164 1.661l.34 13.588 8.063 9.803s11.943 4.218 19.498-7.187l.016-.022c1.322-1.893 2.127-3.63 2.614-5.112l.107-.27-.034.044" fill="#E5E6E7" mask="url(#b)"/><mask id="d" fill="#fff"><use xlink:href="#c"/></mask><path d="M45.404 50.084c0-3.143.852-6.092 2.343-8.656-4.847 1.138-11.01.369-17.961-5.524l-.26 13.605 8.663 9.786s4.64 1.637 9.964.111a17.19 17.19 0 0 1-2.749-9.322" fill="#42474F" mask="url(#d)"/><mask id="f" fill="#fff"><use xlink:href="#e"/></mask><path d="M30.801 44.508c0 5.854-4.946 10.6-11.05 10.6-6.101 0-11.049-4.746-11.049-10.6 0-5.856 4.948-10.601 11.05-10.601 6.103 0 11.05 4.745 11.05 10.6z" stroke="#CBCBCB" stroke-width=".769" mask="url(#f)"/><mask id="h" fill="#fff"><use xlink:href="#g"/></mask><path d="M12.026 27.067c-.131.987-.756.12-1.089 1.163-.924 2.9-2.315 7.86-5.515 10.807 0 0 2.936 10.989 14.3 10.989 11.365 0 14.301-10.989 14.301-10.989-3.067-2.826-4.481-7.903-5.456-10.751-.409-1.192-1.067-.306-1.214-1.405" fill="#2B2A34" mask="url(#h)"/><mask id="j" fill="#fff"><use xlink:href="#i"/></mask><path d="M19.722 32.49C8.572 32.49-.47 42.178-.47 54.13c0 7.374 3.444 13.88 8.698 17.787 10.602-3.903 11.494-14.905 11.494-14.905 1.594 10.225 8.11 13.817 11.383 14.993 5.318-3.898 8.81-10.448 8.81-17.875 0-11.952-9.04-21.64-20.193-21.64" fill="#292D35" mask="url(#j)"/><mask id="l" fill="#fff"><use xlink:href="#k"/></mask><path d="M19.722 32.49C8.572 32.49-.47 42.178-.47 54.13c0 7.374 3.444 13.88 8.698 17.787 10.602-3.903 11.494-14.905 11.494-14.905 1.594 10.225 8.11 13.817 11.383 14.993 5.318-3.898 8.81-10.448 8.81-17.875 0-11.952-9.04-21.64-20.193-21.64" fill="#2B2A34" mask="url(#l)"/><mask id="n" fill="#fff"><use xlink:href="#m"/></mask><path d="M20.867 31.197c0 .513-.433.93-.967.93-.537 0-.97-.417-.97-.93 0-.513.433-.929.97-.929.534 0 .967.416.967.93" fill="#43474F" mask="url(#n)"/><mask id="p" fill="#fff"><use xlink:href="#o"/></mask><path d="M20.126 31.197c0 .12-.102.218-.227.218a.222.222 0 0 1-.228-.218c0-.12.102-.218.228-.218.125 0 .227.097.227.218" fill="#DBDADA" mask="url(#p)"/><mask id="r" fill="#fff"><use xlink:href="#q"/></mask><path d="M20.867 36.485c0 .514-.433.929-.967.929-.537 0-.97-.415-.97-.929 0-.513.433-.928.97-.928.534 0 .967.415.967.928" fill="#43474F" mask="url(#r)"/><mask id="t" fill="#fff"><use xlink:href="#s"/></mask><path d="M20.126 36.485c0 .12-.102.218-.227.218a.223.223 0 0 1-.228-.218c0-.12.102-.218.228-.218.125 0 .227.098.227.218" fill="#DBDADA" mask="url(#t)"/><mask id="v" fill="#fff"><use xlink:href="#u"/></mask><path d="M28.782 14.302c.127-2.45-.052-5.103-1.054-6.929-.517-1.423-2.206-2.303-3.92-2.841.766-.019 1.416-.013 1.416-.013-1.827-1.18-3.43-1.1-4.62-.681-.369-.05-.665-.081-.854-.1.852-.468 1.802-.79 1.802-.79-2.833-.666-5.253.816-6.31 1.62-1.672.542-3.297 1.415-3.802 2.805-1.002 1.826-1.181 4.479-1.053 6.929-.12 2.304-.019 4.05.506 5.768 1.425 3.228.75 5.654.044 8.16l8.815 14.9v.055l8.815-14.9c-.604-2.29-1.938-5.144-.331-8.243.554-1.692.648-3.78.546-5.74" fill="#E5E6E7" mask="url(#v)"/><mask id="x" fill="#fff"><use xlink:href="#w"/></mask><path d="M15.53 12.744c.026.771-.823 1.42-1.896 1.456-1.071.033-1.963-.56-1.99-1.332-.027-.768.822-1.42 1.893-1.455 1.073-.032 1.965.561 1.992 1.331" fill="#FEFEFE" mask="url(#x)"/><mask id="z" fill="#fff"><use xlink:href="#y"/></mask><path d="M14.47 12.649c.068.473-.272.91-.766.975-.493.068-.95-.27-1.016-.737-.067-.473.274-.906.768-.975.492-.063.948.266 1.014.737" fill="#2B2A34" mask="url(#z)"/><mask id="B" fill="#fff"><use xlink:href="#A"/></mask><path d="M27.415 12.744c.027.771-.822 1.42-1.895 1.456-1.073.033-1.964-.56-1.99-1.332-.027-.768.82-1.42 1.893-1.455 1.072-.032 1.964.561 1.992 1.331" fill="#FEFEFE" mask="url(#B)"/><mask id="D" fill="#fff"><use xlink:href="#C"/></mask><path d="M26.355 12.649c.069.473-.273.91-.766.975-.492.068-.949-.27-1.016-.737-.066-.473.274-.906.769-.975.492-.063.947.266 1.013.737" fill="#2B2A34" mask="url(#D)"/><mask id="F" fill="#fff"><use xlink:href="#E"/></mask><path d="M30.628 13.965s-.274.906-1.662 1.005c0 0-3.139.601-6.09-.293 0 0-.766-.19-1.288-2.013 0 0-.512-1.385.502-1.73 0 0 2.31-.746 7.131-.473 0 0 2.01-.005 2.01.801 0 0-.12 1.725-.603 2.703zM17.88 12.664c-.523 1.823-1.289 2.013-1.289 2.013-2.952.894-6.09.293-6.09.293-1.388-.099-1.662-1.005-1.662-1.005-.483-.978-.602-2.703-.602-2.703 0-.806 2.009-.8 2.009-.8 4.821-.274 7.132.471 7.132.471 1.013.346.502 1.731.502 1.731zm14.584-1.991s.014-.282-.557-.361c-.57-.08-1.01-.457-6.35-.334-3.788.308-4.881.712-4.881.712s-.21.06-.496.084a2.767 2.767 0 0 1-.987-.006c-.249-.028-.425-.078-.425-.078s-1.095-.404-4.881-.712c-5.341-.123-5.78.254-6.35.334-.57.08-.557.36-.557.36l.005.353c-.047 1.037.233 1.054.233 1.054.037.08.15.229.15.229.29.114.673 1.267.673 1.267.505 1.417 1.281 1.591 1.281 1.591 2.095.73 5.555.343 5.555.343s1.946-.053 2.553-.816c.458-.542 1.14-2.262 1.14-2.262s.123-.255.394-.427c.318-.145.757-.147.757-.147s.44.002.758.147c.271.172.44.47.44.47s.637 1.677 1.094 2.22c.607.762 2.552.815 2.552.815s3.461.387 5.556-.343c0 0 .776-.174 1.28-1.59 0 0 .384-1.154.674-1.268 0 0 .112-.15.15-.229 0 0 .28-.017.234-1.054l.005-.352z" fill="#2B2A34" mask="url(#F)"/><mask id="H" fill="#fff"><use xlink:href="#G"/></mask><path d="M19.575 14.673c-.962 1.554-2.963 1.977-2.963 1.977 1.573.947 3.143 3.831 3.143 3.831s1.505-2.884 3.078-3.831c0 0-2.296-.423-3.258-1.977" fill="#42474F" mask="url(#H)"/><mask id="J" fill="#fff"><use xlink:href="#I"/></mask><path d="M26.998 26.022a.726.726 0 0 0-.01-.134h-.004a.89.89 0 0 0-.066-.212l-2.026-2.568c-.555-.658-1.27-.187-1.27-.187l-3.113 2.018a1.43 1.43 0 0 0-.82-.256c-.32 0-.615.103-.85.276l-3.144-2.038s-.714-.471-1.268.187L12.4 25.676s-.044.087-.066.212h-.003a.692.692 0 0 0-.012.134v.006c0 .044.004.088.012.134h.003a.838.838 0 0 0 .066.212l2.028 2.567c.554.66 1.268.189 1.268.189l3.144-2.04a1.437 1.437 0 0 0 1.669.02l3.114 2.02s.715.47 1.27-.19l2.026-2.566s.043-.087.066-.212h.003a.733.733 0 0 0 .011-.134v-.006z" fill="#57C4C6" mask="url(#J)"/><g transform="translate(12 23)"><mask id="L" fill="#fff"><use xlink:href="#K"/></mask><path d="M1.722.645a.268.268 0 1 1-.536-.002.268.268 0 0 1 .536.002" fill="#E5E6E7" mask="url(#L)"/></g><g transform="translate(12 23)"><mask id="N" fill="#fff"><use xlink:href="#M"/></mask><path d="M1.722 1.916a.268.268 0 1 1-.535-.003.268.268 0 0 1 .535.003" fill="#E5E6E7" mask="url(#N)"/></g><g transform="translate(12 23)"><mask id="P" fill="#fff"><use xlink:href="#O"/></mask><path d="M1.722 3.187c0 .148-.12.266-.269.266a.266.266 0 1 1 0-.534c.149 0 .269.12.269.268" fill="#E5E6E7" mask="url(#P)"/></g><g transform="translate(12 23)"><mask id="R" fill="#fff"><use xlink:href="#Q"/></mask><path d="M1.722 4.458a.267.267 0 1 1-.535-.001.267.267 0 0 1 .535.001" fill="#E5E6E7" mask="url(#R)"/></g><g transform="translate(12 23)"><mask id="T" fill="#fff"><use xlink:href="#S"/></mask><path d="M1.722 5.729a.267.267 0 0 1-.535 0 .267.267 0 1 1 .535 0" fill="#E5E6E7" mask="url(#T)"/></g><g transform="translate(12 23)"><mask id="V" fill="#fff"><use xlink:href="#U"/></mask><path d="M4.149.91a.267.267 0 1 1-.535 0 .267.267 0 0 1 .535.002" fill="#E5E6E7" mask="url(#V)"/></g><g transform="translate(12 23)"><mask id="X" fill="#fff"><use xlink:href="#W"/></mask><path d="M4.149 2.181a.268.268 0 0 1-.536 0 .268.268 0 0 1 .536 0" fill="#E5E6E7" mask="url(#X)"/></g><g transform="translate(12 23)"><mask id="Z" fill="#fff"><use xlink:href="#Y"/></mask><path d="M4.149 3.453a.267.267 0 1 1-.535 0 .268.268 0 0 1 .535 0" fill="#E5E6E7" mask="url(#Z)"/></g><g transform="translate(12 23)"><mask id="ab" fill="#fff"><use xlink:href="#aa"/></mask><path d="M4.149 4.724c0 .149-.12.267-.267.267a.267.267 0 1 1 0-.534c.147 0 .267.12.267.267" fill="#E5E6E7" mask="url(#ab)"/></g><g transform="translate(12 23)"><mask id="ad" fill="#fff"><use xlink:href="#ac"/></mask><path d="M4.149 5.995a.268.268 0 1 1-.536 0 .267.267 0 0 1 .536 0" fill="#E5E6E7" mask="url(#ad)"/></g><g transform="translate(12 23)"><mask id="af" fill="#fff"><use xlink:href="#ae"/></mask><path d="M6.576.91a.268.268 0 1 1-.535 0 .268.268 0 0 1 .535.002" fill="#E5E6E7" mask="url(#af)"/></g><g transform="translate(12 23)"><mask id="ah" fill="#fff"><use xlink:href="#ag"/></mask><path d="M6.576 2.181a.268.268 0 0 1-.535 0 .267.267 0 1 1 .535 0" fill="#E5E6E7" mask="url(#ah)"/></g><g transform="translate(12 23)"><mask id="aj" fill="#fff"><use xlink:href="#ai"/></mask><path d="M6.576 3.453c0 .147-.12.266-.267.266a.266.266 0 1 1 0-.533c.147 0 .267.12.267.267" fill="#E5E6E7" mask="url(#aj)"/></g><g transform="translate(12 23)"><mask id="al" fill="#fff"><use xlink:href="#ak"/></mask><path d="M6.576 4.724c0 .149-.12.267-.267.267a.266.266 0 1 1 0-.534c.147 0 .267.12.267.267" fill="#E5E6E7" mask="url(#al)"/></g><g transform="translate(12 23)"><mask id="an" fill="#fff"><use xlink:href="#am"/></mask><path d="M6.576 5.995a.268.268 0 1 1-.535 0 .267.267 0 0 1 .535 0" fill="#E5E6E7" mask="url(#an)"/></g><g transform="translate(12 23)"><mask id="ap" fill="#fff"><use xlink:href="#ao"/></mask><path d="M9.002.91a.268.268 0 0 1-.535 0 .267.267 0 1 1 .535 0" fill="#E5E6E7" mask="url(#ap)"/></g><g transform="translate(12 23)"><mask id="ar" fill="#fff"><use xlink:href="#aq"/></mask><path d="M9.002 2.181a.268.268 0 1 1-.535 0 .268.268 0 0 1 .535 0" fill="#E5E6E7" mask="url(#ar)"/></g><g transform="translate(12 23)"><mask id="at" fill="#fff"><use xlink:href="#as"/></mask><path d="M9.002 3.453c0 .147-.12.266-.268.266a.266.266 0 1 1 0-.533c.147 0 .268.12.268.267" fill="#E5E6E7" mask="url(#at)"/></g><g transform="translate(12 23)"><mask id="av" fill="#fff"><use xlink:href="#au"/></mask><path d="M9.002 4.724c0 .149-.12.267-.268.267a.267.267 0 1 1 0-.533c.147 0 .268.119.268.266" fill="#E5E6E7" mask="url(#av)"/></g><g transform="translate(12 23)"><mask id="ax" fill="#fff"><use xlink:href="#aw"/></mask><path d="M11.43.91a.266.266 0 0 1-.268.267.267.267 0 1 1 0-.534c.149 0 .267.12.267.268" fill="#E5E6E7" mask="url(#ax)"/></g><g transform="translate(12 23)"><mask id="az" fill="#fff"><use xlink:href="#ay"/></mask><path d="M11.43 2.181a.267.267 0 1 1-.536 0 .268.268 0 0 1 .535 0" fill="#E5E6E7" mask="url(#az)"/></g><g transform="translate(12 23)"><mask id="aB" fill="#fff"><use xlink:href="#aA"/></mask><path d="M11.43 3.453a.265.265 0 0 1-.268.266.266.266 0 1 1 0-.533c.149 0 .267.12.267.267" fill="#E5E6E7" mask="url(#aB)"/></g><g transform="translate(12 23)"><mask id="aD" fill="#fff"><use xlink:href="#aC"/></mask><path d="M11.43 4.724a.265.265 0 0 1-.268.267.266.266 0 1 1 0-.533c.149 0 .267.119.267.266" fill="#E5E6E7" mask="url(#aD)"/></g><g transform="translate(12 23)"><mask id="aF" fill="#fff"><use xlink:href="#aE"/></mask><path d="M2.935 1.178a.267.267 0 0 1-.535 0c0-.148.12-.266.267-.266.149 0 .268.118.268.266" fill="#E5E6E7" mask="url(#aF)"/></g><g transform="translate(12 23)"><mask id="aH" fill="#fff"><use xlink:href="#aG"/></mask><path d="M2.935 2.449a.267.267 0 1 1-.267-.266c.148 0 .267.119.267.266" fill="#E5E6E7" mask="url(#aH)"/></g><g transform="translate(12 23)"><mask id="aJ" fill="#fff"><use xlink:href="#aI"/></mask><path d="M2.935 3.72a.267.267 0 1 1-.267-.268c.148.001.267.12.267.269" fill="#E5E6E7" mask="url(#aJ)"/></g><g transform="translate(12 23)"><mask id="aL" fill="#fff"><use xlink:href="#aK"/></mask><path d="M2.935 4.992a.267.267 0 1 1-.267-.268c.148 0 .267.12.267.268" fill="#E5E6E7" mask="url(#aL)"/></g><g transform="translate(12 23)"><mask id="aN" fill="#fff"><use xlink:href="#aM"/></mask><path d="M2.935 6.263a.268.268 0 1 1-.267-.268c.148 0 .267.12.267.268" fill="#E5E6E7" mask="url(#aN)"/></g><g transform="translate(12 23)"><mask id="aP" fill="#fff"><use xlink:href="#aO"/></mask><path d="M.508 1.178a.266.266 0 1 1-.533 0 .266.266 0 0 1 .533 0" fill="#E5E6E7" mask="url(#aP)"/></g><g transform="translate(12 23)"><mask id="aR" fill="#fff"><use xlink:href="#aQ"/></mask><path d="M.508 2.449c0 .148-.12.266-.267.266a.266.266 0 1 1 0-.532c.148 0 .267.119.267.266" fill="#E5E6E7" mask="url(#aR)"/></g><g transform="translate(12 23)"><mask id="aT" fill="#fff"><use xlink:href="#aS"/></mask><path d="M.508 3.72a.266.266 0 0 1-.534 0 .267.267 0 1 1 .534 0" fill="#E5E6E7" mask="url(#aT)"/></g><g transform="translate(12 23)"><mask id="aV" fill="#fff"><use xlink:href="#aU"/></mask><path d="M.508 4.992c0 .147-.12.266-.267.266a.266.266 0 1 1 .267-.266" fill="#E5E6E7" mask="url(#aV)"/></g><g transform="translate(12 23)"><mask id="aX" fill="#fff"><use xlink:href="#aW"/></mask><path d="M.508 6.263a.267.267 0 1 1-.533 0 .267.267 0 0 1 .533 0" fill="#E5E6E7" mask="url(#aX)"/></g><g transform="translate(12 23)"><mask id="aZ" fill="#fff"><use xlink:href="#aY"/></mask><path d="M5.363 1.178a.269.269 0 0 1-.269.267.266.266 0 0 1-.266-.267.267.267 0 1 1 .534 0" fill="#E5E6E7" mask="url(#aZ)"/></g><g transform="translate(12 23)"><mask id="bb" fill="#fff"><use xlink:href="#ba"/></mask><path d="M5.363 2.449a.267.267 0 0 1-.535 0 .268.268 0 0 1 .535 0" fill="#E5E6E7" mask="url(#bb)"/></g><g transform="translate(12 23)"><mask id="bd" fill="#fff"><use xlink:href="#bc"/></mask><path d="M5.363 3.72a.268.268 0 0 1-.535 0c0-.147.119-.267.266-.267.148 0 .269.12.269.268" fill="#E5E6E7" mask="url(#bd)"/></g><g transform="translate(12 23)"><mask id="bf" fill="#fff"><use xlink:href="#be"/></mask><path d="M5.363 4.992a.267.267 0 0 1-.535 0 .268.268 0 0 1 .535 0" fill="#E5E6E7" mask="url(#bf)"/></g><g transform="translate(12 23)"><mask id="bh" fill="#fff"><use xlink:href="#bg"/></mask><path d="M5.363 6.263a.268.268 0 0 1-.269.266.266.266 0 0 1-.266-.266.267.267 0 1 1 .535 0" fill="#E5E6E7" mask="url(#bh)"/></g><g transform="translate(12 23)"><mask id="bj" fill="#fff"><use xlink:href="#bi"/></mask><path d="M7.788 1.178a.267.267 0 0 1-.534 0 .267.267 0 0 1 .534 0" fill="#E5E6E7" mask="url(#bj)"/></g><g transform="translate(12 23)"><mask id="bl" fill="#fff"><use xlink:href="#bk"/></mask><path d="M7.788 2.449a.267.267 0 0 1-.534 0 .267.267 0 0 1 .534 0" fill="#E5E6E7" mask="url(#bl)"/></g><g transform="translate(12 23)"><mask id="bn" fill="#fff"><use xlink:href="#bm"/></mask><path d="M7.788 3.72a.267.267 0 1 1-.265-.268c.146.001.265.12.265.269" fill="#E5E6E7" mask="url(#bn)"/></g><g transform="translate(12 23)"><mask id="bp" fill="#fff"><use xlink:href="#bo"/></mask><path d="M7.788 4.992a.267.267 0 1 1-.265-.268c.146 0 .265.12.265.268" fill="#E5E6E7" mask="url(#bp)"/></g><g transform="translate(12 23)"><mask id="br" fill="#fff"><use xlink:href="#bq"/></mask><path d="M7.788 6.263a.266.266 0 0 1-.266.266.268.268 0 0 1-.268-.266.266.266 0 1 1 .534 0" fill="#E5E6E7" mask="url(#br)"/></g><g transform="translate(12 23)"><mask id="bt" fill="#fff"><use xlink:href="#bs"/></mask><path d="M10.216 1.178a.267.267 0 1 1-.535 0c0-.148.12-.266.268-.266.148 0 .267.118.267.266" fill="#E5E6E7" mask="url(#bt)"/></g><g transform="translate(12 23)"><mask id="bv" fill="#fff"><use xlink:href="#bu"/></mask><path d="M10.216 2.449a.267.267 0 1 1-.268-.266c.149 0 .268.119.268.266" fill="#E5E6E7" mask="url(#bv)"/></g><g transform="translate(12 23)"><mask id="bx" fill="#fff"><use xlink:href="#bw"/></mask><path d="M10.216 3.72a.267.267 0 1 1-.268-.268c.149.001.268.12.268.269" fill="#E5E6E7" mask="url(#bx)"/></g><g transform="translate(12 23)"><mask id="bz" fill="#fff"><use xlink:href="#by"/></mask><path d="M10.216 4.992c0 .147-.12.266-.267.266a.267.267 0 1 1 0-.533c.148 0 .267.119.267.267" fill="#E5E6E7" mask="url(#bz)"/></g><g transform="translate(12 23)"><mask id="bB" fill="#fff"><use xlink:href="#bA"/></mask><path d="M10.216 6.263a.267.267 0 1 1-.534-.001.267.267 0 0 1 .534 0" fill="#E5E6E7" mask="url(#bB)"/></g><g transform="translate(12 23)"><mask id="bD" fill="#fff"><use xlink:href="#bC"/></mask><path d="M12.643 1.178a.267.267 0 1 1-.534 0 .267.267 0 0 1 .534 0" fill="#E5E6E7" mask="url(#bD)"/></g><g transform="translate(12 23)"><mask id="bF" fill="#fff"><use xlink:href="#bE"/></mask><path d="M12.643 2.449a.266.266 0 1 1-.533 0 .266.266 0 0 1 .533 0" fill="#E5E6E7" mask="url(#bF)"/></g><g transform="translate(12 23)"><mask id="bH" fill="#fff"><use xlink:href="#bG"/></mask><path d="M12.643 3.72a.267.267 0 1 1-.534 0 .267.267 0 0 1 .534 0" fill="#E5E6E7" mask="url(#bH)"/></g><g transform="translate(12 23)"><mask id="bJ" fill="#fff"><use xlink:href="#bI"/></mask><path d="M12.643 4.992c0 .147-.12.266-.268.266a.267.267 0 1 1 .268-.266" fill="#E5E6E7" mask="url(#bJ)"/></g><g transform="translate(12 23)"><mask id="bL" fill="#fff"><use xlink:href="#bK"/></mask><path d="M12.643 6.263a.267.267 0 1 1-.534-.001.267.267 0 0 1 .534 0" fill="#E5E6E7" mask="url(#bL)"/></g><g transform="translate(12 23)"><mask id="bN" fill="#fff"><use xlink:href="#bM"/></mask><path d="M15.069 1.178a.266.266 0 1 1-.533 0 .266.266 0 0 1 .533 0" fill="#E5E6E7" mask="url(#bN)"/></g><g transform="translate(12 23)"><mask id="bP" fill="#fff"><use xlink:href="#bO"/></mask><path d="M15.069 2.449a.266.266 0 1 1-.532 0 .266.266 0 0 1 .532 0" fill="#E5E6E7" mask="url(#bP)"/></g><g transform="translate(12 23)"><mask id="bR" fill="#fff"><use xlink:href="#bQ"/></mask><path d="M15.069 3.72a.266.266 0 0 1-.533 0 .267.267 0 1 1 .533 0" fill="#E5E6E7" mask="url(#bR)"/></g><g transform="translate(12 23)"><mask id="bT" fill="#fff"><use xlink:href="#bS"/></mask><path d="M15.069 4.992c0 .147-.12.266-.267.266a.266.266 0 1 1 .267-.266" fill="#E5E6E7" mask="url(#bT)"/></g><g transform="translate(12 23)"><mask id="bV" fill="#fff"><use xlink:href="#bU"/></mask><path d="M15.069 6.263a.267.267 0 1 1-.533 0 .267.267 0 0 1 .533 0" fill="#E5E6E7" mask="url(#bV)"/></g><g transform="translate(12 23)"><mask id="bX" fill="#fff"><use xlink:href="#bW"/></mask><path d="M13.856 1.178a.267.267 0 0 1-.535 0 .267.267 0 0 1 .535 0" fill="#E5E6E7" mask="url(#bX)"/></g><g transform="translate(12 23)"><mask id="bZ" fill="#fff"><use xlink:href="#bY"/></mask><path d="M13.856 2.449a.268.268 0 0 1-.535 0 .268.268 0 0 1 .535 0" fill="#E5E6E7" mask="url(#bZ)"/></g><g transform="translate(12 23)"><mask id="cb" fill="#fff"><use xlink:href="#ca"/></mask><path d="M13.856 3.72a.267.267 0 1 1-.534-.002.267.267 0 0 1 .534.003" fill="#E5E6E7" mask="url(#cb)"/></g><g transform="translate(12 23)"><mask id="cd" fill="#fff"><use xlink:href="#cc"/></mask><path d="M13.856 4.992a.268.268 0 1 1-.535 0 .268.268 0 0 1 .535 0" fill="#E5E6E7" mask="url(#cd)"/></g><g transform="translate(12 23)"><mask id="cf" fill="#fff"><use xlink:href="#ce"/></mask><path d="M13.856 6.263a.267.267 0 1 1-.535-.002.267.267 0 0 1 .535.002" fill="#E5E6E7" mask="url(#cf)"/></g><mask id="ch" fill="#fff"><use xlink:href="#cg"/></mask><path d="M20.867 31.66c0 .512-.432.928-.967.928-.535 0-.968-.416-.968-.929 0-.513.433-.929.968-.929.535 0 .967.416.967.93" fill="#42474F" mask="url(#ch)"/><mask id="cj" fill="#fff"><use xlink:href="#ci"/></mask><path d="M20.127 31.66c0 .12-.102.217-.227.217a.223.223 0 0 1-.227-.218c0-.12.101-.218.227-.218.125 0 .227.097.227.218" fill="#E5E6E7" mask="url(#cj)"/><mask id="cl" fill="#fff"><use xlink:href="#ck"/></mask><path d="M20.867 35.636c0 .514-.432.93-.967.93-.535 0-.968-.416-.968-.93 0-.512.433-.928.968-.928.535 0 .967.416.967.928" fill="#42474F" mask="url(#cl)"/><mask id="cn" fill="#fff"><use xlink:href="#cm"/></mask><path d="M20.127 35.636a.223.223 0 0 1-.227.219.223.223 0 0 1-.227-.219c0-.12.101-.218.227-.218.125 0 .227.097.227.218" fill="#E5E6E7" mask="url(#cn)"/><mask id="cp" fill="#fff"><use xlink:href="#co"/></mask><path fill="#42474F" mask="url(#cp)" d="M28.567 28.285l-1.471 4.375 1.577.8L19.9 46.552V40.49z"/><mask id="cr" fill="#fff"><use xlink:href="#cq"/></mask><path fill="#42474F" mask="url(#cr)" d="M10.937 28.23l1.458 4.563-1.577.8 8.934 13.094V39.76z"/></g></svg>